AnekTamil-Regular.ufo
<glyph name="exclam" format="2">
  <advance width="463.25"/>
  <unicode hex="0021"/>
  <outline>
    <contour>
      <point x="299.22" y="393.4" type="line"/>
      <point x="318.35" y="1278.0" type="line"/>
      <point x="144.685" y="1278.0" type="line"/>
      <point x="164.03" y="393.4" type="line"/>
    </contour>
    <contour>
      <point x="231.41" y="-19.065" type="curve" smooth="yes"/>
      <point x="299.875" y="-19.065"/>
      <point x="332.93" y="20.345"/>
      <point x="332.93" y="89.745" type="curve" smooth="yes"/>
      <point x="332.93" y="99.745" type="line" smooth="yes"/>
      <point x="332.93" y="168.145"/>
      <point x="299.875" y="207.34"/>
      <point x="231.41" y="207.34" type="curve" smooth="yes"/>
      <point x="162.59" y="207.34"/>
      <point x="130.32" y="168.145"/>
      <point x="130.32" y="99.745" type="curve" smooth="yes"/>
      <point x="130.32" y="89.745" type="line" smooth="yes"/>
      <point x="130.32" y="20.345"/>
      <point x="162.59" y="-19.065"/>
    </contour>
  </outline>
</glyph>
<glyph name="numbersign" format="2">
  <advance width="1180.645"/>
  <unicode hex="0023"/>
  <outline>
    <contour>
      <point x="219.05" y="0.0" type="line"/>
      <point x="351.605" y="0.0" type="line"/>
      <point x="511.455" y="1278.0" type="line"/>
      <point x="378.9" y="1278.0" type="line"/>
    </contour>
    <contour>
      <point x="65.73" y="332.975" type="line"/>
      <point x="1057.7" y="332.975" type="line"/>
      <point x="1057.7" y="452.11" type="line"/>
      <point x="65.73" y="452.11" type="line"/>
    </contour>
    <contour>
      <point x="673.545" y="0.0" type="line"/>
      <point x="807.1" y="0.0" type="line"/>
      <point x="963.165" y="1278.0" type="line"/>
      <point x="829.825" y="1278.0" type="line"/>
    </contour>
    <contour>
      <point x="125.945" y="830.61" type="line"/>
      <point x="1115.7" y="830.61" type="line"/>
      <point x="1115.7" y="949.745" type="line"/>
      <point x="125.945" y="949.745" type="line"/>
    </contour>
  </outline>
</glyph>
<glyph name="dollar" format="2">
  <advance width="1042.12"/>
  <unicode hex="0024"/>
  <anchor x="512.56" y="0.0" name="bottom"/>
  <anchor x="512.56" y="1278.0" name="top"/>
  <outline>
    <contour>
      <point x="588.295" y="1212.845" type="line"/>
      <point x="588.295" y="1489.795" type="line"/>
      <point x="443.965" y="1489.795" type="line"/>
      <point x="443.965" y="1212.845" type="line"/>
    </contour>
    <contour>
      <point x="588.295" y="-217.01" type="line"/>
      <point x="588.295" y="88.705" type="line"/>
      <point x="443.965" y="88.705" type="line"/>
      <point x="443.965" y="-217.01" type="line"/>
    </contour>
    <component base="S"/>
  </outline>
</glyph>
<glyph name="percent" format="2">
  <advance width="1481.815"/>
  <unicode hex="0025"/>
  <outline>
    <contour>
      <point x="277.515" y="0.0" type="line"/>
      <point x="431.695" y="0.0" type="line"/>
      <point x="1207.44" y="1278.0" type="line"/>
      <point x="1053.26" y="1278.0" type="line"/>
    </contour>
    <contour>
      <point x="1121.76" y="-24.28" type="curve" smooth="yes"/>
      <point x="1297.375" y="-24.28"/>
      <point x="1394.075" y="79.86"/>
      <point x="1394.075" y="256.055" type="curve" smooth="yes"/>
      <point x="1394.075" y="347.85" type="line" smooth="yes"/>
      <point x="1394.075" y="524.26"/>
      <point x="1297.59" y="626.615"/>
      <point x="1121.76" y="626.615" type="curve" smooth="yes"/>
      <point x="946.715" y="626.615"/>
      <point x="850.8" y="522.69"/>
      <point x="850.8" y="347.85" type="curve" smooth="yes"/>
      <point x="850.8" y="256.055" type="line" smooth="yes"/>
      <point x="850.8" y="79.86"/>
      <point x="945.715" y="-24.28"/>
    </contour>
    <contour>
      <point x="1121.76" y="88.575" type="curve" smooth="yes"/>
      <point x="1032.515" y="88.575"/>
      <point x="983.14" y="146.025"/>
      <point x="983.14" y="252.7" type="curve" smooth="yes"/>
      <point x="983.14" y="350.42" type="line" smooth="yes"/>
      <point x="983.14" y="456.88"/>
      <point x="1031.515" y="514.545"/>
      <point x="1121.76" y="514.545" type="curve" smooth="yes"/>
      <point x="1211.575" y="514.545"/>
      <point x="1260.165" y="456.88"/>
      <point x="1260.165" y="350.42" type="curve" smooth="yes"/>
      <point x="1260.165" y="252.7" type="line" smooth="yes"/>
      <point x="1260.165" y="146.025"/>
      <point x="1212.575" y="88.575"/>
    </contour>
    <contour>
      <point x="358.13" y="652.17" type="curve" smooth="yes"/>
      <point x="533.745" y="652.17"/>
      <point x="630.445" y="756.31"/>
      <point x="630.445" y="930.935" type="curve" smooth="yes"/>
      <point x="630.445" y="1023.515" type="line" smooth="yes"/>
      <point x="630.445" y="1198.355"/>
      <point x="533.96" y="1301.495"/>
      <point x="358.13" y="1301.495" type="curve" smooth="yes"/>
      <point x="182.085" y="1301.495"/>
      <point x="86.385" y="1198.355"/>
      <point x="86.385" y="1023.515" type="curve" smooth="yes"/>
      <point x="86.385" y="930.935" type="line" smooth="yes"/>
      <point x="86.385" y="755.525"/>
      <point x="182.085" y="652.17"/>
    </contour>
    <contour>
      <point x="358.13" y="764.24" type="curve" smooth="yes"/>
      <point x="268.885" y="764.24"/>
      <point x="219.51" y="820.905"/>
      <point x="219.51" y="927.58" type="curve" smooth="yes"/>
      <point x="219.51" y="1026.085" type="line" smooth="yes"/>
      <point x="219.51" y="1131.76"/>
      <point x="267.885" y="1190.21"/>
      <point x="358.13" y="1190.21" type="curve" smooth="yes"/>
      <point x="447.945" y="1190.21"/>
      <point x="496.535" y="1131.76"/>
      <point x="496.535" y="1026.085" type="curve" smooth="yes"/>
      <point x="496.535" y="927.58" type="line" smooth="yes"/>
      <point x="496.535" y="820.905"/>
      <point x="448.16" y="764.24"/>
    </contour>
  </outline>
</glyph>
<glyph name="ampersand" format="2">
  <advance width="1256.135"/>
  <unicode hex="0026"/>
  <outline>
    <contour>
      <point x="1076.89" y="0.0" type="curve"/>
      <point x="1269.405" y="0.0" type="line"/>
      <point x="1269.405" y="13.205" type="line"/>
      <point x="1170.565" y="115.4"/>
      <point x="1067.135" y="219.4"/>
      <point x="972.37" y="311.24" type="curve"/>
      <point x="932.755" y="354.21" type="line"/>
      <point x="483.32" y="782.14" type="line" smooth="yes"/>
      <point x="406.105" y="856.355"/>
      <point x="366.385" y="915.58"/>
      <point x="366.385" y="990.815" type="curve" smooth="yes"/>
      <point x="366.385" y="996.46" type="line" smooth="yes"/>
      <point x="366.385" y="1094.78"/>
      <point x="428.33" y="1156.165"/>
      <point x="584.8" y="1156.165" type="curve" smooth="yes"/>
      <point x="717.175" y="1156.165"/>
      <point x="826.885" y="1118.015"/>
      <point x="911.735" y="1072.435" type="curve"/>
      <point x="895.53" y="1221.98" type="line"/>
      <point x="823.755" y="1262.7"/>
      <point x="713.755" y="1300.495"/>
      <point x="556.185" y="1300.495" type="curve" smooth="yes"/>
      <point x="311.485" y="1300.495"/>
      <point x="196.075" y="1186.43"/>
      <point x="196.075" y="1000.955" type="curve" smooth="yes"/>
      <point x="196.075" y="993.74" type="line" smooth="yes"/>
      <point x="196.075" y="885.815"/>
      <point x="236.935" y="814.74"/>
      <point x="324.075" y="725.675" type="curve"/>
      <point x="348.13" y="696.91" type="line"/>
      <point x="832.115" y="242.495" type="line"/>
      <point x="853.675" y="218.935" type="line"/>
      <point x="895.975" y="177.635"/>
      <point x="1029.515" y="47.59"/>
    </contour>
    <contour>
      <point x="514.625" y="-22.71" type="curve" smooth="yes"/>
      <point x="722.755" y="-22.71"/>
      <point x="853.68" y="57.945"/>
      <point x="956.175" y="197.105" type="curve"/>
      <point x="999.855" y="243.0" type="line"/>
      <point x="1091.835" y="383.85"/>
      <point x="1143.545" y="570.13"/>
      <point x="1167.545" y="792.99" type="curve"/>
      <point x="1008.225" y="792.99" type="line"/>
      <point x="991.72" y="617.96"/>
      <point x="955.785" y="467.94"/>
      <point x="889.215" y="348.145" type="curve"/>
      <point x="846.675" y="293.895" type="line"/>
      <point x="773.73" y="179.575"/>
      <point x="674.785" y="116.125"/>
      <point x="529.185" y="116.125" type="curve" smooth="yes"/>
      <point x="353.5" y="116.125"/>
      <point x="261.76" y="203.435"/>
      <point x="261.76" y="372.84" type="curve" smooth="yes"/>
      <point x="261.76" y="408.215" type="line" smooth="yes"/>
      <point x="261.76" y="538.395"/>
      <point x="305.415" y="614.35"/>
      <point x="414.81" y="665.435" type="curve"/>
      <point x="327.795" y="780.0" type="line"/>
      <point x="156.085" y="691.01"/>
      <point x="92.235" y="577.785"/>
      <point x="92.235" y="395.01" type="curve" smooth="yes"/>
      <point x="92.235" y="358.495" type="line" smooth="yes"/>
      <point x="92.235" y="113.57"/>
      <point x="233.085" y="-22.71"/>
    </contour>
  </outline>
</glyph>
<glyph name="quotesingle" format="2">
  <advance width="358.165"/>
  <unicode hex="0027"/>
  <outline>
    <contour>
      <point x="242.575" y="839.6" type="line"/>
      <point x="259.135" y="1325.075" type="line"/>
      <point x="99.03" y="1325.075" type="line"/>
      <point x="115.02" y="839.6" type="line"/>
    </contour>
  </outline>
</glyph>
<glyph name="parenleft" format="2">
  <advance width="583.67"/>
  <unicode hex="0028"/>
  <outline>
    <contour>
      <point x="296.21" y="615.74" type="line" smooth="yes"/>
      <point x="296.21" y="913.75"/>
      <point x="369.64" y="1142.44"/>
      <point x="532.92" y="1350.785" type="curve"/>
      <point x="364.675" y="1350.785" type="line"/>
      <point x="211.535" y="1152.15"/>
      <point x="139.675" y="928.6"/>
      <point x="139.675" y="620.31" type="curve" smooth="yes"/>
      <point x="139.675" y="488.98" type="line" smooth="yes"/>
      <point x="139.675" y="178.335"/>
      <point x="209.18" y="-44.43"/>
      <point x="363.105" y="-242.28" type="curve"/>
      <point x="532.92" y="-242.28" type="line"/>
      <point x="369.64" y="-32.15"/>
      <point x="296.21" y="195.54"/>
      <point x="296.21" y="494.335" type="curve" smooth="yes"/>
    </contour>
  </outline>
</glyph>
<glyph name="parenright" format="2">
  <advance width="585.24"/>
  <unicode hex="0029"/>
  <outline>
    <contour>
      <point x="289.03" y="615.74" type="curve" smooth="yes"/>
      <point x="289.03" y="494.335" type="line" smooth="yes"/>
      <point x="289.03" y="195.54"/>
      <point x="215.6" y="-32.15"/>
      <point x="52.32" y="-242.28" type="curve"/>
      <point x="222.135" y="-242.28" type="line"/>
      <point x="376.06" y="-44.43"/>
      <point x="445.565" y="178.335"/>
      <point x="445.565" y="488.98" type="curve" smooth="yes"/>
      <point x="445.565" y="620.31" type="line" smooth="yes"/>
      <point x="445.565" y="928.6"/>
      <point x="373.705" y="1152.15"/>
      <point x="220.565" y="1350.785" type="curve"/>
      <point x="52.32" y="1350.785" type="line"/>
      <point x="215.6" y="1142.44"/>
      <point x="289.03" y="913.75"/>
    </contour>
  </outline>
</glyph>
<glyph name="asterisk" format="2">
  <advance width="764.7"/>
  <unicode hex="002A"/>
  <outline>
    <contour>
      <point x="234.11" y="661.2" type="line"/>
      <point x="381.14" y="873.37" type="line"/>
      <point x="382.775" y="873.37" type="line"/>
      <point x="530.375" y="661.2" type="line"/>
      <point x="641.445" y="738.58" type="line"/>
      <point x="467.93" y="933.76" type="line"/>
      <point x="468.07" y="934.75" type="line"/>
      <point x="709.82" y="987.2" type="line"/>
      <point x="677.055" y="1116.615" type="line"/>
      <point x="436.735" y="1028.26" type="line"/>
      <point x="436.1" y="1028.11" type="line"/>
      <point x="454.445" y="1278.0" type="line"/>
      <point x="310.47" y="1278.0" type="line"/>
      <point x="328.815" y="1028.11" type="line"/>
      <point x="327.75" y="1028.26" type="line"/>
      <point x="87.43" y="1116.615" type="line"/>
      <point x="54.88" y="987.2" type="line"/>
      <point x="295.845" y="934.75" type="line"/>
      <point x="295.985" y="933.76" type="line"/>
      <point x="122.47" y="738.58" type="line"/>
    </contour>
  </outline>
</glyph>
<glyph name="plus" format="2">
  <advance width="1001.42"/>
  <unicode hex="002B"/>
  <outline>
    <contour>
      <point x="570.735" y="200.795" type="line"/>
      <point x="570.735" y="1043.14" type="line"/>
      <point x="430.9" y="1043.14" type="line"/>
      <point x="430.9" y="200.795" type="line"/>
    </contour>
    <contour>
      <point x="103.515" y="556.405" type="line"/>
      <point x="897.905" y="556.405" type="line"/>
      <point x="897.905" y="687.53" type="line"/>
      <point x="103.515" y="687.53" type="line"/>
    </contour>
  </outline>
</glyph>
<glyph name="comma" format="2">
  <advance width="376.145"/>
  <unicode hex="002C"/>
  <outline>
    <contour>
      <point x="268.985" y="270.885" type="curve"/>
      <point x="113.235" y="270.885" type="line"/>
      <point x="118.45" y="230.39"/>
      <point x="120.665" y="192.39"/>
      <point x="120.665" y="149.465" type="curve" smooth="yes"/>
      <point x="120.665" y="0.7550000000000008"/>
      <point x="88.45" y="-117.17"/>
      <point x="18.655" y="-227.17" type="curve"/>
      <point x="131.145" y="-263.3" type="line"/>
      <point x="237.705" y="-136.235"/>
      <point x="278.77" y="-4.029999999999999"/>
      <point x="278.77" y="155.96" type="curve" smooth="yes"/>
      <point x="278.77" y="202.39"/>
      <point x="272.77" y="245.605"/>
    </contour>
  </outline>
</glyph>
<glyph name="hyphen" format="2">
  <advance width="813.91"/>
  <unicode hex="002D"/>
  <outline>
    <contour>
      <point x="122.815" y="458.125" type="line"/>
      <point x="691.31" y="458.125" type="line"/>
      <point x="691.31" y="591.035" type="line"/>
      <point x="122.815" y="591.035" type="line"/>
    </contour>
  </outline>
</glyph>
<glyph name="period" format="2">
  <advance width="381.79"/>
  <unicode hex="002E"/>
  <outline>
    <contour>
      <point x="190.68" y="-19.065" type="curve" smooth="yes"/>
      <point x="259.145" y="-19.065"/>
      <point x="292.2" y="20.345"/>
      <point x="292.2" y="89.745" type="curve" smooth="yes"/>
      <point x="292.2" y="99.745" type="line" smooth="yes"/>
      <point x="292.2" y="168.145"/>
      <point x="259.145" y="207.34"/>
      <point x="190.68" y="207.34" type="curve" smooth="yes"/>
      <point x="121.86" y="207.34"/>
      <point x="89.59" y="168.145"/>
      <point x="89.59" y="99.745" type="curve" smooth="yes"/>
      <point x="89.59" y="89.745" type="line" smooth="yes"/>
      <point x="89.59" y="20.345"/>
      <point x="121.86" y="-19.065"/>
    </contour>
  </outline>
</glyph>
<glyph name="slash" format="2">
  <advance width="831.94"/>
  <unicode hex="002F"/>
  <outline>
    <contour>
      <point x="31.965" y="-239.635" type="line"/>
      <point x="183.435" y="-239.635" type="line"/>
      <point x="799.975" y="1341.28" type="line"/>
      <point x="649.29" y="1341.28" type="line"/>
    </contour>
  </outline>
</glyph>
<glyph name="zero" format="2">
  <advance width="1131.865"/>
  <unicode hex="0030"/>
  <outline>
    <contour>
      <point x="565.54" y="-24.28" type="curve" smooth="yes"/>
      <point x="870.005" y="-24.28"/>
      <point x="1025.2" y="150.71"/>
      <point x="1025.2" y="472.97" type="curve"/>
      <point x="1025.2" y="804.6" type="line"/>
      <point x="1025.2" y="1126.29"/>
      <point x="870.005" y="1302.28"/>
      <point x="565.54" y="1302.28" type="curve" smooth="yes"/>
      <point x="261.075" y="1302.28"/>
      <point x="106.665" y="1126.29"/>
      <point x="106.665" y="804.6" type="curve"/>
      <point x="106.665" y="472.97" type="line"/>
      <point x="106.665" y="150.71"/>
      <point x="261.86" y="-24.28"/>
    </contour>
    <contour>
      <point x="565.54" y="114.555" type="curve" smooth="yes"/>
      <point x="369.07" y="114.555"/>
      <point x="275.19" y="239.08"/>
      <point x="275.19" y="465.69" type="curve" smooth="yes"/>
      <point x="275.19" y="811.31" type="line" smooth="yes"/>
      <point x="275.19" y="1038.92"/>
      <point x="368.285" y="1163.445"/>
      <point x="565.54" y="1163.445" type="curve" smooth="yes"/>
      <point x="762.795" y="1163.445"/>
      <point x="856.675" y="1038.92"/>
      <point x="856.675" y="811.31" type="curve" smooth="yes"/>
      <point x="856.675" y="465.69" type="line" smooth="yes"/>
      <point x="856.675" y="239.08"/>
      <point x="762.795" y="114.555"/>
    </contour>
  </outline>
</glyph>
<glyph name="one" format="2">
  <advance width="671.885"/>
  <unicode hex="0031"/>
  <outline>
    <contour>
      <point x="358.255" y="0.0" type="line"/>
      <point x="523.64" y="0.0" type="line"/>
      <point x="523.64" y="1278.0" type="line"/>
      <point x="358.945" y="1278.0" type="line"/>
      <point x="53.655" y="1094.325" type="line"/>
      <point x="49.3" y="932.36" type="line"/>
      <point x="344.9" y="1108.195" type="line"/>
      <point x="358.255" y="1108.195" type="line"/>
    </contour>
  </outline>
</glyph>
<glyph name="two" format="2">
  <advance width="939.035"/>
  <unicode hex="0032"/>
  <outline>
    <contour>
      <point x="69.515" y="0.0" type="line"/>
      <point x="861.66" y="0.0" type="line"/>
      <point x="861.66" y="141.19" type="line"/>
      <point x="207.34" y="141.19" type="line"/>
      <point x="275.365" y="110.845" type="line"/>
      <point x="275.365" y="149.54500000000002" type="line"/>
      <point x="534.555" y="406.615" type="line" smooth="yes"/>
      <point x="729.49" y="599.28"/>
      <point x="842.37" y="729.935"/>
      <point x="842.37" y="930.945" type="curve" smooth="yes"/>
      <point x="842.37" y="944.73" type="line" smooth="yes"/>
      <point x="842.37" y="1171.935"/>
      <point x="709.67" y="1299.71"/>
      <point x="445.99" y="1299.71" type="curve" smooth="yes"/>
      <point x="284.635" y="1299.71"/>
      <point x="167.14" y="1247.915"/>
      <point x="90.86" y="1199.84" type="curve"/>
      <point x="75.44" y="1050.08" type="line"/>
      <point x="164.085" y="1105.875"/>
      <point x="280.225" y="1156.165"/>
      <point x="413.59" y="1156.165" type="curve" smooth="yes"/>
      <point x="593.04" y="1156.165"/>
      <point x="673.845" y="1071.575"/>
      <point x="673.845" y="925.105" type="curve" smooth="yes"/>
      <point x="673.845" y="914.675" type="line" smooth="yes"/>
      <point x="673.845" y="760.065"/>
      <point x="568.32" y="647.895"/>
      <point x="388.805" y="471.435" type="curve" smooth="yes"/>
      <point x="69.515" y="157.54500000000002" type="line"/>
    </contour>
  </outline>
</glyph>
<glyph name="three" format="2">
  <advance width="982.83"/>
  <unicode hex="0033"/>
  <outline>
    <contour>
      <point x="447.29" y="-21.925" type="curve" smooth="yes"/>
      <point x="752.895" y="-21.925"/>
      <point x="893.52" y="113.785"/>
      <point x="893.52" y="339.055" type="curve" smooth="yes"/>
      <point x="893.52" y="374.99" type="line" smooth="yes"/>
      <point x="893.52" y="547.0"/>
      <point x="817.08" y="639.805"/>
      <point x="631.975" y="667.215" type="curve"/>
      <point x="635.825" y="649.225" type="line"/>
      <point x="637.115" y="671.915" type="line"/>
      <point x="809.94" y="694.97"/>
      <point x="883.09" y="798.345"/>
      <point x="883.09" y="951.71" type="curve" smooth="yes"/>
      <point x="883.09" y="973.645" type="line" smooth="yes"/>
      <point x="883.09" y="1179.925"/>
      <point x="755.11" y="1299.71"/>
      <point x="472.71" y="1299.71" type="curve" smooth="yes"/>
      <point x="301.785" y="1299.71"/>
      <point x="176.57" y="1254.775"/>
      <point x="97.01" y="1207.13" type="curve"/>
      <point x="82.375" y="1061.725" type="line"/>
      <point x="173.87" y="1112.875"/>
      <point x="299.935" y="1158.52"/>
      <point x="445.805" y="1158.52" type="curve" smooth="yes"/>
      <point x="640.975" y="1158.52"/>
      <point x="715.35" y="1085.78"/>
      <point x="715.35" y="949.31" type="curve" smooth="yes"/>
      <point x="715.35" y="931.87" type="line" smooth="yes"/>
      <point x="715.35" y="805.84"/>
      <point x="646.63" y="730.025"/>
      <point x="451.965" y="726.455" type="curve" smooth="yes"/>
      <point x="238.31" y="722.1" type="line"/>
      <point x="238.31" y="590.62" type="line"/>
      <point x="449.46" y="587.265" type="line" smooth="yes"/>
      <point x="649.985" y="583.91"/>
      <point x="723.425" y="516.525"/>
      <point x="723.425" y="373.205" type="curve" smooth="yes"/>
      <point x="723.425" y="349.475" type="line" smooth="yes"/>
      <point x="723.425" y="207.005"/>
      <point x="641.9" y="123.975"/>
      <point x="433.945" y="123.975" type="curve" smooth="yes"/>
      <point x="288.805" y="123.975"/>
      <point x="163.3" y="167.62"/>
      <point x="74.59" y="218.695" type="curve"/>
      <point x="90.795" y="56.73" type="line"/>
      <point x="158.075" y="22.655"/>
      <point x="283.935" y="-21.925"/>
    </contour>
  </outline>
</glyph>
<glyph name="four" format="2">
  <advance width="1043.715"/>
  <unicode hex="0034"/>
  <outline>
    <contour>
      <point x="684.73" y="0.0" type="line"/>
      <point x="843.05" y="0.0" type="line"/>
      <point x="843.05" y="1278.0" type="line"/>
      <point x="564.005" y="1278.0" type="line"/>
      <point x="55.935" y="412.715" type="line"/>
      <point x="55.935" y="247.245" type="line"/>
      <point x="1012.285" y="247.245" type="line"/>
      <point x="1012.285" y="386.65" type="line"/>
      <point x="156.65" y="386.65" type="line"/>
      <point x="220.535" y="324.615" type="line"/>
      <point x="220.535" y="400.79" type="line"/>
      <point x="663.365" y="1161.79" type="line"/>
      <point x="690.44" y="1161.79" type="line"/>
      <point x="684.73" y="879.39" type="line"/>
    </contour>
  </outline>
</glyph>
<glyph name="five" format="2">
  <advance width="1042.25"/>
  <unicode hex="0035"/>
  <outline>
    <contour>
      <point x="501.505" y="-21.925" type="curve" smooth="yes"/>
      <point x="811.38" y="-21.925"/>
      <point x="950.37" y="131.775"/>
      <point x="950.37" y="377.4" type="curve" smooth="yes"/>
      <point x="950.37" y="447.495" type="line" smooth="yes"/>
      <point x="950.37" y="678.915"/>
      <point x="838.725" y="818.335"/>
      <point x="608.585" y="818.335" type="curve" smooth="yes"/>
      <point x="445.93" y="818.335"/>
      <point x="346.2" y="745.97"/>
      <point x="292.975" y="649.39" type="curve"/>
      <point x="288.415" y="648.315" type="line"/>
      <point x="291.415" y="830.935" type="line"/>
      <point x="291.415" y="1137.24" type="line"/>
      <point x="915.025" y="1137.24" type="line"/>
      <point x="915.025" y="1278.0" type="line"/>
      <point x="131.17" y="1278.0" type="line"/>
      <point x="131.17" y="554.45" type="line"/>
      <point x="275.78" y="528.965" type="line"/>
      <point x="336.725" y="623.35"/>
      <point x="425.035" y="681.285"/>
      <point x="552.99" y="681.285" type="curve" smooth="yes"/>
      <point x="712.89" y="681.285"/>
      <point x="784.985" y="592.47"/>
      <point x="784.985" y="442.14" type="curve" smooth="yes"/>
      <point x="784.985" y="379.185" type="line" smooth="yes"/>
      <point x="784.985" y="218.07"/>
      <point x="697.03" y="124.76"/>
      <point x="487.375" y="124.76" type="curve" smooth="yes"/>
      <point x="336.73" y="124.76"/>
      <point x="213.385" y="169.975"/>
      <point x="126.245" y="220.05" type="curve"/>
      <point x="143.45" y="60.44" type="line"/>
      <point x="211.16" y="23.365"/>
      <point x="333.72" y="-21.925"/>
    </contour>
  </outline>
</glyph>
<glyph name="six" format="2">
  <advance width="1080.52"/>
  <unicode hex="0036"/>
  <outline>
    <contour>
      <point x="559.55" y="-24.28" type="curve" smooth="yes"/>
      <point x="843.52" y="-24.28"/>
      <point x="989.285" y="131.0"/>
      <point x="989.285" y="367.84" type="curve" smooth="yes"/>
      <point x="989.285" y="433.15" type="line" smooth="yes"/>
      <point x="989.285" y="675.99"/>
      <point x="867.145" y="817.055"/>
      <point x="627.725" y="817.055" type="curve" smooth="yes"/>
      <point x="424.125" y="817.055"/>
      <point x="312.105" y="713.09"/>
      <point x="271.96500000000003" y="577.48" type="curve"/>
      <point x="243.48" y="577.48" type="line"/>
      <point x="258.985" y="436.655" type="line"/>
      <point x="302.92" y="588.33"/>
      <point x="418.145" y="683.93"/>
      <point x="580.55" y="683.93" type="curve" smooth="yes"/>
      <point x="755.44" y="683.93"/>
      <point x="825.47" y="585.835"/>
      <point x="825.47" y="430.365" type="curve" smooth="yes"/>
      <point x="825.47" y="370.195" type="line" smooth="yes"/>
      <point x="825.47" y="220.155"/>
      <point x="740.805" y="114.555"/>
      <point x="562.69" y="114.555" type="curve" smooth="yes"/>
      <point x="375.08" y="114.555"/>
      <point x="266.695" y="230.36"/>
      <point x="266.695" y="460.25" type="curve"/>
      <point x="266.695" y="778.34" type="line" smooth="yes"/>
      <point x="266.695" y="1026.715"/>
      <point x="378.63" y="1156.165"/>
      <point x="608.155" y="1156.165" type="curve" smooth="yes"/>
      <point x="757.295" y="1156.165"/>
      <point x="849.575" y="1119.52"/>
      <point x="936.145" y="1070.23" type="curve"/>
      <point x="919.37" y="1220.56" type="line"/>
      <point x="844.735" y="1260.205"/>
      <point x="738.605" y="1299.71"/>
      <point x="582.25" y="1299.71" type="curve" smooth="yes"/>
      <point x="265.57" y="1299.71"/>
      <point x="102.095" y="1110.73"/>
      <point x="102.095" y="783.05" type="curve" smooth="yes"/>
      <point x="102.095" y="478.305" type="line" smooth="yes"/>
      <point x="102.095" y="146.775"/>
      <point x="269.365" y="-24.28"/>
    </contour>
  </outline>
</glyph>
<glyph name="seven" format="2">
  <advance width="920.025"/>
  <unicode hex="0037"/>
  <outline>
    <contour>
      <point x="211.04" y="0.0" type="line"/>
      <point x="392.2" y="0.0" type="line"/>
      <point x="860.875" y="1134.315" type="line"/>
      <point x="860.875" y="1278.0" type="line"/>
      <point x="58.655" y="1278.0" type="line"/>
      <point x="58.655" y="1137.24" type="line"/>
      <point x="687.425" y="1137.24" type="line"/>
    </contour>
  </outline>
</glyph>
<glyph name="eight" format="2">
  <advance width="1110.82"/>
  <unicode hex="0038"/>
  <outline>
    <contour>
      <point x="554.625" y="-26.14" type="curve" smooth="yes"/>
      <point x="887.5" y="-26.14"/>
      <point x="1017.865" y="116.41"/>
      <point x="1017.865" y="325.635" type="curve" smooth="yes"/>
      <point x="1017.865" y="352.925" type="line" smooth="yes"/>
      <point x="1017.865" y="532.01"/>
      <point x="920.34" y="632.945"/>
      <point x="757.59" y="665.785" type="curve"/>
      <point x="757.59" y="672.13" type="line"/>
      <point x="914.76" y="694.83"/>
      <point x="1004.005" y="793.335"/>
      <point x="1004.005" y="949.215" type="curve" smooth="yes"/>
      <point x="1004.005" y="975.505" type="line" smooth="yes"/>
      <point x="1004.005" y="1179.365"/>
      <point x="862.725" y="1302.71"/>
      <point x="554.625" y="1302.71" type="curve" smooth="yes"/>
      <point x="248.88" y="1302.71"/>
      <point x="107.815" y="1179.365"/>
      <point x="107.815" y="975.505" type="curve" smooth="yes"/>
      <point x="107.815" y="949.215" type="line" smooth="yes"/>
      <point x="107.815" y="793.335"/>
      <point x="196.845" y="694.83"/>
      <point x="354.015" y="672.13" type="curve"/>
      <point x="354.015" y="665.785" type="line"/>
      <point x="192.265" y="633.73"/>
      <point x="93.74" y="532.795"/>
      <point x="93.74" y="352.925" type="curve" smooth="yes"/>
      <point x="93.74" y="325.635" type="line" smooth="yes"/>
      <point x="93.74" y="112.485"/>
      <point x="230.6" y="-26.14"/>
    </contour>
    <contour>
      <point x="556.98" y="112.695" type="curve" smooth="yes"/>
      <point x="353.94" y="112.695"/>
      <point x="261.48" y="202.995"/>
      <point x="261.48" y="340.69" type="curve" smooth="yes"/>
      <point x="261.48" y="366.7" type="line" smooth="yes"/>
      <point x="261.48" y="499.75"/>
      <point x="359.285" y="584.125"/>
      <point x="551.485" y="600.61" type="curve"/>
      <point x="749.18" y="584.91"/>
      <point x="850.125" y="501.32"/>
      <point x="850.125" y="366.7" type="curve" smooth="yes"/>
      <point x="850.125" y="340.69" type="line" smooth="yes"/>
      <point x="850.125" y="203.78"/>
      <point x="759.235" y="112.695"/>
    </contour>
    <contour>
      <point x="559.335" y="718.82" type="curve"/>
      <point x="383.415" y="725.885"/>
      <point x="272.415" y="799.55"/>
      <point x="272.415" y="939.58" type="curve" smooth="yes"/>
      <point x="272.415" y="958.665" type="line" smooth="yes"/>
      <point x="272.415" y="1086.715"/>
      <point x="360.585" y="1166.23"/>
      <point x="554.625" y="1166.23" type="curve" smooth="yes"/>
      <point x="751.02" y="1166.23"/>
      <point x="839.405" y="1086.715"/>
      <point x="839.405" y="958.665" type="curve" smooth="yes"/>
      <point x="839.405" y="939.58" type="line" smooth="yes"/>
      <point x="839.405" y="799.55"/>
      <point x="726.62" y="725.885"/>
    </contour>
  </outline>
</glyph>
<glyph name="nine" format="2">
  <advance width="1079.66"/>
  <unicode hex="0039"/>
  <outline>
    <contour>
      <point x="522.83" y="1302.065" type="curve" smooth="yes"/>
      <point x="238.43" y="1302.065"/>
      <point x="91.235" y="1146.14"/>
      <point x="91.235" y="909.3" type="curve" smooth="yes"/>
      <point x="91.235" y="838.86" type="line" smooth="yes"/>
      <point x="91.235" y="599.73"/>
      <point x="213.3" y="457.59"/>
      <point x="463.225" y="457.59" type="curve" smooth="yes"/>
      <point x="658.675" y="457.59"/>
      <point x="768.34" y="560.265"/>
      <point x="807.695" y="694.155" type="curve"/>
      <point x="836.18" y="694.155" type="line"/>
      <point x="820.675" y="834.98" type="line"/>
      <point x="778.095" y="685.025"/>
      <point x="665.225" y="590.715"/>
      <point x="511.97" y="590.715" type="curve" smooth="yes"/>
      <point x="328.93" y="590.715"/>
      <point x="255.05" y="690.24"/>
      <point x="255.05" y="844.43" type="curve" smooth="yes"/>
      <point x="255.05" y="907.16" type="line" smooth="yes"/>
      <point x="255.05" y="1056.985"/>
      <point x="340.5" y="1163.23"/>
      <point x="519.69" y="1163.23" type="curve" smooth="yes"/>
      <point x="719.225" y="1163.23"/>
      <point x="812.965" y="1048.135"/>
      <point x="812.965" y="823.88" type="curve"/>
      <point x="812.965" y="488.315" type="line" smooth="yes"/>
      <point x="812.965" y="246.715"/>
      <point x="702.03" y="121.62"/>
      <point x="461.935" y="121.62" type="curve" smooth="yes"/>
      <point x="317.655" y="121.62"/>
      <point x="226.655" y="157.835"/>
      <point x="141.655" y="205.05" type="curve"/>
      <point x="159.43" y="47.225" type="line"/>
      <point x="230.28" y="12.01"/>
      <point x="331.13" y="-23.495"/>
      <point x="479.99" y="-23.495" type="curve" smooth="yes"/>
      <point x="812.38" y="-23.495"/>
      <point x="977.35" y="158.775"/>
      <point x="977.35" y="483.605" type="curve" smooth="yes"/>
      <point x="977.35" y="808.61" type="line" smooth="yes"/>
      <point x="977.35" y="1131.505"/>
      <point x="823.295" y="1302.065"/>
    </contour>
  </outline>
</glyph>
<glyph name="less" format="2">
  <advance width="1031.58"/>
  <unicode hex="003C"/>
  <outline>
    <contour>
      <point x="222.51" y="630.505" type="line"/>
      <point x="897.905" y="812.63" type="line"/>
      <point x="897.905" y="954.25" type="line"/>
      <point x="103.515" y="730.65" type="line"/>
      <point x="103.515" y="511.715" type="line"/>
      <point x="897.905" y="288.115" type="line"/>
      <point x="897.905" y="429.735" type="line"/>
      <point x="222.51" y="611.86" type="line"/>
    </contour>
  </outline>
</glyph>
<glyph name="equal" format="2">
  <advance width="1031.645"/>
  <unicode hex="003D"/>
  <outline>
    <contour>
      <point x="119.02" y="351.19" type="line"/>
      <point x="912.625" y="351.19" type="line"/>
      <point x="912.625" y="480.96" type="line"/>
      <point x="119.02" y="480.96" type="line"/>
    </contour>
    <contour>
      <point x="119.02" y="762.76" type="line"/>
      <point x="912.625" y="762.76" type="line"/>
      <point x="912.625" y="892.53" type="line"/>
      <point x="119.02" y="892.53" type="line"/>
    </contour>
  </outline>
</glyph>
<glyph name="greater" format="2">
  <advance width="1031.58"/>
  <unicode hex="003E"/>
  <outline>
    <contour>
      <point x="809.07" y="630.505" type="line"/>
      <point x="809.07" y="611.86" type="line"/>
      <point x="133.675" y="429.735" type="line"/>
      <point x="133.675" y="288.115" type="line"/>
      <point x="928.065" y="511.715" type="line"/>
      <point x="928.065" y="730.65" type="line"/>
      <point x="133.675" y="954.25" type="line"/>
      <point x="133.675" y="812.63" type="line"/>
    </contour>
  </outline>
</glyph>
<glyph name="question" format="2">
  <advance width="878.86"/>
  <unicode hex="003F"/>
  <outline>
    <contour>
      <point x="245.835" y="339.895" type="line"/>
      <point x="393.09" y="339.895" type="line"/>
      <point x="393.09" y="594.12" type="line"/>
      <point x="315.85" y="543.785" type="line"/>
      <point x="419.42" y="550.215" type="line"/>
      <point x="680.345" y="572.44"/>
      <point x="789.905" y="681.3"/>
      <point x="789.905" y="893.075" type="curve" smooth="yes"/>
      <point x="789.905" y="974.3" type="line" smooth="yes"/>
      <point x="789.905" y="1182.86"/>
      <point x="673.85" y="1298.71"/>
      <point x="415.01" y="1298.71" type="curve" smooth="yes"/>
      <point x="259.935" y="1298.71"/>
      <point x="138.15" y="1250.13"/>
      <point x="70.01" y="1208.195" type="curve"/>
      <point x="52.235" y="1068.5" type="line"/>
      <point x="141.3" y="1118.865"/>
      <point x="253.665" y="1160.09"/>
      <point x="382.825" y="1160.09" type="curve" smooth="yes"/>
      <point x="561.36" y="1160.09"/>
      <point x="625.735" y="1090.425"/>
      <point x="625.735" y="954.46" type="curve" smooth="yes"/>
      <point x="625.735" y="887.365" type="line" smooth="yes"/>
      <point x="625.735" y="750.68"/>
      <point x="557.855" y="668.735"/>
      <point x="363.18" y="652.51" type="curve" smooth="yes"/>
      <point x="245.835" y="646.865" type="line"/>
    </contour>
    <contour>
      <point x="318.57" y="-19.85" type="curve" smooth="yes"/>
      <point x="386.25" y="-19.85"/>
      <point x="419.305" y="19.56"/>
      <point x="419.305" y="87.39" type="curve" smooth="yes"/>
      <point x="419.305" y="96.605" type="line" smooth="yes"/>
      <point x="419.305" y="164.22"/>
      <point x="386.25" y="202.63"/>
      <point x="318.57" y="202.63" type="curve" smooth="yes"/>
      <point x="252.105" y="202.63"/>
      <point x="219.835" y="164.22"/>
      <point x="219.835" y="96.605" type="curve" smooth="yes"/>
      <point x="219.835" y="87.39" type="line" smooth="yes"/>
      <point x="219.835" y="19.56"/>
      <point x="252.105" y="-19.85"/>
    </contour>
  </outline>
</glyph>
<glyph name="at" format="2">
  <advance width="1670.22"/>
  <unicode hex="0040"/>
  <outline>
    <contour>
      <point x="738.085" y="70.935" type="curve" smooth="yes"/>
      <point x="883.88" y="70.935"/>
      <point x="959.545" y="148.31"/>
      <point x="995.395" y="257.835" type="curve"/>
      <point x="1031.3" y="257.835" type="line"/>
      <point x="1011.45" y="370.7" type="line"/>
      <point x="982.515" y="267.875"/>
      <point x="906.85" y="199.705"/>
      <point x="808.53" y="199.705" type="curve" smooth="yes"/>
      <point x="708.78" y="199.705"/>
      <point x="655.975" y="254.94"/>
      <point x="655.975" y="363.615" type="curve" smooth="yes"/>
      <point x="655.975" y="386.345"/>
      <point x="657.48" y="418.45"/>
      <point x="671.835" y="550.15" type="curve" smooth="yes"/>
      <point x="687.91" y="696.91"/>
      <point x="744.93" y="786.005"/>
      <point x="871.465" y="786.005" type="curve" smooth="yes"/>
      <point x="971.56" y="786.005"/>
      <point x="1037.375" y="722.49"/>
      <point x="1037.59" y="602.17" type="curve" smooth="yes"/>
      <point x="1037.59" y="594.17"/>
      <point x="1037.59" y="585.385"/>
      <point x="1036.805" y="576.6" type="curve"/>
      <point x="1084.14" y="718.715" type="line"/>
      <point x="1044.095" y="718.715" type="line"/>
      <point x="1032.545" y="835.97"/>
      <point x="964.235" y="910.635"/>
      <point x="826.15" y="910.635" type="curve" smooth="yes"/>
      <point x="629.16" y="910.635"/>
      <point x="540.085" y="768.87"/>
      <point x="514.945" y="529.88" type="curve" smooth="yes"/>
      <point x="500.805" y="397.825"/>
      <point x="499.085" y="365.29"/>
      <point x="499.085" y="337.42" type="curve" smooth="yes"/>
      <point x="499.085" y="165.075"/>
      <point x="586.085" y="70.935"/>
    </contour>
    <contour>
      <point x="978.095" y="84.365" type="line"/>
      <point x="1122.21" y="101.85" type="line"/>
      <point x="1212.415" y="893.85" type="line"/>
      <point x="1064.945" y="893.85" type="line"/>
      <point x="1064.16" y="885.215" type="line"/>
      <point x="1046.945" y="691.205" type="line"/>
      <point x="1043.375" y="665.785" type="line"/>
      <point x="1003.665" y="323.205" type="line"/>
      <point x="1006.235" y="296.29" type="line"/>
    </contour>
    <contour>
      <point x="1089.94" y="199.36" type="curve"/>
      <point x="978.095" y="84.365" type="line"/>
      <point x="1021.87" y="76.795"/>
      <point x="1063.205" y="74.795"/>
      <point x="1113.485" y="75.58" type="curve" smooth="yes"/>
      <point x="1391.715" y="77.935"/>
      <point x="1513.35" y="196.075"/>
      <point x="1547.845" y="462.805" type="curve" smooth="yes"/>
      <point x="1564.125" y="586.28"/>
      <point x="1570.125" y="653.87"/>
      <point x="1572.34" y="698.075" type="curve" smooth="yes"/>
      <point x="1592.92" y="1110.205"/>
      <point x="1337.93" y="1330.205"/>
      <point x="897.325" y="1330.205" type="curve" smooth="yes"/>
      <point x="415.205" y="1330.205"/>
      <point x="173.17" y="1062.86"/>
      <point x="122.965" y="578.74" type="curve" smooth="yes"/>
      <point x="107.685" y="435.565"/>
      <point x="100.965" y="351.16"/>
      <point x="99.46" y="268.075" type="curve" smooth="yes"/>
      <point x="93.655" y="-131.065"/>
      <point x="342.44" y="-345.215"/>
      <point x="801.54" y="-345.215" type="curve" smooth="yes"/>
      <point x="1053.605" y="-345.215"/>
      <point x="1233.185" y="-291.28"/>
      <point x="1370.175" y="-211.615" type="curve"/>
      <point x="1391.52" y="-78.835" type="line"/>
      <point x="1259.745" y="-165.07"/>
      <point x="1066.82" y="-228.22"/>
      <point x="811.035" y="-228.22" type="curve" smooth="yes"/>
      <point x="426.025" y="-228.22"/>
      <point x="230.35" y="-48.975"/>
      <point x="235.94" y="273.14" type="curve" smooth="yes"/>
      <point x="237.445" y="350.085"/>
      <point x="244.38" y="425.64"/>
      <point x="261.23" y="584.525" type="curve" smooth="yes"/>
      <point x="301.51" y="975.35"/>
      <point x="486.95" y="1214.78"/>
      <point x="891.97" y="1214.78" type="curve" smooth="yes"/>
      <point x="1263.195" y="1214.78"/>
      <point x="1455.515" y="1023.835"/>
      <point x="1436.075" y="695.935" type="curve" smooth="yes"/>
      <point x="1433.86" y="657.87"/>
      <point x="1426.075" y="577.29"/>
      <point x="1410.58" y="468.3" type="curve" smooth="yes"/>
      <point x="1385.15" y="277.94"/>
      <point x="1314.475" y="195.5"/>
      <point x="1162.295" y="195.5" type="curve" smooth="yes"/>
      <point x="1128.51" y="195.5"/>
      <point x="1113.865" y="196.715"/>
    </contour>
  </outline>
</glyph>
<glyph name="A" format="2">
  <advance width="1161.37"/>
  <unicode hex="0041"/>
  <anchor x="581.185" y="0.0" name="bottom"/>
  <anchor x="1153.425" y="0.0" name="ogonek"/>
  <anchor x="581.185" y="1278.0" name="top"/>
  <outline>
    <contour>
      <point x="49.31" y="0.0" type="line"/>
      <point x="217.48" y="0.0" type="line"/>
      <point x="567.755" y="1165.93" type="line"/>
      <point x="593.185" y="1165.93" type="line"/>
      <point x="943.89" y="0.0" type="line"/>
      <point x="1112.06" y="0.0" type="line"/>
      <point x="711.46" y="1278.0" type="line"/>
      <point x="449.48" y="1278.0" type="line"/>
    </contour>
    <contour>
      <point x="288.54" y="377.425" type="line"/>
      <point x="871.045" y="377.425" type="line"/>
      <point x="871.045" y="515.26" type="line"/>
      <point x="288.54" y="515.26" type="line"/>
    </contour>
  </outline>
</glyph>
<glyph name="B" format="2">
  <advance width="1162.035"/>
  <unicode hex="0042"/>
  <anchor x="582.195" y="0.0" name="bottom"/>
  <anchor x="582.195" y="1278.0" name="top"/>
  <outline>
    <contour>
      <point x="264.23" y="0.0" type="line"/>
      <point x="682.42" y="0.0" type="line" smooth="yes"/>
      <point x="958.885" y="0.0"/>
      <point x="1073.51" y="125.645"/>
      <point x="1073.51" y="337.765" type="curve" smooth="yes"/>
      <point x="1073.51" y="378.99" type="line" smooth="yes"/>
      <point x="1073.51" y="554.495"/>
      <point x="997.07" y="651.225"/>
      <point x="816.675" y="679.42" type="curve"/>
      <point x="817.965" y="684.905" type="line"/>
      <point x="975.855" y="702.97"/>
      <point x="1048.08" y="791.775"/>
      <point x="1048.08" y="949.215" type="curve" smooth="yes"/>
      <point x="1048.08" y="968.505" type="line" smooth="yes"/>
      <point x="1048.08" y="1164.85"/>
      <point x="939.455" y="1278.0"/>
      <point x="668.13" y="1278.0" type="curve" smooth="yes"/>
      <point x="261.09" y="1278.0" type="line"/>
      <point x="261.09" y="1141.735" type="line"/>
      <point x="653.215" y="1141.735" type="line" smooth="yes"/>
      <point x="822.825" y="1141.735"/>
      <point x="881.91" y="1067.35"/>
      <point x="881.91" y="943.385" type="curve" smooth="yes"/>
      <point x="881.91" y="925.45" type="line" smooth="yes"/>
      <point x="881.91" y="798.915"/>
      <point x="818.18" y="722.96"/>
      <point x="654.43" y="722.96" type="curve" smooth="yes"/>
      <point x="264.735" y="722.96" type="line"/>
      <point x="264.735" y="591.62" type="line"/>
      <point x="656.0" y="591.62" type="line" smooth="yes"/>
      <point x="839.9" y="591.62"/>
      <point x="904.985" y="514.45"/>
      <point x="904.985" y="381.7" type="curve" smooth="yes"/>
      <point x="904.985" y="346.4" type="line" smooth="yes"/>
      <point x="904.985" y="215.865"/>
      <point x="840.115" y="137.05"/>
      <point x="665.935" y="137.05" type="curve" smooth="yes"/>
      <point x="264.23" y="137.05" type="line"/>
    </contour>
    <contour>
      <point x="151.245" y="0.0" type="line"/>
      <point x="315.06" y="0.0" type="line"/>
      <point x="315.06" y="1278.0" type="line"/>
      <point x="151.245" y="1278.0" type="line"/>
    </contour>
  </outline>
</glyph>
<glyph name="C" format="2">
  <advance width="1015.41"/>
  <unicode hex="0043"/>
  <anchor x="553.755" y="0.0" name="bottom"/>
  <anchor x="553.755" y="1278.0" name="top"/>
  <outline>
    <contour>
      <point x="578.475" y="-23.495" type="curve" smooth="yes"/>
      <point x="733.55" y="-23.495"/>
      <point x="849.905" y="26.16"/>
      <point x="919.185" y="75.095" type="curve"/>
      <point x="932.82" y="232.92000000000002" type="line"/>
      <point x="852.39" y="173.125"/>
      <point x="745.175" y="125.76"/>
      <point x="604.38" y="125.76" type="curve" smooth="yes"/>
      <point x="383.705" y="125.76"/>
      <point x="272.76" y="259.995"/>
      <point x="272.76" y="493.82" type="curve" smooth="yes"/>
      <point x="272.76" y="789.105" type="line" smooth="yes"/>
      <point x="272.76" y="1023.36"/>
      <point x="383.49" y="1156.38"/>
      <point x="597.52" y="1156.38" type="curve" smooth="yes"/>
      <point x="740.455" y="1156.38"/>
      <point x="843.605" y="1106.585"/>
      <point x="922.82" y="1050.79" type="curve"/>
      <point x="908.97" y="1204.69" type="line"/>
      <point x="839.905" y="1252.41"/>
      <point x="727.26" y="1301.495"/>
      <point x="576.325" y="1301.495" type="curve" smooth="yes"/>
      <point x="261.15" y="1301.495"/>
      <point x="104.235" y="1117.365"/>
      <point x="104.235" y="791.46" type="curve" smooth="yes"/>
      <point x="104.235" y="488.325" type="line" smooth="yes"/>
      <point x="104.235" y="161.065"/>
      <point x="261.15" y="-23.495"/>
    </contour>
  </outline>
</glyph>
<glyph name="D" format="2">
  <advance width="1182.53"/>
  <unicode hex="0044"/>
  <anchor x="583.625" y="0.0" name="bottom"/>
  <anchor x="599.765" y="639.0" name="center"/>
  <anchor x="583.625" y="1278.0" name="top"/>
  <outline>
    <contour>
      <point x="263.09" y="0.0" type="line"/>
      <point x="579.11" y="0.0" type="line" smooth="yes"/>
      <point x="909.94" y="0.0"/>
      <point x="1081.22" y="176.925"/>
      <point x="1081.22" y="496.345" type="curve" smooth="yes"/>
      <point x="1081.22" y="783.225" type="line" smooth="yes"/>
      <point x="1081.22" y="1102.075"/>
      <point x="909.155" y="1278.0"/>
      <point x="579.11" y="1278.0" type="curve" smooth="yes"/>
      <point x="261.875" y="1278.0" type="line"/>
      <point x="261.875" y="1139.38" type="line"/>
      <point x="573.4" y="1139.38" type="line" smooth="yes"/>
      <point x="798.45" y="1139.38"/>
      <point x="914.265" y="1013.565"/>
      <point x="914.265" y="782.225" type="curve" smooth="yes"/>
      <point x="914.265" y="497.345" type="line" smooth="yes"/>
      <point x="914.265" y="267.005"/>
      <point x="798.45" y="140.19"/>
      <point x="573.4" y="140.19" type="curve" smooth="yes"/>
      <point x="263.09" y="140.19" type="line"/>
    </contour>
    <contour>
      <point x="151.245" y="0.0" type="line"/>
      <point x="315.06" y="0.0" type="line"/>
      <point x="315.06" y="1278.0" type="line"/>
      <point x="151.245" y="1278.0" type="line"/>
    </contour>
  </outline>
</glyph>
<glyph name="E" format="2">
  <advance width="1046.185"/>
  <unicode hex="0045"/>
  <anchor x="554.28" y="0.0" name="bottom"/>
  <anchor x="979.045" y="0.0" name="ogonek"/>
  <anchor x="554.28" y="1278.0" name="top"/>
  <anchor x="21.29" y="1278.0" name="topleft"/>
  <outline>
    <contour>
      <point x="151.245" y="0.0" type="line"/>
      <point x="315.06" y="0.0" type="line"/>
      <point x="315.06" y="1278.0" type="line"/>
      <point x="151.245" y="1278.0" type="line"/>
    </contour>
    <contour>
      <point x="200.355" y="0.0" type="line"/>
      <point x="948.24" y="0.0" type="line"/>
      <point x="948.24" y="139.405" type="line"/>
      <point x="200.355" y="139.405" type="line"/>
    </contour>
    <contour>
      <point x="245.035" y="583.05" type="line"/>
      <point x="926.885" y="583.05" type="line"/>
      <point x="926.885" y="720.885" type="line"/>
      <point x="245.035" y="720.885" type="line"/>
    </contour>
    <contour>
      <point x="199.14" y="1139.38" type="line"/>
      <point x="941.67" y="1139.38" type="line"/>
      <point x="941.67" y="1278.0" type="line"/>
      <point x="199.14" y="1278.0" type="line"/>
    </contour>
  </outline>
</glyph>
<glyph name="F" format="2">
  <advance width="1001.475"/>
  <unicode hex="0046"/>
  <anchor x="501.13" y="0.0" name="bottom"/>
  <anchor x="501.13" y="1278.0" name="top"/>
  <outline>
    <contour>
      <point x="151.245" y="0.0" type="line"/>
      <point x="316.63" y="0.0" type="line"/>
      <point x="316.63" y="1278.0" type="line"/>
      <point x="151.245" y="1278.0" type="line"/>
    </contour>
    <contour>
      <point x="245.035" y="535.07" type="line"/>
      <point x="904.39" y="535.07" type="line"/>
      <point x="904.39" y="674.475" type="line"/>
      <point x="245.035" y="674.475" type="line"/>
    </contour>
    <contour>
      <point x="199.14" y="1138.595" type="line"/>
      <point x="919.175" y="1138.595" type="line"/>
      <point x="919.175" y="1278.0" type="line"/>
      <point x="199.14" y="1278.0" type="line"/>
    </contour>
  </outline>
</glyph>
<glyph name="G" format="2">
  <advance width="1180.305"/>
  <unicode hex="0047"/>
  <anchor x="586.97" y="0.0" name="bottom"/>
  <anchor x="586.97" y="1278.0" name="top"/>
  <outline>
    <contour>
      <point x="543.655" y="-24.28" type="curve" smooth="yes"/>
      <point x="759.095" y="-24.28"/>
      <point x="852.115" y="86.17"/>
      <point x="884.9" y="211.32" type="curve"/>
      <point x="1047.78" y="210.105" type="line"/>
      <point x="1047.78" y="714.54" type="line"/>
      <point x="612.325" y="714.54" type="line"/>
      <point x="612.325" y="576.92" type="line"/>
      <point x="912.525" y="576.92" type="line"/>
      <point x="885.535" y="636.17" type="line"/>
      <point x="885.535" y="321.185" type="line"/>
      <point x="852.46" y="210.08"/>
      <point x="758.225" y="118.48"/>
      <point x="595.325" y="118.48" type="curve" smooth="yes"/>
      <point x="379.5" y="118.48"/>
      <point x="272.76" y="247.435"/>
      <point x="272.76" y="476.625" type="curve" smooth="yes"/>
      <point x="272.76" y="774.6" type="line" smooth="yes"/>
      <point x="272.76" y="1023.21"/>
      <point x="394.06" y="1158.735"/>
      <point x="642.285" y="1158.735" type="curve" smooth="yes"/>
      <point x="805.435" y="1158.735"/>
      <point x="928.79" y="1107.37"/>
      <point x="1021.07" y="1049.36" type="curve"/>
      <point x="1005.65" y="1198.905" type="line"/>
      <point x="924.305" y="1249.84"/>
      <point x="793.455" y="1301.495"/>
      <point x="614.24" y="1301.495" type="curve" smooth="yes"/>
      <point x="279.355" y="1301.495"/>
      <point x="104.235" y="1114.29"/>
      <point x="104.235" y="777.74" type="curve" smooth="yes"/>
      <point x="104.235" y="475.625" type="line" smooth="yes"/>
      <point x="104.235" y="157.495"/>
      <point x="253.45" y="-24.28"/>
    </contour>
    <contour>
      <point x="893.46" y="264.215" type="line"/>
      <point x="885.535" y="0.0" type="line"/>
      <point x="1047.78" y="0.0" type="line"/>
      <point x="1047.78" y="264.215" type="line"/>
    </contour>
  </outline>
</glyph>
<glyph name="H" format="2">
  <advance width="1240.025"/>
  <unicode hex="0048"/>
  <anchor x="620.12" y="0.0" name="bottom"/>
  <anchor x="620.12" y="639.0" name="center"/>
  <anchor x="620.12" y="1278.0" name="top"/>
  <anchor x="21.29" y="1278.0" name="topleft"/>
  <outline>
    <contour>
      <point x="317.415" y="0.0" type="line"/>
      <point x="317.415" y="1278.0" type="line"/>
      <point x="151.245" y="1278.0" type="line"/>
      <point x="151.245" y="0.0" type="line"/>
    </contour>
    <contour>
      <point x="1088.78" y="0.0" type="line"/>
      <point x="1088.78" y="1278.0" type="line"/>
      <point x="922.61" y="1278.0" type="line"/>
      <point x="922.61" y="0.0" type="line"/>
    </contour>
    <contour>
      <point x="246.25" y="728.885" type="line"/>
      <point x="246.25" y="589.48" type="line"/>
      <point x="988.57" y="589.48" type="line"/>
      <point x="988.57" y="728.885" type="line"/>
    </contour>
  </outline>
</glyph>
<glyph name="I" format="2">
  <advance width="471.52"/>
  <unicode hex="0049"/>
  <anchor x="235.475" y="0.0" name="bottom"/>
  <anchor x="361.425" y="0.0" name="ogonek"/>
  <anchor x="235.475" y="1278.0" name="top"/>
  <anchor x="21.29" y="1278.0" name="topleft"/>
  <outline>
    <contour>
      <point x="318.845" y="0.0" type="line"/>
      <point x="318.845" y="1278.0" type="line"/>
      <point x="152.675" y="1278.0" type="line"/>
      <point x="152.675" y="0.0" type="line"/>
    </contour>
  </outline>
</glyph>
<glyph name="J" format="2">
  <advance width="823.72"/>
  <unicode hex="004A"/>
  <anchor x="412.86" y="0.0" name="bottom"/>
  <anchor x="597.105" y="1278.0" name="top"/>
  <outline>
    <contour>
      <point x="311.515" y="-16.14" type="curve" smooth="yes"/>
      <point x="579.775" y="-16.14"/>
      <point x="681.475" y="117.345"/>
      <point x="681.475" y="368.885" type="curve" smooth="yes"/>
      <point x="681.475" y="1278.0" type="line"/>
      <point x="515.305" y="1278.0" type="line"/>
      <point x="515.305" y="378.52" type="line" smooth="yes"/>
      <point x="515.305" y="209.92000000000002"/>
      <point x="457.005" y="128.405"/>
      <point x="278.545" y="128.405" type="curve" smooth="yes"/>
      <point x="203.18" y="128.405"/>
      <point x="129.955" y="144.05"/>
      <point x="60.59" y="174.77" type="curve"/>
      <point x="73.44" y="26.225" type="line"/>
      <point x="140.44" y="-1.6350000000000002"/>
      <point x="225.655" y="-16.14"/>
    </contour>
  </outline>
</glyph>
<glyph name="K" format="2">
  <advance width="1133.305"/>
  <unicode hex="004B"/>
  <anchor x="577.83" y="0.0" name="bottom"/>
  <anchor x="577.83" y="1278.0" name="top"/>
  <outline>
    <contour>
      <point x="897.19" y="0.0" type="line"/>
      <point x="1093.06" y="0.0" type="line"/>
      <point x="572.59" y="682.485" type="line"/>
      <point x="573.59" y="640.505" type="line"/>
      <point x="1080.275" y="1278.0" type="line"/>
      <point x="890.545" y="1278.0" type="line"/>
      <point x="448.82" y="719.455" type="line"/>
      <point x="303.35" y="719.455" type="line"/>
      <point x="303.35" y="587.115" type="line"/>
      <point x="448.82" y="587.115" type="line"/>
    </contour>
    <contour>
      <point x="151.245" y="0.0" type="line"/>
      <point x="315.845" y="0.0" type="line"/>
      <point x="315.845" y="1278.0" type="line"/>
      <point x="151.245" y="1278.0" type="line"/>
    </contour>
  </outline>
</glyph>
<glyph name="L" format="2">
  <advance width="974.055"/>
  <unicode hex="004C"/>
  <anchor x="526.645" y="0.0" name="bottom"/>
  <anchor x="465.795" y="647.505" name="center"/>
  <anchor x="234.83" y="1278.0" name="top"/>
  <anchor x="666.87" y="1278.0" name="topright"/>
  <outline>
    <contour>
      <point x="317.415" y="0.0" type="line"/>
      <point x="317.415" y="1278.0" type="line"/>
      <point x="151.245" y="1278.0" type="line"/>
      <point x="151.245" y="0.0" type="line"/>
    </contour>
    <contour>
      <point x="240.39" y="140.975" type="line"/>
      <point x="240.39" y="0.0" type="line"/>
      <point x="914.045" y="0.0" type="line"/>
      <point x="914.045" y="140.975" type="line"/>
    </contour>
  </outline>
</glyph>
<glyph name="M" format="2">
  <advance width="1492.66"/>
  <unicode hex="004D"/>
  <anchor x="746.83" y="0.0" name="bottom"/>
  <anchor x="746.83" y="1278.0" name="top"/>
  <outline>
    <contour>
      <point x="129.525" y="0.0" type="line"/>
      <point x="291.2" y="0.0" type="line"/>
      <point x="308.425" y="538.165" type="line"/>
      <point x="326.22" y="1105.27" type="line"/>
      <point x="343.51" y="1105.27" type="line"/>
      <point x="659.59" y="147.355" type="line"/>
      <point x="833.07" y="147.355" type="line"/>
      <point x="1149.15" y="1105.27" type="line"/>
      <point x="1166.655" y="1105.27" type="line"/>
      <point x="1183.665" y="539.165" type="line"/>
      <point x="1201.675" y="0.0" type="line"/>
      <point x="1363.135" y="0.0" type="line"/>
      <point x="1313.91" y="1278.0" type="line"/>
      <point x="1056.21" y="1278.0" type="line"/>
      <point x="753.26" y="353.84000000000003" type="line"/>
      <point x="739.4" y="353.84000000000003" type="line"/>
      <point x="436.45" y="1278.0" type="line"/>
      <point x="178.965" y="1278.0" type="line"/>
    </contour>
  </outline>
</glyph>
<glyph name="N" format="2">
  <advance width="1240.025"/>
  <unicode hex="004E"/>
  <anchor x="622.475" y="0.0" name="bottom"/>
  <anchor x="622.475" y="1278.0" name="top"/>
  <outline>
    <contour>
      <point x="402.87" y="1278.0" type="line"/>
      <point x="151.245" y="1278.0" type="line"/>
      <point x="151.245" y="0.0" type="line"/>
      <point x="312.705" y="0.0" type="line"/>
      <point x="312.705" y="524.735" type="line"/>
      <point x="305.995" y="1109.41" type="line"/>
      <point x="318.425" y="1109.41" type="line"/>
      <point x="842.65" y="0.0" type="line"/>
      <point x="1088.78" y="0.0" type="line"/>
      <point x="1088.78" y="1278.0" type="line"/>
      <point x="927.32" y="1278.0" type="line"/>
      <point x="927.32" y="735.815" type="line"/>
      <point x="934.03" y="178.225" type="line"/>
      <point x="921.6" y="178.225" type="line"/>
    </contour>
  </outline>
</glyph>
<glyph name="O" format="2">
  <advance width="1196.585"/>
  <unicode hex="004F"/>
  <anchor x="598.4" y="0.0" name="bottom"/>
  <anchor x="598.4" y="639.0" name="center"/>
  <anchor x="850.845" y="5.0" name="ogonek"/>
  <anchor x="598.4" y="1278.0" name="top"/>
  <anchor x="6.215" y="1278.0" name="topleft"/>
  <anchor x="1023.955" y="1278.0" name="topright"/>
  <outline>
    <contour>
      <point x="598.185" y="-24.28" type="curve" smooth="yes"/>
      <point x="920.65" y="-24.28"/>
      <point x="1092.35" y="160.71"/>
      <point x="1092.35" y="491.69" type="curve" smooth="yes"/>
      <point x="1092.35" y="787.095" type="line" smooth="yes"/>
      <point x="1092.35" y="1117.29"/>
      <point x="920.65" y="1302.28"/>
      <point x="598.185" y="1302.28" type="curve" smooth="yes"/>
      <point x="274.935" y="1302.28"/>
      <point x="104.235" y="1117.29"/>
      <point x="104.235" y="787.095" type="curve" smooth="yes"/>
      <point x="104.235" y="491.69" type="line" smooth="yes"/>
      <point x="104.235" y="160.71"/>
      <point x="274.935" y="-24.28"/>
    </contour>
    <contour>
      <point x="598.185" y="114.555" type="curve" smooth="yes"/>
      <point x="382.5" y="114.555"/>
      <point x="272.76" y="249.08"/>
      <point x="272.76" y="485.41" type="curve" smooth="yes"/>
      <point x="272.76" y="793.59" type="line" smooth="yes"/>
      <point x="272.76" y="1030.705"/>
      <point x="382.5" y="1163.445"/>
      <point x="598.185" y="1163.445" type="curve" smooth="yes"/>
      <point x="813.3" y="1163.445"/>
      <point x="923.825" y="1030.705"/>
      <point x="923.825" y="793.59" type="curve" smooth="yes"/>
      <point x="923.825" y="485.41" type="line" smooth="yes"/>
      <point x="923.825" y="249.08"/>
      <point x="813.3" y="114.555"/>
    </contour>
  </outline>
</glyph>
<glyph name="P" format="2">
  <advance width="1120.885"/>
  <unicode hex="0050"/>
  <anchor x="558.335" y="0.0" name="bottom"/>
  <anchor x="558.335" y="1278.0" name="top"/>
  <outline>
    <contour>
      <point x="259.165" y="425.05" type="line"/>
      <point x="625.98" y="425.05" type="line" smooth="yes"/>
      <point x="910.165" y="425.05"/>
      <point x="1036.005" y="567.835"/>
      <point x="1036.005" y="804.6" type="curve" smooth="yes"/>
      <point x="1036.005" y="900.525" type="line" smooth="yes"/>
      <point x="1036.005" y="1135.86"/>
      <point x="911.165" y="1278.0"/>
      <point x="627.41" y="1278.0" type="curve" smooth="yes"/>
      <point x="257.95" y="1278.0" type="line"/>
      <point x="257.95" y="1141.165" type="line"/>
      <point x="623.84" y="1141.165" type="line" smooth="yes"/>
      <point x="797.105" y="1141.165"/>
      <point x="870.62" y="1051.705"/>
      <point x="870.62" y="896.17" type="curve" smooth="yes"/>
      <point x="870.62" y="808.955" type="line" smooth="yes"/>
      <point x="870.62" y="655.13"/>
      <point x="796.89" y="562.885"/>
      <point x="621.625" y="562.885" type="curve" smooth="yes"/>
      <point x="259.165" y="562.885" type="line"/>
    </contour>
    <contour>
      <point x="151.245" y="0.0" type="line"/>
      <point x="315.06" y="0.0" type="line"/>
      <point x="315.06" y="448.18" type="line"/>
      <point x="314.275" y="522.27" type="line"/>
      <point x="314.275" y="1278.0" type="line"/>
      <point x="151.245" y="1278.0" type="line"/>
    </contour>
  </outline>
</glyph>
<glyph name="Q" format="2">
  <advance width="1198.37"/>
  <unicode hex="0051"/>
  <anchor x="599.185" y="0.0" name="bottom"/>
  <anchor x="599.185" y="1278.0" name="top"/>
  <outline>
    <contour>
      <point x="1198.65" y="-38.345" type="line"/>
      <point x="1198.65" y="107.63" type="line"/>
      <point x="791.58" y="99.35" type="line"/>
      <point x="795.45" y="106.34" type="line"/>
      <point x="968.245" y="134.405"/>
      <point x="1092.35" y="254.135"/>
      <point x="1092.35" y="516.38" type="curve" smooth="yes"/>
      <point x="1092.35" y="787.095" type="line" smooth="yes"/>
      <point x="1092.35" y="1117.935"/>
      <point x="920.865" y="1302.28"/>
      <point x="598.185" y="1302.28" type="curve" smooth="yes"/>
      <point x="274.72" y="1302.28"/>
      <point x="104.235" y="1117.935"/>
      <point x="104.235" y="787.095" type="curve" smooth="yes"/>
      <point x="104.235" y="491.69" type="line" smooth="yes"/>
      <point x="104.235" y="162.925"/>
      <point x="275.58" y="-13.355"/>
      <point x="658.52" y="-23.85" type="curve" smooth="yes"/>
    </contour>
    <contour>
      <point x="630.26" y="115.34" type="line" smooth="yes"/>
      <point x="401.5" y="122.405"/>
      <point x="272.76" y="249.29500000000002"/>
      <point x="272.76" y="485.41" type="curve" smooth="yes"/>
      <point x="272.76" y="793.59" type="line" smooth="yes"/>
      <point x="272.76" y="1031.135"/>
      <point x="382.5" y="1163.445"/>
      <point x="598.185" y="1163.445" type="curve" smooth="yes"/>
      <point x="813.3" y="1163.445"/>
      <point x="923.825" y="1031.135"/>
      <point x="923.825" y="793.59" type="curve" smooth="yes"/>
      <point x="923.825" y="484.98" type="line" smooth="yes"/>
      <point x="923.825" y="250.07"/>
      <point x="801.58" y="145.415"/>
      <point x="652.325" y="114.555" type="curve"/>
    </contour>
  </outline>
</glyph>
<glyph name="R" format="2">
  <advance width="1150.96"/>
  <unicode hex="0052"/>
  <anchor x="586.195" y="0.0" name="bottom"/>
  <anchor x="575.98" y="1278.0" name="top"/>
  <outline>
    <contour>
      <point x="895.555" y="0.0" type="line"/>
      <point x="1067.435" y="0.0" type="line"/>
      <point x="1023.79" y="280.57" type="line" smooth="yes"/>
      <point x="993.79" y="476.13"/>
      <point x="942.36" y="592.14"/>
      <point x="721.22" y="607.925" type="curve"/>
      <point x="791.675" y="583.01" type="line"/>
      <point x="792.105" y="602.99" type="line"/>
      <point x="974.565" y="624.905"/>
      <point x="1046.865" y="737.28"/>
      <point x="1046.865" y="903.795" type="curve" smooth="yes"/>
      <point x="1046.865" y="937.73" type="line" smooth="yes"/>
      <point x="1046.865" y="1150.0"/>
      <point x="928.025" y="1278.0"/>
      <point x="654.13" y="1278.0" type="curve" smooth="yes"/>
      <point x="260.305" y="1278.0" type="line"/>
      <point x="260.305" y="1140.95" type="line"/>
      <point x="631.72" y="1140.95" type="line" smooth="yes"/>
      <point x="809.255" y="1140.95"/>
      <point x="879.125" y="1055.855"/>
      <point x="879.125" y="910.04" type="curve" smooth="yes"/>
      <point x="879.125" y="879.675" type="line" smooth="yes"/>
      <point x="879.125" y="731.505"/>
      <point x="810.9" y="640.12"/>
      <point x="636.365" y="640.12" type="curve" smooth="yes"/>
      <point x="264.735" y="639.12" type="line"/>
      <point x="264.735" y="507.78" type="line"/>
      <point x="612.355" y="506.995" type="line" smooth="yes"/>
      <point x="792.61" y="506.21"/>
      <point x="838.9" y="409.245"/>
      <point x="859.62" y="262.225" type="curve" smooth="yes"/>
    </contour>
    <contour>
      <point x="151.245" y="0.0" type="line"/>
      <point x="315.06" y="0.0" type="line"/>
      <point x="315.06" y="532.125" type="line"/>
      <point x="314.275" y="594.655" type="line"/>
      <point x="314.275" y="1278.0" type="line"/>
      <point x="151.245" y="1278.0" type="line"/>
    </contour>
  </outline>
</glyph>
<glyph name="S" format="2">
  <advance width="1042.12"/>
  <unicode hex="0053"/>
  <anchor x="512.56" y="0.0" name="bottom"/>
  <anchor x="512.56" y="1278.0" name="top"/>
  <outline>
    <contour>
      <point x="506.57" y="-22.71" type="curve" smooth="yes"/>
      <point x="803.035" y="-22.71"/>
      <point x="952.38" y="98.57"/>
      <point x="952.38" y="329.41" type="curve" smooth="yes"/>
      <point x="952.38" y="350.485" type="line" smooth="yes"/>
      <point x="952.38" y="571.755"/>
      <point x="844.755" y="651.045"/>
      <point x="563.885" y="718.465" type="curve" smooth="yes"/>
      <point x="318.275" y="777.035"/>
      <point x="255.05" y="837.55"/>
      <point x="255.05" y="961.805" type="curve" smooth="yes"/>
      <point x="255.05" y="966.235" type="line" smooth="yes"/>
      <point x="255.05" y="1087.565"/>
      <point x="330.93" y="1159.305"/>
      <point x="526.39" y="1159.305" type="curve" smooth="yes"/>
      <point x="687.615" y="1159.305"/>
      <point x="813.325" y="1114.585"/>
      <point x="908.175" y="1057.725" type="curve"/>
      <point x="892.97" y="1210.41" type="line"/>
      <point x="812.195" y="1255.915"/>
      <point x="683.625" y="1300.495"/>
      <point x="502.485" y="1300.495" type="curve" smooth="yes"/>
      <point x="223.935" y="1300.495"/>
      <point x="86.525" y="1181.215"/>
      <point x="86.525" y="971.73" type="curve" smooth="yes"/>
      <point x="86.525" y="962.59" type="line" smooth="yes"/>
      <point x="86.525" y="754.825"/>
      <point x="193.075" y="658.9"/>
      <point x="481.16" y="592.05" type="curve" smooth="yes"/>
      <point x="709.63" y="539.48"/>
      <point x="783.855" y="485.89"/>
      <point x="783.855" y="349.485" type="curve" smooth="yes"/>
      <point x="783.855" y="332.55" type="line" smooth="yes"/>
      <point x="783.855" y="193.575"/>
      <point x="690.9" y="123.19"/>
      <point x="494.44" y="123.19" type="curve" smooth="yes"/>
      <point x="329.365" y="123.19"/>
      <point x="187.515" y="176.62"/>
      <point x="85.375" y="237.77" type="curve"/>
      <point x="101.58" y="73.45" type="line"/>
      <point x="182.0" y="28.515"/>
      <point x="323.495" y="-22.71"/>
    </contour>
  </outline>
</glyph>
<glyph name="T" format="2">
  <advance width="1061.595"/>
  <unicode hex="0054"/>
  <anchor x="530.905" y="0.0" name="bottom"/>
  <anchor x="530.905" y="639.0" name="center"/>
  <anchor x="530.905" y="1278.0" name="top"/>
  <outline>
    <contour>
      <point x="448.105" y="0.0" type="line"/>
      <point x="614.275" y="0.0" type="line"/>
      <point x="614.275" y="1250.525" type="line"/>
      <point x="448.105" y="1250.525" type="line"/>
    </contour>
    <contour>
      <point x="65.01" y="1138.81" type="line"/>
      <point x="996.585" y="1138.81" type="line"/>
      <point x="996.585" y="1278.0" type="line"/>
      <point x="65.01" y="1278.0" type="line"/>
    </contour>
  </outline>
</glyph>
<glyph name="U" format="2">
  <advance width="1220.24"/>
  <unicode hex="0055"/>
  <anchor x="610.12" y="0.0" name="bottom"/>
  <anchor x="855.145" y="5.0" name="ogonek"/>
  <anchor x="610.12" y="1278.0" name="top"/>
  <anchor x="1194.94" y="1278.0" name="topright"/>
  <outline>
    <contour>
      <point x="610.12" y="-24.28" type="curve" smooth="yes"/>
      <point x="930.65" y="-24.28"/>
      <point x="1079.21" y="144.215"/>
      <point x="1079.21" y="459.335" type="curve" smooth="yes"/>
      <point x="1079.21" y="1278.0" type="line"/>
      <point x="913.04" y="1278.0" type="line"/>
      <point x="913.04" y="454.625" type="line" smooth="yes"/>
      <point x="913.04" y="235.725"/>
      <point x="822.515" y="117.695"/>
      <point x="610.12" y="117.695" type="curve" smooth="yes"/>
      <point x="397.725" y="117.695"/>
      <point x="307.2" y="235.725"/>
      <point x="307.2" y="454.625" type="curve" smooth="yes"/>
      <point x="307.2" y="1278.0" type="line"/>
      <point x="141.03" y="1278.0" type="line"/>
      <point x="141.03" y="459.335" type="line" smooth="yes"/>
      <point x="141.03" y="144.215"/>
      <point x="290.16" y="-24.28"/>
    </contour>
  </outline>
</glyph>
<glyph name="V" format="2">
  <advance width="1140.23"/>
  <unicode hex="0056"/>
  <anchor x="570.615" y="0.0" name="bottom"/>
  <anchor x="570.615" y="1278.0" name="top"/>
  <outline>
    <contour>
      <point x="438.34" y="0.0" type="line"/>
      <point x="702.89" y="0.0" type="line"/>
      <point x="1091.35" y="1278.0" type="line"/>
      <point x="917.685" y="1278.0" type="line"/>
      <point x="581.83" y="125.63" type="line"/>
      <point x="558.4" y="125.63" type="line"/>
      <point x="222.54500000000002" y="1278.0" type="line"/>
      <point x="48.88" y="1278.0" type="line"/>
    </contour>
  </outline>
</glyph>
<glyph name="W" format="2">
  <advance width="1634.725"/>
  <unicode hex="0057"/>
  <anchor x="817.97" y="0.0" name="bottom"/>
  <anchor x="817.97" y="1278.0" name="top"/>
  <outline>
    <contour>
      <point x="329.2" y="0.0" type="line"/>
      <point x="592.535" y="0.0" type="line"/>
      <point x="739.315" y="735.485" type="line"/>
      <point x="809.755" y="1107.52" type="line"/>
      <point x="825.755" y="1107.52" type="line"/>
      <point x="896.195" y="735.485" type="line"/>
      <point x="1044.19" y="0.0" type="line"/>
      <point x="1306.31" y="0.0" type="line"/>
      <point x="1569.415" y="1278.0" type="line"/>
      <point x="1400.675" y="1278.0" type="line"/>
      <point x="1214.52" y="323.06" type="line"/>
      <point x="1179.4" y="139.19" type="line"/>
      <point x="1160.895" y="139.19" type="line"/>
      <point x="1127.345" y="323.06" type="line"/>
      <point x="940.32" y="1244.71" type="line"/>
      <point x="695.19" y="1244.71" type="line"/>
      <point x="507.81" y="323.275" type="line"/>
      <point x="474.045" y="139.19" type="line"/>
      <point x="456.325" y="139.19" type="line"/>
      <point x="421.205" y="323.275" type="line"/>
      <point x="235.05" y="1278.0" type="line"/>
      <point x="65.31" y="1278.0" type="line"/>
    </contour>
  </outline>
</glyph>
<glyph name="X" format="2">
  <advance width="1132.38"/>
  <unicode hex="0058"/>
  <anchor x="566.69" y="0.0" name="bottom"/>
  <anchor x="566.69" y="1278.0" name="top"/>
  <outline>
    <contour>
      <point x="52.955" y="0.0" type="line"/>
      <point x="236.9" y="0.0" type="line"/>
      <point x="560.12" y="566.275" type="line"/>
      <point x="573.26" y="566.275" type="line"/>
      <point x="895.695" y="0.0" type="line"/>
      <point x="1079.425" y="0.0" type="line"/>
      <point x="685.535" y="680.915" type="line"/>
      <point x="685.535" y="642.58" type="line"/>
      <point x="1071.285" y="1278.0" type="line"/>
      <point x="890.48" y="1278.0" type="line"/>
      <point x="573.26" y="747.37" type="line"/>
      <point x="560.905" y="747.37" type="line"/>
      <point x="242.685" y="1278.0" type="line"/>
      <point x="62.095" y="1278.0" type="line"/>
      <point x="447.845" y="642.58" type="line"/>
      <point x="447.845" y="680.915" type="line"/>
    </contour>
  </outline>
</glyph>
<glyph name="Y" format="2">
  <advance width="1096.305"/>
  <unicode hex="0059"/>
  <anchor x="548.26" y="0.0" name="bottom"/>
  <anchor x="548.26" y="1278.0" name="top"/>
  <anchor x="21.29" y="1278.0" name="topleft"/>
  <outline>
    <contour>
      <point x="476.88" y="383.825" type="line"/>
      <point x="620.21" y="383.825" type="line"/>
      <point x="1058.565" y="1278.0" type="line"/>
      <point x="882.9" y="1278.0" type="line"/>
      <point x="649.345" y="789.135" type="line"/>
      <point x="554.83" y="576.845" type="line"/>
      <point x="542.26" y="576.845" type="line"/>
      <point x="447.745" y="789.135" type="line"/>
      <point x="213.405" y="1278.0" type="line"/>
      <point x="37.74" y="1278.0" type="line"/>
    </contour>
    <contour>
      <point x="467.03" y="0.0" type="line"/>
      <point x="630.06" y="0.0" type="line"/>
      <point x="630.06" y="539.295" type="line"/>
      <point x="467.03" y="539.295" type="line"/>
    </contour>
  </outline>
</glyph>
<glyph name="Z" format="2">
  <advance width="1035.615"/>
  <unicode hex="005A"/>
  <anchor x="518.7" y="0.0" name="bottom"/>
  <anchor x="518.7" y="639.0" name="center"/>
  <anchor x="518.7" y="1278.0" name="top"/>
  <outline>
    <contour>
      <point x="950.165" y="140.19" type="line"/>
      <point x="278.03" y="140.19" type="line"/>
      <point x="942.81" y="1149.09" type="line"/>
      <point x="942.81" y="1278.0" type="line"/>
      <point x="91.59" y="1278.0" type="line"/>
      <point x="91.59" y="1139.595" type="line"/>
      <point x="750.8" y="1139.595" type="line"/>
      <point x="86.235" y="130.695" type="line"/>
      <point x="86.235" y="0.0" type="line"/>
      <point x="950.165" y="0.0" type="line"/>
    </contour>
  </outline>
</glyph>
<glyph name="bracketleft" format="2">
  <advance width="611.98"/>
  <unicode hex="005B"/>
  <outline>
    <contour>
      <point x="152.245" y="-242.28" type="line"/>
      <point x="555.905" y="-242.28" type="line"/>
      <point x="555.905" y="-119.005" type="line"/>
      <point x="303.07" y="-119.005" type="line"/>
      <point x="303.07" y="1227.51" type="line"/>
      <point x="555.905" y="1227.51" type="line"/>
      <point x="555.905" y="1350.785" type="line"/>
      <point x="152.245" y="1350.785" type="line"/>
    </contour>
  </outline>
</glyph>
<glyph name="backslash" format="2">
  <advance width="831.94"/>
  <unicode hex="005C"/>
  <outline>
    <contour>
      <point x="799.975" y="-239.635" type="line"/>
      <point x="182.65" y="1341.28" type="line"/>
      <point x="31.965" y="1341.28" type="line"/>
      <point x="648.505" y="-239.635" type="line"/>
    </contour>
  </outline>
</glyph>
<glyph name="bracketright" format="2">
  <advance width="611.98"/>
  <unicode hex="005D"/>
  <outline>
    <contour>
      <point x="459.735" y="-242.28" type="line"/>
      <point x="459.735" y="1350.785" type="line"/>
      <point x="56.075" y="1350.785" type="line"/>
      <point x="56.075" y="1227.51" type="line"/>
      <point x="308.91" y="1227.51" type="line"/>
      <point x="308.91" y="-119.005" type="line"/>
      <point x="56.075" y="-119.005" type="line"/>
      <point x="56.075" y="-242.28" type="line"/>
    </contour>
  </outline>
</glyph>
<glyph name="asciicircum" format="2">
  <advance width="843.025"/>
  <unicode hex="005E"/>
  <outline>
    <contour>
      <point x="312.76" y="1278.0" type="line"/>
      <point x="55.955" y="613.075" type="line"/>
      <point x="198.22" y="613.075" type="line"/>
      <point x="413.69" y="1178.275" type="line"/>
      <point x="428.55" y="1178.275" type="line"/>
      <point x="644.805" y="613.075" type="line"/>
      <point x="787.07" y="613.075" type="line"/>
      <point x="529.48" y="1278.0" type="line"/>
    </contour>
  </outline>
</glyph>
<glyph name="underscore" format="2">
  <advance width="906.31"/>
  <unicode hex="005F"/>
  <outline>
    <contour>
      <point x="55.805" y="-206.66" type="line"/>
      <point x="850.505" y="-206.66" type="line"/>
      <point x="850.505" y="-80.46" type="line"/>
      <point x="55.805" y="-80.46" type="line"/>
    </contour>
  </outline>
</glyph>
<glyph name="grave" format="2">
  <advance width="568.555"/>
  <unicode hex="0060"/>
  <anchor x="402.24" y="976.495" name="_top"/>
  <anchor x="398.81" y="1324.83" name="top"/>
  <outline>
    <contour>
      <point x="278.675" y="1366.28" type="line"/>
      <point x="98.795" y="1366.28" type="line"/>
      <point x="98.795" y="1363.495" type="line"/>
      <point x="329.215" y="1096.87" type="line"/>
      <point x="472.62" y="1096.87" type="line"/>
      <point x="472.62" y="1099.44" type="line"/>
    </contour>
  </outline>
</glyph>
<glyph name="a" format="2">
  <advance width="988.24"/>
  <unicode hex="0061"/>
  <anchor x="486.045" y="0.0" name="bottom"/>
  <anchor x="912.005" y="0.0" name="ogonek"/>
  <anchor x="486.045" y="976.495" name="top"/>
  <outline>
    <contour>
      <point x="710.825" y="0.0" type="line"/>
      <point x="872.07" y="0.0" type="line"/>
      <point x="872.07" y="632.32" type="line" smooth="yes"/>
      <point x="872.07" y="856.515"/>
      <point x="766.5" y="998.635"/>
      <point x="486.625" y="998.635" type="curve" smooth="yes"/>
      <point x="324.84" y="998.635"/>
      <point x="204.205" y="947.27"/>
      <point x="128.075" y="900.84" type="curve"/>
      <point x="112.87" y="763.07" type="line"/>
      <point x="203.645" y="815.22"/>
      <point x="321.0" y="863.37"/>
      <point x="460.72" y="863.37" type="curve" smooth="yes"/>
      <point x="635.525" y="863.37"/>
      <point x="712.61" y="787.49"/>
      <point x="712.61" y="629.75" type="curve"/>
      <point x="711.825" y="573.01" type="line"/>
      <point x="711.825" y="262.215" type="line"/>
      <point x="717.965" y="237.16" type="line"/>
    </contour>
    <contour>
      <point x="374.88" y="-21.355" type="curve" smooth="yes"/>
      <point x="588.75" y="-21.355"/>
      <point x="682.705" y="90.46"/>
      <point x="711.48" y="219.63" type="curve"/>
      <point x="742.32" y="219.63" type="line"/>
      <point x="717.04" y="330.42" type="line"/>
      <point x="690.825" y="209.585"/>
      <point x="592.59" y="113.695"/>
      <point x="426.195" y="113.695" type="curve" smooth="yes"/>
      <point x="299.865" y="113.695"/>
      <point x="236.265" y="170.145"/>
      <point x="236.265" y="273.12" type="curve" smooth="yes"/>
      <point x="236.265" y="289.055" type="line" smooth="yes"/>
      <point x="236.265" y="388.805"/>
      <point x="294.93" y="435.965"/>
      <point x="443.905" y="457.115" type="curve" smooth="yes"/>
      <point x="741.815" y="499.695" type="line"/>
      <point x="732.965" y="618.475" type="line"/>
      <point x="424.345" y="573.895" type="line" smooth="yes"/>
      <point x="181.075" y="539.11"/>
      <point x="75.235" y="459.325"/>
      <point x="75.235" y="279.99" type="curve" smooth="yes"/>
      <point x="75.235" y="251.495" type="line" smooth="yes"/>
      <point x="75.235" y="75.925"/>
      <point x="181.665" y="-21.355"/>
    </contour>
  </outline>
</glyph>
<glyph name="b" format="2">
  <advance width="1073.745"/>
  <unicode hex="0062"/>
  <anchor x="544.335" y="0.0" name="bottom"/>
  <anchor x="544.335" y="1325.075" name="top"/>
  <outline>
    <contour>
      <point x="613.005" y="-21.355" type="curve" smooth="yes"/>
      <point x="853.005" y="-21.355"/>
      <point x="980.08" y="128.925"/>
      <point x="980.08" y="409.27" type="curve" smooth="yes"/>
      <point x="980.08" y="570.72" type="line" smooth="yes"/>
      <point x="980.08" y="848.71"/>
      <point x="854.005" y="997.85"/>
      <point x="619.93" y="997.85" type="curve" smooth="yes"/>
      <point x="421.78" y="997.85"/>
      <point x="324.89" y="889.895"/>
      <point x="294.9" y="756.79" type="curve"/>
      <point x="248.575" y="756.79" type="line"/>
      <point x="286.2" y="643.645" type="line"/>
      <point x="313.63" y="772.125"/>
      <point x="415.23" y="865.94"/>
      <point x="563.335" y="865.94" type="curve" smooth="yes"/>
      <point x="728.74" y="865.94"/>
      <point x="817.48" y="768.265"/>
      <point x="817.48" y="583.28" type="curve" smooth="yes"/>
      <point x="817.48" y="399.85" type="line" smooth="yes"/>
      <point x="817.48" y="211.155"/>
      <point x="728.31" y="113.695"/>
      <point x="565.55" y="113.695" type="curve" smooth="yes"/>
      <point x="411.24" y="113.695"/>
      <point x="297.49" y="201.145"/>
      <point x="289.415" y="376.97" type="curve"/>
      <point x="239.94" y="224.65" type="line"/>
      <point x="293.545" y="224.65" type="line"/>
      <point x="321.45" y="75.675"/>
      <point x="432.63" y="-21.355"/>
    </contour>
    <contour>
      <point x="132.17" y="0.0" type="line"/>
      <point x="293.985" y="0.0" type="line"/>
      <point x="286.63" y="235.88" type="line"/>
      <point x="289.415" y="287.775" type="line"/>
      <point x="289.415" y="696.14" type="line"/>
      <point x="288.415" y="726.915" type="line"/>
      <point x="293.2" y="1007.055" type="line"/>
      <point x="293.2" y="1325.075" type="line"/>
      <point x="132.17" y="1325.075" type="line"/>
    </contour>
  </outline>
</glyph>
<glyph name="c" format="2">
  <advance width="868.485"/>
  <unicode hex="0063"/>
  <anchor x="482.7" y="0.0" name="bottom"/>
  <anchor x="482.7" y="976.495" name="top"/>
  <outline>
    <contour>
      <point x="507.69" y="-22.14" type="curve" smooth="yes"/>
      <point x="635.205" y="-22.14"/>
      <point x="730.27" y="18.44"/>
      <point x="789.335" y="58.945" type="curve"/>
      <point x="803.97" y="201.855" type="line"/>
      <point x="736.475" y="154.49"/>
      <point x="650.83" y="115.695"/>
      <point x="532.455" y="115.695" type="curve" smooth="yes"/>
      <point x="345.285" y="115.695"/>
      <point x="255.48" y="223.79"/>
      <point x="255.48" y="417.335" type="curve" smooth="yes"/>
      <point x="255.48" y="561.375" type="line" smooth="yes"/>
      <point x="255.48" y="757.845"/>
      <point x="345.5" y="864.155"/>
      <point x="531.81" y="864.155" type="curve" smooth="yes"/>
      <point x="648.325" y="864.155"/>
      <point x="731.615" y="825.79"/>
      <point x="795.185" y="778.21" type="curve"/>
      <point x="780.765" y="919.335" type="line"/>
      <point x="724.7" y="958.41"/>
      <point x="631.205" y="999.42"/>
      <point x="507.69" y="999.42" type="curve" smooth="yes"/>
      <point x="228.44" y="999.42"/>
      <point x="92.88" y="842.645"/>
      <point x="92.88" y="564.515" type="curve" smooth="yes"/>
      <point x="92.88" y="413.195" type="line" smooth="yes"/>
      <point x="92.88" y="135.42"/>
      <point x="227.655" y="-22.14"/>
    </contour>
  </outline>
</glyph>
<glyph name="d" format="2">
  <advance width="1073.745"/>
  <unicode hex="0064"/>
  <anchor x="529.41" y="0.0" name="bottom"/>
  <anchor x="529.41" y="489.14" name="center"/>
  <anchor x="529.41" y="1325.075" name="top"/>
  <anchor x="1094.83" y="1325.075" name="topright"/>
  <outline>
    <contour>
      <point x="453.815" y="-21.355" type="curve" smooth="yes"/>
      <point x="652.75" y="-21.355"/>
      <point x="750.425" y="86.6"/>
      <point x="780.415" y="219.70499999999998" type="curve"/>
      <point x="827.525" y="219.70499999999998" type="line"/>
      <point x="787.545" y="335.99" type="line"/>
      <point x="760.115" y="207.51"/>
      <point x="658.515" y="113.695"/>
      <point x="511.195" y="113.695" type="curve" smooth="yes"/>
      <point x="345.005" y="113.695"/>
      <point x="256.265" y="211.37"/>
      <point x="256.265" y="395.57" type="curve" smooth="yes"/>
      <point x="256.265" y="582.14" type="line" smooth="yes"/>
      <point x="256.265" y="768.48"/>
      <point x="346.22" y="865.94"/>
      <point x="510.55" y="865.94" type="curve" smooth="yes"/>
      <point x="666.43" y="865.94"/>
      <point x="777.04" y="775.35"/>
      <point x="784.33" y="602.665" type="curve"/>
      <point x="832.235" y="751.845" type="line"/>
      <point x="778.63" y="751.845" type="line"/>
      <point x="750.725" y="900.82"/>
      <point x="640.33" y="997.85"/>
      <point x="460.74" y="997.85" type="curve" smooth="yes"/>
      <point x="219.17" y="997.85"/>
      <point x="93.665" y="847.57"/>
      <point x="93.665" y="567.225" type="curve" smooth="yes"/>
      <point x="93.665" y="405.775" type="line" smooth="yes"/>
      <point x="93.665" y="127.785"/>
      <point x="219.74" y="-21.355"/>
    </contour>
    <contour>
      <point x="779.76" y="0.0" type="line"/>
      <point x="941.575" y="0.0" type="line"/>
      <point x="941.575" y="1325.075" type="line"/>
      <point x="780.545" y="1325.075" type="line"/>
      <point x="780.545" y="1007.055" type="line"/>
      <point x="785.33" y="730.055" type="line"/>
      <point x="784.33" y="696.14" type="line"/>
      <point x="784.33" y="287.775" type="line"/>
      <point x="787.115" y="235.88" type="line"/>
    </contour>
  </outline>
</glyph>
<glyph name="e" format="2">
  <advance width="998.67"/>
  <unicode hex="0065"/>
  <anchor x="513.335" y="0.0" name="bottom"/>
  <anchor x="810.34" y="7.355" name="ogonek"/>
  <anchor x="508.69" y="976.495" name="top"/>
  <outline>
    <contour>
      <point x="542.25" y="-22.14" type="curve" smooth="yes"/>
      <point x="680.885" y="-22.14"/>
      <point x="797.595" y="13.365"/>
      <point x="883.66" y="67.945" type="curve"/>
      <point x="898.865" y="208.5" type="line"/>
      <point x="801.94" y="150.2"/>
      <point x="693.585" y="114.91"/>
      <point x="568.37" y="114.91" type="curve" smooth="yes"/>
      <point x="347.585" y="114.91"/>
      <point x="253.91" y="220.145"/>
      <point x="253.91" y="381.625" type="curve" smooth="yes"/>
      <point x="253.91" y="475.075" type="line"/>
      <point x="253.125" y="494.85" type="line"/>
      <point x="253.125" y="588.14" type="line" smooth="yes"/>
      <point x="253.125" y="769.555"/>
      <point x="336.51" y="869.94"/>
      <point x="504.98" y="869.94" type="curve" smooth="yes"/>
      <point x="673.805" y="869.94"/>
      <point x="759.76" y="770.91"/>
      <point x="759.76" y="592.785" type="curve" smooth="yes"/>
      <point x="759.76" y="545.01"/>
      <point x="758.975" y="487.095"/>
      <point x="757.405" y="422.825" type="curve"/>
      <point x="906.015" y="422.825" type="line"/>
      <point x="912.155" y="464.32"/>
      <point x="915.295" y="507.02"/>
      <point x="915.295" y="549.58" type="curve" smooth="yes"/>
      <point x="915.295" y="585.935" type="line" smooth="yes"/>
      <point x="915.295" y="842.505"/>
      <point x="775.875" y="1001.85"/>
      <point x="504.98" y="1001.85" type="curve" smooth="yes"/>
      <point x="236.365" y="1001.85"/>
      <point x="92.88" y="847.075"/>
      <point x="92.88" y="573.225" type="curve" smooth="yes"/>
      <point x="92.88" y="399.465" type="line" smooth="yes"/>
      <point x="92.88" y="127.85"/>
      <point x="244.87" y="-22.14"/>
    </contour>
    <contour>
      <point x="178.175" y="422.825" type="line"/>
      <point x="871.82" y="422.825" type="line"/>
      <point x="871.82" y="545.315" type="line"/>
      <point x="178.175" y="545.315" type="line"/>
    </contour>
  </outline>
</glyph>
<glyph name="f" format="2">
  <advance width="750.645"/>
  <unicode hex="0066"/>
  <anchor x="379.355" y="0.0" name="bottom"/>
  <anchor x="379.355" y="1313.0" name="top"/>
  <outline>
    <contour>
      <point x="460.01" y="1351.57" type="curve" smooth="yes"/>
      <point x="245.805" y="1351.57"/>
      <point x="147.46" y="1258.14"/>
      <point x="147.46" y="1116.205" type="curve" smooth="yes"/>
      <point x="147.46" y="1111.205" type="line" smooth="yes"/>
      <point x="147.46" y="1034.215"/>
      <point x="182.59" y="976.57"/>
      <point x="224.85" y="943.635" type="curve"/>
      <point x="224.85" y="924.075" type="line"/>
      <point x="333.995" y="928.29" type="line"/>
      <point x="318.995" y="962.3"/>
      <point x="304.565" y="1004.955"/>
      <point x="304.565" y="1052.47" type="curve" smooth="yes"/>
      <point x="304.565" y="1056.9" type="line" smooth="yes"/>
      <point x="304.565" y="1155.36"/>
      <point x="358.865" y="1217.09"/>
      <point x="510.25" y="1217.09" type="curve" smooth="yes"/>
      <point x="592.615" y="1217.09"/>
      <point x="654.69" y="1201.015"/>
      <point x="720.485" y="1178.295" type="curve"/>
      <point x="704.495" y="1305.14" type="line"/>
      <point x="637.495" y="1332.355"/>
      <point x="559.935" y="1351.57"/>
    </contour>
    <contour>
      <point x="180.245" y="0.0" type="line"/>
      <point x="341.275" y="0.0" type="line"/>
      <point x="341.275" y="889.385" type="line"/>
      <point x="180.245" y="889.385" type="line"/>
    </contour>
    <contour>
      <point x="19.365" y="809.52" type="line"/>
      <point x="701.205" y="809.52" type="line"/>
      <point x="715.625" y="938.86" type="line"/>
      <point x="307.51" y="938.86" type="line"/>
      <point x="242.13" y="938.075" type="line"/>
      <point x="19.365" y="938.86" type="line"/>
    </contour>
  </outline>
</glyph>
<glyph name="g" format="2">
  <advance width="1024.68"/>
  <unicode hex="0067"/>
  <anchor x="513.915" y="-347.925" name="bottom"/>
  <anchor x="512.7" y="979.635" name="top"/>
  <outline>
    <contour>
      <point x="512.485" y="291.7" type="curve"/>
      <point x="776.96" y="291.7"/>
      <point x="914.52" y="403.055"/>
      <point x="914.52" y="610.42" type="curve" smooth="yes"/>
      <point x="914.52" y="631.74" type="line" smooth="yes"/>
      <point x="914.52" y="767.48"/>
      <point x="852.37" y="854.37"/>
      <point x="715.44" y="883.65" type="curve"/>
      <point x="715.655" y="891.21" type="line"/>
      <point x="1009.585" y="880.93" type="line"/>
      <point x="1009.585" y="1008.56" type="line"/>
      <point x="512.12" y="993.28" type="line" smooth="yes"/>
      <point x="216.515" y="984.355"/>
      <point x="99.6" y="854.85"/>
      <point x="99.6" y="652.505" type="curve" smooth="yes"/>
      <point x="99.6" y="628.335" type="line" smooth="yes"/>
      <point x="99.6" y="411.55"/>
      <point x="246.085" y="291.7"/>
    </contour>
    <contour>
      <point x="505.13" y="-245.725" type="line" smooth="yes"/>
      <point x="328.455" y="-245.725"/>
      <point x="219.06" y="-210.575"/>
      <point x="219.06" y="-107.03999999999999" type="curve" smooth="yes"/>
      <point x="219.06" y="-104.825" type="line" smooth="yes"/>
      <point x="219.06" y="-16.505"/>
      <point x="296.025" y="25.075"/>
      <point x="407.72" y="41.935" type="curve"/>
      <point x="362.16" y="40.15" type="line"/>
      <point x="638.355" y="14.655" type="line" smooth="yes"/>
      <point x="768.965" y="3.01"/>
      <point x="816.555" y="-34.225"/>
      <point x="816.555" y="-109.32" type="curve" smooth="yes"/>
      <point x="816.555" y="-112.535" type="line" smooth="yes"/>
      <point x="816.555" y="-209.715"/>
      <point x="707.3" y="-245.725"/>
      <point x="528.41" y="-245.725" type="curve" smooth="yes"/>
    </contour>
    <contour>
      <point x="495.71" y="-375.495" type="curve" smooth="yes"/>
      <point x="525.27" y="-375.495" type="line" smooth="yes"/>
      <point x="798.81" y="-375.495"/>
      <point x="968.95" y="-298.655"/>
      <point x="968.95" y="-115.245" type="curve" smooth="yes"/>
      <point x="968.95" y="-110.46" type="line" smooth="yes"/>
      <point x="968.95" y="42.004999999999995"/>
      <point x="878.175" y="115.005"/>
      <point x="671.615" y="136.715" type="curve" smooth="yes"/>
      <point x="435.12" y="161.425" type="line" smooth="yes"/>
      <point x="315.435" y="173.855"/>
      <point x="271.565" y="193.51"/>
      <point x="271.565" y="238.455" type="curve" smooth="yes"/>
      <point x="271.565" y="239.455" type="line" smooth="yes"/>
      <point x="271.565" y="279.045"/>
      <point x="300.865" y="301.195"/>
      <point x="392.12" y="302.41" type="curve"/>
      <point x="467.55" y="300.055" type="line"/>
      <point x="281.975" y="346.615" type="line"/>
      <point x="281.975" y="326.55" type="line"/>
      <point x="171.385" y="318.485"/>
      <point x="121.17" y="273.915"/>
      <point x="121.17" y="198.99" type="curve" smooth="yes"/>
      <point x="121.17" y="197.99" type="line" smooth="yes"/>
      <point x="121.17" y="124.345"/>
      <point x="171.825" y="78.775"/>
      <point x="281.295" y="60.495" type="curve"/>
      <point x="281.725" y="53.935" type="line"/>
      <point x="162.125" y="37.795"/>
      <point x="68.235" y="-21.13"/>
      <point x="68.235" y="-140.365" type="curve" smooth="yes"/>
      <point x="68.235" y="-144.365" type="line" smooth="yes"/>
      <point x="68.235" y="-313.29"/>
      <point x="233.02" y="-375.495"/>
    </contour>
    <contour>
      <point x="510.13" y="411.835" type="curve" smooth="yes"/>
      <point x="338.445" y="411.835"/>
      <point x="254.35" y="487.93"/>
      <point x="254.35" y="632.26" type="curve" smooth="yes"/>
      <point x="254.35" y="654.86" type="line" smooth="yes"/>
      <point x="254.35" y="786.825"/>
      <point x="326.94" y="874.715"/>
      <point x="508.13" y="874.715" type="curve" smooth="yes"/>
      <point x="514.205" y="874.715" type="line" smooth="yes"/>
      <point x="679.03" y="874.715"/>
      <point x="762.125" y="795.76"/>
      <point x="762.125" y="656.075" type="curve" smooth="yes"/>
      <point x="762.125" y="631.615" type="line" smooth="yes"/>
      <point x="762.125" y="487.715"/>
      <point x="676.815" y="411.835"/>
    </contour>
  </outline>
</glyph>
<glyph name="h" format="2">
  <advance width="1066.24"/>
  <unicode hex="0068"/>
  <anchor x="534.12" y="0.0" name="bottom"/>
  <anchor x="534.12" y="657.0" name="center"/>
  <anchor x="213.185" y="1325.075" name="top"/>
  <outline>
    <contour>
      <point x="784.9" y="0.0" type="line"/>
      <point x="946.715" y="0.0" type="line"/>
      <point x="946.715" y="625.14" type="line" smooth="yes"/>
      <point x="946.715" y="863.345"/>
      <point x="853.65" y="997.85"/>
      <point x="622.07" y="997.85" type="curve" smooth="yes"/>
      <point x="428.05" y="997.85"/>
      <point x="324.675" y="889.465"/>
      <point x="294.9" y="757.865" type="curve"/>
      <point x="253.21" y="757.865" type="line"/>
      <point x="288.555" y="643.15" type="line"/>
      <point x="315.555" y="768.34"/>
      <point x="406.725" y="862.8"/>
      <point x="561.195" y="862.8" type="curve" smooth="yes"/>
      <point x="727.31" y="862.8"/>
      <point x="784.9" y="763.49"/>
      <point x="784.9" y="607.44" type="curve" smooth="yes"/>
    </contour>
    <contour>
      <point x="132.17" y="0.0" type="line"/>
      <point x="293.985" y="0.0" type="line"/>
      <point x="293.985" y="714.28" type="line"/>
      <point x="288.415" y="726.56" type="line"/>
      <point x="293.2" y="1007.485" type="line"/>
      <point x="293.2" y="1325.075" type="line"/>
      <point x="132.17" y="1325.075" type="line"/>
    </contour>
  </outline>
</glyph>
<glyph name="i" format="2">
  <advance width="432.585"/>
  <unicode hex="0069"/>
  <anchor x="216.4" y="0.0" name="bottom"/>
  <anchor x="337.135" y="0.0" name="ogonek"/>
  <outline>
    <contour>
      <point x="135.385" y="0.0" type="line"/>
      <point x="297.2" y="0.0" type="line"/>
      <point x="297.2" y="976.495" type="line"/>
      <point x="135.385" y="976.495" type="line"/>
    </contour>
    <contour>
      <point x="216.4" y="1136.405" type="curve" smooth="yes"/>
      <point x="282.865" y="1136.405"/>
      <point x="315.705" y="1171.675"/>
      <point x="315.705" y="1235.365" type="curve" smooth="yes"/>
      <point x="315.705" y="1240.44" type="line" smooth="yes"/>
      <point x="315.705" y="1302.345"/>
      <point x="282.865" y="1339.185"/>
      <point x="216.4" y="1339.185" type="curve" smooth="yes"/>
      <point x="149.15" y="1339.185"/>
      <point x="116.88" y="1302.345"/>
      <point x="116.88" y="1240.44" type="curve" smooth="yes"/>
      <point x="116.88" y="1235.365" type="line" smooth="yes"/>
      <point x="116.88" y="1172.46"/>
      <point x="149.15" y="1136.405"/>
    </contour>
  </outline>
</glyph>
<glyph name="j" format="2">
  <advance width="460.595"/>
  <unicode hex="006A"/>
  <outline>
    <contour>
      <point x="163.395" y="133.45" type="line"/>
      <point x="325.21" y="133.45" type="line"/>
      <point x="325.21" y="976.495" type="line"/>
      <point x="163.395" y="976.495" type="line"/>
    </contour>
    <contour>
      <point x="244.41" y="1136.405" type="curve" smooth="yes"/>
      <point x="310.875" y="1136.405"/>
      <point x="343.715" y="1171.675"/>
      <point x="343.715" y="1235.365" type="curve" smooth="yes"/>
      <point x="343.715" y="1240.44" type="line" smooth="yes"/>
      <point x="343.715" y="1302.345"/>
      <point x="310.875" y="1339.185"/>
      <point x="244.41" y="1339.185" type="curve" smooth="yes"/>
      <point x="177.16" y="1339.185"/>
      <point x="144.89" y="1302.345"/>
      <point x="144.89" y="1240.44" type="curve" smooth="yes"/>
      <point x="144.89" y="1235.365" type="line" smooth="yes"/>
      <point x="144.89" y="1172.46"/>
      <point x="177.16" y="1136.405"/>
    </contour>
    <component base="jbottom"/>
  </outline>
</glyph>
<glyph name="k" format="2">
  <advance width="989.21"/>
  <unicode hex="006B"/>
  <anchor x="508.045" y="0.0" name="bottom"/>
  <anchor x="501.97" y="1325.075" name="top"/>
  <outline>
    <contour>
      <point x="766.385" y="0.0" type="line"/>
      <point x="959.685" y="0.0" type="line"/>
      <point x="499.205" y="543.635" type="line"/>
      <point x="499.205" y="504.72" type="line"/>
      <point x="941.61" y="976.495" type="line"/>
      <point x="750.45" y="976.495" type="line"/>
      <point x="380.435" y="581.39" type="line"/>
      <point x="277.06" y="581.39" type="line"/>
      <point x="277.06" y="454.76" type="line"/>
      <point x="379.65" y="454.76" type="line"/>
    </contour>
    <contour>
      <point x="132.17" y="0.0" type="line"/>
      <point x="293.2" y="0.0" type="line"/>
      <point x="293.2" y="1325.075" type="line"/>
      <point x="132.17" y="1325.075" type="line"/>
    </contour>
  </outline>
</glyph>
<glyph name="l" format="2">
  <advance width="435.015"/>
  <unicode hex="006C"/>
  <anchor x="218.4" y="0.0" name="bottom"/>
  <anchor x="218.4" y="657.0" name="center"/>
  <anchor x="218.4" y="1325.075" name="top"/>
  <anchor x="452.67" y="1325.075" name="topright"/>
  <outline>
    <contour>
      <point x="136.6" y="0.0" type="line"/>
      <point x="298.415" y="0.0" type="line"/>
      <point x="298.415" y="1325.075" type="line"/>
      <point x="136.6" y="1325.075" type="line"/>
    </contour>
  </outline>
</glyph>
<glyph name="m" format="2">
  <advance width="1632.165"/>
  <unicode hex="006D"/>
  <anchor x="815.69" y="0.0" name="bottom"/>
  <anchor x="815.69" y="976.495" name="top"/>
  <outline>
    <contour>
      <point x="1350.825" y="0.0" type="line"/>
      <point x="1512.64" y="0.0" type="line"/>
      <point x="1512.64" y="629.065" type="line" smooth="yes"/>
      <point x="1512.64" y="864.915"/>
      <point x="1425.575" y="997.85"/>
      <point x="1209.07" y="997.85" type="curve" smooth="yes"/>
      <point x="1016.64" y="997.85"/>
      <point x="923.33" y="885.97"/>
      <point x="891.2" y="761.09" type="curve"/>
      <point x="870.995" y="761.09" type="line"/>
      <point x="895.92" y="645.73" type="line"/>
      <point x="920.705" y="768.77"/>
      <point x="1006.305" y="862.8"/>
      <point x="1148.195" y="862.8" type="curve" smooth="yes"/>
      <point x="1298.45" y="862.8"/>
      <point x="1350.825" y="765.06"/>
      <point x="1350.825" y="611.365" type="curve" smooth="yes"/>
    </contour>
    <contour>
      <point x="132.17" y="0.0" type="line"/>
      <point x="293.985" y="0.0" type="line"/>
      <point x="293.985" y="732.27" type="line"/>
      <point x="286.845" y="741.69" type="line"/>
      <point x="293.985" y="976.495" type="line"/>
      <point x="132.17" y="976.495" type="line"/>
    </contour>
    <contour>
      <point x="741.89" y="0.0" type="line"/>
      <point x="902.92" y="0.0" type="line"/>
      <point x="902.92" y="634.28" type="line" smooth="yes"/>
      <point x="902.92" y="664.28"/>
      <point x="899.565" y="697.56"/>
      <point x="893.995" y="723.85" type="curve"/>
      <point x="869.78" y="903.71"/>
      <point x="779.92" y="997.85"/>
      <point x="599.78" y="997.85" type="curve" smooth="yes"/>
      <point x="416.48" y="997.85"/>
      <point x="322.105" y="889.465"/>
      <point x="293.33" y="757.865" type="curve"/>
      <point x="257.35" y="757.865" type="line"/>
      <point x="286.985" y="642.935" type="line"/>
      <point x="311.985" y="768.34"/>
      <point x="396.51" y="862.8"/>
      <point x="539.69" y="862.8" type="curve" smooth="yes"/>
      <point x="689.73" y="862.8"/>
      <point x="741.89" y="765.06"/>
      <point x="741.89" y="611.15" type="curve" smooth="yes"/>
    </contour>
  </outline>
</glyph>
<glyph name="n" format="2">
  <advance width="1066.24"/>
  <unicode hex="006E"/>
  <anchor x="534.12" y="0.0" name="bottom"/>
  <anchor x="534.12" y="976.495" name="top"/>
  <outline>
    <contour>
      <point x="784.9" y="0.0" type="line"/>
      <point x="946.715" y="0.0" type="line"/>
      <point x="946.715" y="625.14" type="line" smooth="yes"/>
      <point x="946.715" y="863.345"/>
      <point x="853.65" y="997.85"/>
      <point x="622.07" y="997.85" type="curve" smooth="yes"/>
      <point x="425.125" y="997.85"/>
      <point x="323.89" y="889.465"/>
      <point x="293.33" y="757.865" type="curve"/>
      <point x="257.995" y="757.865" type="line"/>
      <point x="286.985" y="642.935" type="line"/>
      <point x="313.985" y="768.34"/>
      <point x="406.155" y="862.8"/>
      <point x="561.195" y="862.8" type="curve" smooth="yes"/>
      <point x="727.31" y="862.8"/>
      <point x="784.9" y="763.49"/>
      <point x="784.9" y="607.44" type="curve" smooth="yes"/>
    </contour>
    <contour>
      <point x="132.17" y="0.0" type="line"/>
      <point x="293.985" y="0.0" type="line"/>
      <point x="293.985" y="732.7" type="line"/>
      <point x="286.845" y="742.12" type="line"/>
      <point x="293.985" y="976.495" type="line"/>
      <point x="132.17" y="976.495" type="line"/>
    </contour>
  </outline>
</glyph>
<glyph name="o" format="2">
  <advance width="1039.605"/>
  <unicode hex="006F"/>
  <anchor x="520.195" y="0.0" name="bottom"/>
  <anchor x="526.055" y="380.005" name="center"/>
  <anchor x="754.585" y="3.925" name="ogonek"/>
  <anchor x="520.195" y="976.495" name="top"/>
  <anchor x="925.05" y="976.495" name="topright"/>
  <outline>
    <contour>
      <point x="520.195" y="-24.57" type="curve" smooth="yes"/>
      <point x="799.595" y="-24.57"/>
      <point x="946.725" y="131.28"/>
      <point x="946.725" y="415.41" type="curve"/>
      <point x="946.725" y="563.87" type="line"/>
      <point x="946.725" y="847.0"/>
      <point x="799.595" y="1001.85"/>
      <point x="520.195" y="1001.85" type="curve" smooth="yes"/>
      <point x="240.795" y="1001.85"/>
      <point x="92.88" y="847.0"/>
      <point x="92.88" y="563.87" type="curve"/>
      <point x="92.88" y="415.41" type="line"/>
      <point x="92.88" y="131.495"/>
      <point x="240.58" y="-24.57"/>
    </contour>
    <contour>
      <point x="520.195" y="107.34" type="curve" smooth="yes"/>
      <point x="347.22" y="107.34"/>
      <point x="255.48" y="212.51"/>
      <point x="255.48" y="405.99" type="curve" smooth="yes"/>
      <point x="255.48" y="573.29" type="line" smooth="yes"/>
      <point x="255.48" y="764.77"/>
      <point x="347.22" y="869.94"/>
      <point x="520.195" y="869.94" type="curve" smooth="yes"/>
      <point x="693.17" y="869.94"/>
      <point x="784.91" y="764.77"/>
      <point x="784.91" y="573.29" type="curve" smooth="yes"/>
      <point x="784.91" y="405.99" type="line" smooth="yes"/>
      <point x="784.91" y="212.51"/>
      <point x="692.955" y="107.34"/>
    </contour>
  </outline>
</glyph>
<glyph name="p" format="2">
  <advance width="1073.745"/>
  <unicode hex="0070"/>
  <anchor x="545.335" y="0.0" name="bottom"/>
  <anchor x="545.335" y="976.495" name="top"/>
  <outline>
    <contour>
      <point x="613.005" y="-21.355" type="curve" smooth="yes"/>
      <point x="854.575" y="-21.355"/>
      <point x="980.08" y="128.925"/>
      <point x="980.08" y="409.27" type="curve" smooth="yes"/>
      <point x="980.08" y="570.72" type="line" smooth="yes"/>
      <point x="980.08" y="848.71"/>
      <point x="854.005" y="997.85"/>
      <point x="619.93" y="997.85" type="curve" smooth="yes"/>
      <point x="420.995" y="997.85"/>
      <point x="323.32" y="889.895"/>
      <point x="293.33" y="756.79" type="curve"/>
      <point x="246.22" y="756.79" type="line"/>
      <point x="286.2" y="643.645" type="line"/>
      <point x="313.63" y="772.125"/>
      <point x="415.23" y="865.94"/>
      <point x="562.55" y="865.94" type="curve" smooth="yes"/>
      <point x="728.74" y="865.94"/>
      <point x="817.48" y="768.265"/>
      <point x="817.48" y="584.065" type="curve" smooth="yes"/>
      <point x="817.48" y="397.495" type="line" smooth="yes"/>
      <point x="817.48" y="211.155"/>
      <point x="727.525" y="113.695"/>
      <point x="563.195" y="113.695" type="curve" smooth="yes"/>
      <point x="407.315" y="113.695"/>
      <point x="296.705" y="201.145"/>
      <point x="289.415" y="376.97" type="curve"/>
      <point x="241.51" y="224.65" type="line"/>
      <point x="295.115" y="224.65" type="line"/>
      <point x="323.02" y="75.675"/>
      <point x="433.415" y="-21.355"/>
    </contour>
    <contour>
      <point x="132.17" y="-344.0" type="line"/>
      <point x="293.2" y="-344.0" type="line"/>
      <point x="293.2" y="-26.69" type="line"/>
      <point x="288.2" y="246.87" type="line"/>
      <point x="289.415" y="279.925" type="line"/>
      <point x="289.415" y="691.43" type="line"/>
      <point x="286.845" y="741.045" type="line"/>
      <point x="293.985" y="976.495" type="line"/>
      <point x="132.17" y="976.495" type="line"/>
    </contour>
  </outline>
</glyph>
<glyph name="q" format="2">
  <advance width="1073.745"/>
  <unicode hex="0071"/>
  <anchor x="529.41" y="0.0" name="bottom"/>
  <anchor x="529.41" y="976.495" name="top"/>
  <outline>
    <contour>
      <point x="453.815" y="-21.355" type="curve" smooth="yes"/>
      <point x="651.965" y="-21.355"/>
      <point x="748.855" y="86.6"/>
      <point x="778.845" y="219.70499999999998" type="curve"/>
      <point x="825.17" y="219.70499999999998" type="line"/>
      <point x="787.545" y="335.99" type="line"/>
      <point x="760.115" y="207.51"/>
      <point x="658.515" y="113.695"/>
      <point x="510.41" y="113.695" type="curve" smooth="yes"/>
      <point x="345.005" y="113.695"/>
      <point x="256.265" y="211.37"/>
      <point x="256.265" y="396.355" type="curve" smooth="yes"/>
      <point x="256.265" y="579.785" type="line" smooth="yes"/>
      <point x="256.265" y="768.48"/>
      <point x="345.435" y="865.94"/>
      <point x="508.195" y="865.94" type="curve" smooth="yes"/>
      <point x="662.505" y="865.94"/>
      <point x="776.255" y="778.49"/>
      <point x="784.33" y="602.665" type="curve"/>
      <point x="833.805" y="751.845" type="line"/>
      <point x="780.2" y="751.845" type="line"/>
      <point x="752.295" y="900.82"/>
      <point x="641.115" y="997.85"/>
      <point x="460.74" y="997.85" type="curve" smooth="yes"/>
      <point x="220.74" y="997.85"/>
      <point x="93.665" y="847.57"/>
      <point x="93.665" y="567.225" type="curve" smooth="yes"/>
      <point x="93.665" y="405.775" type="line" smooth="yes"/>
      <point x="93.665" y="127.785"/>
      <point x="219.74" y="-21.355"/>
    </contour>
    <contour>
      <point x="780.545" y="-344.0" type="line"/>
      <point x="941.575" y="-344.0" type="line"/>
      <point x="941.575" y="976.495" type="line"/>
      <point x="779.76" y="976.495" type="line"/>
      <point x="786.9" y="741.045" type="line"/>
      <point x="784.33" y="691.43" type="line"/>
      <point x="784.33" y="283.065" type="line"/>
      <point x="785.545" y="251.085" type="line"/>
      <point x="780.545" y="-26.69" type="line"/>
    </contour>
  </outline>
</glyph>
<glyph name="r" format="2">
  <advance width="746.475"/>
  <unicode hex="0072"/>
  <anchor x="213.185" y="0.0" name="bottom"/>
  <anchor x="404.28" y="976.495" name="top"/>
  <outline>
    <contour>
      <point x="286.415" y="596.59" type="line"/>
      <point x="334.565" y="751.65"/>
      <point x="448.94" y="835.39"/>
      <point x="596.455" y="835.39" type="curve" smooth="yes"/>
      <point x="645.175" y="835.39"/>
      <point x="686.25" y="827.53"/>
      <point x="718.895" y="816.67" type="curve"/>
      <point x="708.83" y="974.345" type="line"/>
      <point x="681.97" y="983.42"/>
      <point x="649.175" y="991.28"/>
      <point x="605.735" y="991.28" type="curve" smooth="yes"/>
      <point x="433.65" y="991.28"/>
      <point x="331.05" y="888.755"/>
      <point x="289.405" y="723.79" type="curve"/>
      <point x="249.36" y="721.855" type="line"/>
    </contour>
    <contour>
      <point x="132.17" y="0.0" type="line"/>
      <point x="293.985" y="0.0" type="line"/>
      <point x="293.985" y="675.99" type="line"/>
      <point x="281.92" y="688.055" type="line"/>
      <point x="290.06" y="976.495" type="line"/>
      <point x="132.17" y="976.495" type="line"/>
    </contour>
  </outline>
</glyph>
<glyph name="s" format="2">
  <advance width="882.11"/>
  <unicode hex="0073"/>
  <anchor x="439.84" y="0.0" name="bottom"/>
  <anchor x="439.055" y="976.495" name="top"/>
  <outline>
    <contour>
      <point x="436.775" y="-22.14" type="curve" smooth="yes"/>
      <point x="686.595" y="-22.14"/>
      <point x="815.875" y="71.925"/>
      <point x="815.875" y="256.045" type="curve" smooth="yes"/>
      <point x="815.875" y="272.55" type="line" smooth="yes"/>
      <point x="815.875" y="440.68"/>
      <point x="728.53" y="507.325"/>
      <point x="479.81" y="559.25" type="curve" smooth="yes"/>
      <point x="285.78" y="599.895"/>
      <point x="231.695" y="641.97"/>
      <point x="231.695" y="730.16" type="curve" smooth="yes"/>
      <point x="231.695" y="737.805" type="line" smooth="yes"/>
      <point x="231.695" y="817.415"/>
      <point x="291.435" y="866.295"/>
      <point x="444.11" y="866.295" type="curve" smooth="yes"/>
      <point x="583.97" y="866.295"/>
      <point x="694.175" y="828.005"/>
      <point x="782.455" y="777.855" type="curve"/>
      <point x="767.035" y="914.625" type="line"/>
      <point x="694.615" y="958.7"/>
      <point x="581.55" y="999.205"/>
      <point x="428.625" y="999.205" type="curve" smooth="yes"/>
      <point x="191.15" y="999.205"/>
      <point x="72.235" y="908.925"/>
      <point x="72.235" y="739.375" type="curve" smooth="yes"/>
      <point x="72.235" y="730.16" type="line" smooth="yes"/>
      <point x="72.235" y="573.16"/>
      <point x="151.59" y="496.675"/>
      <point x="397.805" y="443.61" type="curve" smooth="yes"/>
      <point x="602.91" y="398.965"/>
      <point x="656.415" y="359.59"/>
      <point x="656.415" y="268.98" type="curve" smooth="yes"/>
      <point x="656.415" y="258.4" type="line" smooth="yes"/>
      <point x="656.415" y="163.36"/>
      <point x="579.385" y="114.91"/>
      <point x="428.57" y="114.91" type="curve" smooth="yes"/>
      <point x="281.0" y="114.91"/>
      <point x="166.58" y="157.125"/>
      <point x="69.655" y="209.06" type="curve"/>
      <point x="85.075" y="59.3" type="line"/>
      <point x="162.71" y="19.009999999999998"/>
      <point x="279.205" y="-22.14"/>
    </contour>
  </outline>
</glyph>
<glyph name="t" format="2">
  <advance width="791.0"/>
  <unicode hex="0074"/>
  <anchor x="451.075" y="0.0" name="bottom"/>
  <anchor x="399.14" y="489.14" name="center"/>
  <anchor x="257.97" y="1212.01" name="top"/>
  <anchor x="579.75" y="1414.56" name="topright"/>
  <outline>
    <contour>
      <point x="486.71" y="-19.57" type="curve" smooth="yes"/>
      <point x="576.42" y="-19.57"/>
      <point x="663.635" y="-0.4950000000000001"/>
      <point x="727.205" y="32.15" type="curve"/>
      <point x="741.625" y="171.06" type="line"/>
      <point x="678.4" y="139.05"/>
      <point x="604.465" y="121.405"/>
      <point x="526.175" y="121.405" type="curve" smooth="yes"/>
      <point x="386.5" y="121.405"/>
      <point x="333.845" y="179.705"/>
      <point x="333.845" y="307.875" type="curve" smooth="yes"/>
      <point x="333.845" y="904.59" type="line"/>
      <point x="173.6" y="904.59" type="line"/>
      <point x="173.6" y="289.175" type="line" smooth="yes"/>
      <point x="173.6" y="82.7"/>
      <point x="261.31" y="-19.57"/>
    </contour>
    <contour>
      <point x="14.15" y="832.36" type="line"/>
      <point x="717.345" y="832.36" type="line"/>
      <point x="731.765" y="961.7" type="line"/>
      <point x="14.15" y="961.7" type="line"/>
    </contour>
    <contour>
      <point x="175.17" y="946.205" type="line"/>
      <point x="329.705" y="946.205" type="line"/>
      <point x="336.63" y="1241.43" type="line"/>
      <point x="174.385" y="1220.15" type="line"/>
    </contour>
  </outline>
</glyph>
<glyph name="u" format="2">
  <advance width="1066.24"/>
  <unicode hex="0075"/>
  <anchor x="532.83" y="0.0" name="bottom"/>
  <anchor x="972.715" y="0.0" name="ogonek"/>
  <anchor x="532.83" y="976.495" name="top"/>
  <anchor x="1047.015" y="976.495" name="topright"/>
  <outline>
    <contour>
      <point x="281.34" y="976.495" type="line"/>
      <point x="119.525" y="976.495" type="line"/>
      <point x="119.525" y="351.355" type="line" smooth="yes"/>
      <point x="119.525" y="113.15"/>
      <point x="212.59" y="-21.355"/>
      <point x="444.17" y="-21.355" type="curve" smooth="yes"/>
      <point x="641.115" y="-21.355"/>
      <point x="742.35" y="87.03"/>
      <point x="772.91" y="218.63" type="curve"/>
      <point x="808.245" y="218.63" type="line"/>
      <point x="779.255" y="333.56" type="line"/>
      <point x="752.255" y="208.155"/>
      <point x="660.085" y="113.695"/>
      <point x="505.045" y="113.695" type="curve" smooth="yes"/>
      <point x="338.93" y="113.695"/>
      <point x="281.34" y="213.005"/>
      <point x="281.34" y="369.055" type="curve" smooth="yes"/>
    </contour>
    <contour>
      <point x="934.07" y="976.495" type="line"/>
      <point x="772.255" y="976.495" type="line"/>
      <point x="772.255" y="243.795" type="line"/>
      <point x="779.395" y="234.375" type="line"/>
      <point x="772.255" y="0.0" type="line"/>
      <point x="934.07" y="0.0" type="line"/>
    </contour>
  </outline>
</glyph>
<glyph name="v" format="2">
  <advance width="987.67"/>
  <unicode hex="0076"/>
  <anchor x="494.335" y="0.0" name="bottom"/>
  <anchor x="494.335" y="976.495" name="top"/>
  <outline>
    <contour>
      <point x="505.55" y="110.715" type="line"/>
      <point x="482.335" y="110.715" type="line"/>
      <point x="212.05" y="976.495" type="line"/>
      <point x="43.88" y="976.495" type="line"/>
      <point x="360.565" y="0.0" type="line"/>
      <point x="627.32" y="0.0" type="line"/>
      <point x="943.79" y="976.495" type="line"/>
      <point x="775.62" y="976.495" type="line"/>
    </contour>
  </outline>
</glyph>
<glyph name="w" format="2">
  <advance width="1496.595"/>
  <unicode hex="0077"/>
  <anchor x="748.69" y="0.0" name="bottom"/>
  <anchor x="748.69" y="976.495" name="top"/>
  <outline>
    <contour>
      <point x="296.06" y="0.0" type="line"/>
      <point x="544.76" y="0.0" type="line"/>
      <point x="709.605" y="693.985" type="line"/>
      <point x="741.12" y="832.715" type="line"/>
      <point x="756.045" y="832.715" type="line"/>
      <point x="788.345" y="694.2" type="line"/>
      <point x="953.405" y="0.0" type="line"/>
      <point x="1200.535" y="0.0" type="line"/>
      <point x="1440.855" y="976.495" type="line"/>
      <point x="1275.04" y="976.495" type="line"/>
      <point x="1081.12" y="117.78" type="line"/>
      <point x="1063.4" y="117.78" type="line"/>
      <point x="863.115" y="949.85" type="line"/>
      <point x="634.265" y="949.85" type="line"/>
      <point x="433.98" y="117.78" type="line"/>
      <point x="415.475" y="117.78" type="line"/>
      <point x="223.125" y="976.495" type="line"/>
      <point x="55.74" y="976.495" type="line"/>
    </contour>
  </outline>
</glyph>
<glyph name="x" format="2">
  <advance width="974.94"/>
  <unicode hex="0078"/>
  <anchor x="487.97" y="0.0" name="bottom"/>
  <anchor x="487.97" y="976.495" name="top"/>
  <outline>
    <contour>
      <point x="50.6" y="0.0" type="line"/>
      <point x="228.265" y="0.0" type="line"/>
      <point x="481.4" y="424.405" type="line"/>
      <point x="495.325" y="424.405" type="line"/>
      <point x="746.89" y="0.0" type="line"/>
      <point x="924.34" y="0.0" type="line"/>
      <point x="604.03" y="531.195" type="line"/>
      <point x="604.03" y="485.01" type="line"/>
      <point x="917.77" y="976.495" type="line"/>
      <point x="740.32" y="976.495" type="line"/>
      <point x="495.325" y="579.165" type="line"/>
      <point x="481.4" y="579.165" type="line"/>
      <point x="234.835" y="976.495" type="line"/>
      <point x="57.385" y="976.495" type="line"/>
      <point x="371.125" y="484.795" type="line"/>
      <point x="371.125" y="530.98" type="line"/>
    </contour>
  </outline>
</glyph>
<glyph name="y" format="2">
  <advance width="988.455"/>
  <unicode hex="0079"/>
  <anchor x="683.745" y="-70.155" name="bottom"/>
  <anchor x="494.905" y="976.495" name="top"/>
  <outline>
    <contour>
      <point x="571.5" y="151.07" type="line"/>
      <point x="478.41" y="151.07" type="line"/>
      <point x="212.05" y="976.495" type="line"/>
      <point x="43.88" y="976.495" type="line"/>
      <point x="362.92" y="40.355" type="line"/>
      <point x="547.37" y="40.355" type="line"/>
      <point x="476.14" y="101.67" type="line"/>
      <point x="321.57" y="-344.0" type="line"/>
      <point x="485.815" y="-344.0" type="line"/>
      <point x="944.575" y="976.495" type="line"/>
      <point x="777.975" y="976.495" type="line"/>
      <point x="486.205" y="113.81" type="line"/>
    </contour>
  </outline>
</glyph>
<glyph name="z" format="2">
  <advance width="902.97"/>
  <unicode hex="007A"/>
  <anchor x="451.485" y="0.0" name="bottom"/>
  <anchor x="452.485" y="489.14" name="center"/>
  <anchor x="451.485" y="976.495" name="top"/>
  <outline>
    <contour>
      <point x="822.24" y="134.265" type="line"/>
      <point x="274.665" y="134.265" type="line"/>
      <point x="817.67" y="855.435" type="line"/>
      <point x="817.67" y="976.495" type="line"/>
      <point x="83.3" y="976.495" type="line"/>
      <point x="83.3" y="843.23" type="line"/>
      <point x="623.52" y="843.23" type="line"/>
      <point x="80.515" y="122.06" type="line"/>
      <point x="80.515" y="0.0" type="line"/>
      <point x="822.24" y="0.0" type="line"/>
    </contour>
  </outline>
</glyph>
<glyph name="braceleft" format="2">
  <advance width="675.205"/>
  <unicode hex="007B"/>
  <outline>
    <contour>
      <point x="618.98" y="1328.925" type="line"/>
      <point x="575.7" y="1343.14"/>
      <point x="521.775" y="1353.355"/>
      <point x="463.99" y="1353.355" type="curve" smooth="yes"/>
      <point x="289.375" y="1353.355"/>
      <point x="209.105" y="1273.505"/>
      <point x="209.105" y="1089.675" type="curve" smooth="yes"/>
      <point x="209.105" y="1005.73"/>
      <point x="223.535" y="867.01"/>
      <point x="223.535" y="789.065" type="curve" smooth="yes"/>
      <point x="223.535" y="687.69"/>
      <point x="189.32" y="634.035"/>
      <point x="65.87" y="625.745" type="curve"/>
      <point x="65.87" y="487.62" type="line"/>
      <point x="189.32" y="478.115"/>
      <point x="223.535" y="424.245"/>
      <point x="223.535" y="321.655" type="curve" smooth="yes"/>
      <point x="223.535" y="244.925"/>
      <point x="209.105" y="104.775"/>
      <point x="209.105" y="17.83" type="curve" smooth="yes"/>
      <point x="209.105" y="-165.785"/>
      <point x="289.59" y="-246.42"/>
      <point x="463.99" y="-246.42" type="curve" smooth="yes"/>
      <point x="521.775" y="-246.42"/>
      <point x="575.7" y="-236.205"/>
      <point x="618.98" y="-221.775" type="curve"/>
      <point x="618.98" y="-100.64" type="line"/>
      <point x="588.69" y="-111.715"/>
      <point x="550.11" y="-120.78999999999999"/>
      <point x="505.025" y="-120.78999999999999" type="curve" smooth="yes"/>
      <point x="403.865" y="-120.78999999999999"/>
      <point x="363.285" y="-75.78"/>
      <point x="363.285" y="34.175" type="curve" smooth="yes"/>
      <point x="363.285" y="108.55"/>
      <point x="377.5" y="245.13"/>
      <point x="377.5" y="329.935" type="curve" smooth="yes"/>
      <point x="377.5" y="455.01"/>
      <point x="338.995" y="537.58"/>
      <point x="199.565" y="553.935" type="curve"/>
      <point x="206.275" y="543.935" type="line"/>
      <point x="206.275" y="561.215" type="line"/>
      <point x="338.995" y="580.355"/>
      <point x="377.5" y="657.14"/>
      <point x="377.5" y="781.0" type="curve" smooth="yes"/>
      <point x="377.5" y="864.59"/>
      <point x="363.285" y="1000.17"/>
      <point x="363.285" y="1074.33" type="curve" smooth="yes"/>
      <point x="363.285" y="1183.285"/>
      <point x="403.865" y="1228.295"/>
      <point x="503.455" y="1228.295" type="curve" smooth="yes"/>
      <point x="549.325" y="1228.295"/>
      <point x="588.69" y="1219.435"/>
      <point x="618.98" y="1209.145" type="curve"/>
    </contour>
  </outline>
</glyph>
<glyph name="bar" format="2">
  <advance width="486.26"/>
  <unicode hex="007C"/>
  <outline>
    <contour>
      <point x="312.155" y="-436.085" type="line"/>
      <point x="312.155" y="1421.0" type="line"/>
      <point x="174.105" y="1421.0" type="line"/>
      <point x="174.105" y="-436.085" type="line"/>
    </contour>
  </outline>
</glyph>
<glyph name="braceright" format="2">
  <advance width="675.205"/>
  <unicode hex="007D"/>
  <outline>
    <contour>
      <point x="56.225" y="1328.925" type="curve"/>
      <point x="56.225" y="1209.145" type="line"/>
      <point x="86.515" y="1219.435"/>
      <point x="125.88" y="1228.295"/>
      <point x="171.75" y="1228.295" type="curve" smooth="yes"/>
      <point x="271.34" y="1228.295"/>
      <point x="311.92" y="1183.285"/>
      <point x="311.92" y="1074.33" type="curve" smooth="yes"/>
      <point x="311.92" y="1000.17"/>
      <point x="297.705" y="864.59"/>
      <point x="297.705" y="781.0" type="curve" smooth="yes"/>
      <point x="297.705" y="657.14"/>
      <point x="336.21" y="580.355"/>
      <point x="468.93" y="561.215" type="curve"/>
      <point x="468.93" y="543.935" type="line"/>
      <point x="475.64" y="553.935" type="line"/>
      <point x="336.21" y="537.58"/>
      <point x="297.705" y="455.01"/>
      <point x="297.705" y="329.935" type="curve" smooth="yes"/>
      <point x="297.705" y="245.13"/>
      <point x="311.92" y="108.55"/>
      <point x="311.92" y="34.175" type="curve" smooth="yes"/>
      <point x="311.92" y="-75.78"/>
      <point x="271.34" y="-120.78999999999999"/>
      <point x="170.18" y="-120.78999999999999" type="curve" smooth="yes"/>
      <point x="125.095" y="-120.78999999999999"/>
      <point x="86.515" y="-111.715"/>
      <point x="56.225" y="-100.64" type="curve"/>
      <point x="56.225" y="-221.775" type="line"/>
      <point x="99.505" y="-236.205"/>
      <point x="153.43" y="-246.42"/>
      <point x="211.215" y="-246.42" type="curve" smooth="yes"/>
      <point x="385.615" y="-246.42"/>
      <point x="466.1" y="-165.785"/>
      <point x="466.1" y="17.83" type="curve" smooth="yes"/>
      <point x="466.1" y="104.775"/>
      <point x="451.67" y="244.925"/>
      <point x="451.67" y="321.655" type="curve" smooth="yes"/>
      <point x="451.67" y="424.245"/>
      <point x="485.885" y="478.115"/>
      <point x="609.335" y="487.62" type="curve"/>
      <point x="609.335" y="625.745" type="line"/>
      <point x="485.885" y="634.035"/>
      <point x="451.67" y="687.69"/>
      <point x="451.67" y="789.065" type="curve" smooth="yes"/>
      <point x="451.67" y="867.01"/>
      <point x="466.1" y="1005.73"/>
      <point x="466.1" y="1089.675" type="curve" smooth="yes"/>
      <point x="466.1" y="1273.505"/>
      <point x="385.83" y="1353.355"/>
      <point x="211.215" y="1353.355" type="curve" smooth="yes"/>
      <point x="153.43" y="1353.355"/>
      <point x="99.505" y="1343.14"/>
    </contour>
  </outline>
</glyph>
<glyph name="asciitilde" format="2">
  <advance width="1079.915"/>
  <unicode hex="007E"/>
  <outline>
    <contour>
      <point x="746.785" y="479.44" type="curve" smooth="yes"/>
      <point x="896.25" y="479.44"/>
      <point x="954.53" y="566.13"/>
      <point x="954.53" y="718.035" type="curve" smooth="yes"/>
      <point x="954.53" y="753.38" type="line"/>
      <point x="833.395" y="753.38" type="line"/>
      <point x="833.395" y="735.95" type="line" smooth="yes"/>
      <point x="833.395" y="656.855"/>
      <point x="807.31" y="614.705"/>
      <point x="736.58" y="614.705" type="curve" smooth="yes"/>
      <point x="620.775" y="614.705"/>
      <point x="484.27" y="732.52"/>
      <point x="333.345" y="732.52" type="curve" smooth="yes"/>
      <point x="182.88" y="732.52"/>
      <point x="125.385" y="643.475"/>
      <point x="125.385" y="492.71" type="curve" smooth="yes"/>
      <point x="125.385" y="458.365" type="line"/>
      <point x="245.52" y="458.365" type="line"/>
      <point x="245.52" y="475.225" type="line" smooth="yes"/>
      <point x="245.52" y="552.75"/>
      <point x="273.39" y="596.685"/>
      <point x="342.55" y="596.685" type="curve" smooth="yes"/>
      <point x="459.71" y="596.685"/>
      <point x="595.57" y="479.44"/>
    </contour>
  </outline>
</glyph>
<glyph name="exclamdown" format="2">
  <advance width="463.25"/>
  <unicode hex="00A1"/>
  <outline>
    <contour>
      <point x="299.22" y="583.095" type="line"/>
      <point x="164.03" y="583.095" type="line"/>
      <point x="144.685" y="-301.505" type="line"/>
      <point x="318.35" y="-301.505" type="line"/>
    </contour>
    <contour>
      <point x="231.41" y="995.56" type="curve" smooth="yes"/>
      <point x="162.59" y="995.56"/>
      <point x="130.32" y="956.15"/>
      <point x="130.32" y="886.75" type="curve" smooth="yes"/>
      <point x="130.32" y="876.75" type="line" smooth="yes"/>
      <point x="130.32" y="808.35"/>
      <point x="162.59" y="769.155"/>
      <point x="231.41" y="769.155" type="curve" smooth="yes"/>
      <point x="299.875" y="769.155"/>
      <point x="332.93" y="808.35"/>
      <point x="332.93" y="876.75" type="curve" smooth="yes"/>
      <point x="332.93" y="886.75" type="line" smooth="yes"/>
      <point x="332.93" y="956.15"/>
      <point x="299.875" y="995.56"/>
    </contour>
  </outline>
</glyph>
<glyph name="cent" format="2">
  <advance width="868.485"/>
  <unicode hex="00A2"/>
  <anchor x="482.7" y="0.0" name="bottom"/>
  <anchor x="482.7" y="976.495" name="top"/>
  <outline>
    <contour>
      <point x="569.715" y="935.675" type="line"/>
      <point x="569.715" y="1189.505" type="line"/>
      <point x="430.31" y="1189.505" type="line"/>
      <point x="430.31" y="935.675" type="line"/>
    </contour>
    <contour>
      <point x="569.715" y="-217.01" type="line"/>
      <point x="569.715" y="61.230000000000004" type="line"/>
      <point x="430.31" y="61.230000000000004" type="line"/>
      <point x="430.31" y="-217.01" type="line"/>
    </contour>
    <component base="c"/>
  </outline>
</glyph>
<glyph name="sterling" format="2">
  <advance width="1073.99"/>
  <unicode hex="00A3"/>
  <outline>
    <contour>
      <point x="81.87" y="591.61" type="line"/>
      <point x="898.045" y="591.61" type="line"/>
      <point x="907.97" y="718.24" type="line"/>
      <point x="92.01" y="718.24" type="line"/>
    </contour>
    <contour>
      <point x="283.395" y="140.975" type="line"/>
      <point x="285.545" y="147.32" type="line"/>
      <point x="391.48" y="196.04"/>
      <point x="448.34" y="279.63"/>
      <point x="448.34" y="446.78" type="curve" smooth="yes"/>
      <point x="448.34" y="601.83"/>
      <point x="379.62" y="763.335"/>
      <point x="379.62" y="919.17" type="curve" smooth="yes"/>
      <point x="379.62" y="1079.715"/>
      <point x="466.865" y="1158.735"/>
      <point x="662.165" y="1158.735" type="curve" smooth="yes"/>
      <point x="759.53" y="1158.735"/>
      <point x="852.895" y="1140.09"/>
      <point x="945.185" y="1101.585" type="curve"/>
      <point x="931.55" y="1242.85" type="line"/>
      <point x="848.84" y="1276.85"/>
      <point x="737.485" y="1300.71"/>
      <point x="627.27" y="1300.71" type="curve" smooth="yes"/>
      <point x="341.59" y="1300.71"/>
      <point x="207.955" y="1180.215"/>
      <point x="207.955" y="938.58" type="curve" smooth="yes"/>
      <point x="207.955" y="764.325"/>
      <point x="280.03" y="598.97"/>
      <point x="279.03" y="433.79" type="curve" smooth="yes"/>
      <point x="278.815" y="273.555"/>
      <point x="232.515" y="176.835"/>
      <point x="117.01" y="145.54500000000002" type="curve" smooth="yes"/>
      <point x="87.655" y="137.54500000000002" type="line"/>
      <point x="87.655" y="0.0" type="line"/>
      <point x="1007.12" y="0.0" type="line"/>
      <point x="1007.12" y="140.975" type="line"/>
    </contour>
  </outline>
</glyph>
<glyph name="currency" format="2">
  <advance width="1013.715"/>
  <unicode hex="00A4"/>
  <outline>
    <contour>
      <point x="506.465" y="243.88" type="curve" smooth="yes"/>
      <point x="737.08" y="243.88"/>
      <point x="863.64" y="368.87"/>
      <point x="863.64" y="595.355" type="curve" smooth="yes"/>
      <point x="863.64" y="642.44" type="line" smooth="yes"/>
      <point x="863.64" y="867.925"/>
      <point x="738.08" y="992.7"/>
      <point x="507.465" y="992.7" type="curve" smooth="yes"/>
      <point x="276.85" y="992.7"/>
      <point x="150.29" y="867.925"/>
      <point x="150.29" y="642.44" type="curve" smooth="yes"/>
      <point x="150.29" y="595.355" type="line" smooth="yes"/>
      <point x="150.29" y="368.87"/>
      <point x="275.85" y="243.88"/>
    </contour>
    <contour>
      <point x="507.465" y="367.37" type="curve" smooth="yes"/>
      <point x="370.285" y="367.37"/>
      <point x="295.62" y="445.605"/>
      <point x="295.62" y="593.0" type="curve" smooth="yes"/>
      <point x="295.62" y="644.795" type="line" smooth="yes"/>
      <point x="295.62" y="791.975"/>
      <point x="370.285" y="869.21"/>
      <point x="507.465" y="869.21" type="curve" smooth="yes"/>
      <point x="643.43" y="869.21"/>
      <point x="717.525" y="791.975"/>
      <point x="717.525" y="644.795" type="curve" smooth="yes"/>
      <point x="718.31" y="593.0" type="line" smooth="yes"/>
      <point x="718.31" y="445.605"/>
      <point x="643.43" y="367.37"/>
    </contour>
    <contour>
      <point x="759.435" y="410.885" type="line"/>
      <point x="668.065" y="329.01" type="line"/>
      <point x="848.26" y="125.095" type="line"/>
      <point x="940.985" y="203.4" type="line"/>
    </contour>
    <contour>
      <point x="345.65" y="329.225" type="line"/>
      <point x="257.85" y="412.885" type="line"/>
      <point x="73.515" y="203.4" type="line"/>
      <point x="166.455" y="125.095" type="line"/>
    </contour>
    <contour>
      <point x="248.57" y="829.835" type="line"/>
      <point x="343.08" y="907.355" type="line"/>
      <point x="165.455" y="1108.915" type="line"/>
      <point x="73.515" y="1029.825" type="line"/>
    </contour>
    <contour>
      <point x="668.065" y="903.0" type="line"/>
      <point x="758.865" y="820.77" type="line"/>
      <point x="940.2" y="1029.825" type="line"/>
      <point x="848.26" y="1108.915" type="line"/>
    </contour>
  </outline>
</glyph>
<glyph name="yen" format="2">
  <advance width="1121.82"/>
  <unicode hex="00A5"/>
  <anchor x="558.98" y="0.0" name="bottom"/>
  <anchor x="558.98" y="1278.0" name="top"/>
  <anchor x="32.01" y="1278.0" name="topleft"/>
  <outline>
    <contour>
      <point x="644.28" y="552.125" type="line"/>
      <point x="996.38" y="552.125" type="line"/>
      <point x="1008.875" y="673.83" type="line"/>
      <point x="675.41" y="673.83" type="line"/>
    </contour>
    <contour>
      <point x="128.01" y="371.455" type="line"/>
      <point x="115.515" y="250.535" type="line"/>
      <point x="996.38" y="250.535" type="line"/>
      <point x="1008.875" y="371.455" type="line"/>
    </contour>
    <contour>
      <point x="442.41" y="673.83" type="line"/>
      <point x="128.01" y="673.83" type="line"/>
      <point x="115.515" y="552.125" type="line"/>
      <point x="474.54" y="552.125" type="line"/>
    </contour>
    <component base="Y" xOffset="10.72"/>
  </outline>
</glyph>
<glyph name="brokenbar" format="2">
  <advance width="486.26"/>
  <unicode hex="00A6"/>
  <outline>
    <contour>
      <point x="312.155" y="588.72" type="line"/>
      <point x="312.155" y="1421.0" type="line"/>
      <point x="174.105" y="1421.0" type="line"/>
      <point x="174.105" y="588.72" type="line"/>
    </contour>
    <contour>
      <point x="312.155" y="-436.085" type="line"/>
      <point x="312.155" y="401.335" type="line"/>
      <point x="174.105" y="401.335" type="line"/>
      <point x="174.105" y="-436.085" type="line"/>
    </contour>
  </outline>
</glyph>
<glyph name="section" format="2">
  <advance width="948.055"/>
  <unicode hex="00A7"/>
  <outline>
    <contour>
      <point x="553.075" y="406.95" type="curve"/>
      <point x="662.445" y="357.4" type="line"/>
      <point x="661.66" y="387.175" type="line"/>
      <point x="775.455" y="406.97"/>
      <point x="842.315" y="491.055"/>
      <point x="842.315" y="599.625" type="curve" smooth="yes"/>
      <point x="842.315" y="606.055" type="line" smooth="yes"/>
      <point x="842.315" y="764.045"/>
      <point x="755.54" y="823.84"/>
      <point x="508.39" y="880.335" type="curve" smooth="yes"/>
      <point x="316.145" y="923.765"/>
      <point x="262.845" y="959.71"/>
      <point x="262.845" y="1036.6" type="curve" smooth="yes"/>
      <point x="262.845" y="1045.955" type="line" smooth="yes"/>
      <point x="262.845" y="1122.78"/>
      <point x="322.015" y="1166.8"/>
      <point x="472.905" y="1166.8" type="curve" smooth="yes"/>
      <point x="611.98" y="1166.8"/>
      <point x="721.4" y="1128.51"/>
      <point x="808.895" y="1078.36" type="curve"/>
      <point x="793.475" y="1215.13" type="line"/>
      <point x="721.84" y="1259.205"/>
      <point x="609.56" y="1299.71"/>
      <point x="457.42" y="1299.71" type="curve" smooth="yes"/>
      <point x="221.73" y="1299.71"/>
      <point x="103.385" y="1213.505"/>
      <point x="103.385" y="1049.095" type="curve" smooth="yes"/>
      <point x="103.385" y="1038.955" type="line" smooth="yes"/>
      <point x="103.385" y="900.535"/>
      <point x="181.955" y="818.62"/>
      <point x="426.385" y="767.265" type="curve" smooth="yes"/>
      <point x="633.275" y="723.975"/>
      <point x="687.565" y="685.88"/>
      <point x="687.565" y="577.365" type="curve" smooth="yes"/>
      <point x="687.565" y="570.58" type="line" smooth="yes"/>
      <point x="687.565" y="499.055"/>
      <point x="642.975" y="432.025"/>
    </contour>
    <contour>
      <point x="389.27" y="788.845" type="curve"/>
      <point x="283.04" y="829.9" type="line"/>
      <point x="283.825" y="802.34" type="line"/>
      <point x="167.105" y="774.695"/>
      <point x="103.385" y="701.6"/>
      <point x="103.385" y="591.46" type="curve" smooth="yes"/>
      <point x="103.385" y="584.245" type="line" smooth="yes"/>
      <point x="103.385" y="444.31"/>
      <point x="187.45" y="371.88"/>
      <point x="426.6" y="313.89" type="curve" smooth="yes"/>
      <point x="629.35" y="265.535"/>
      <point x="682.855" y="231.655"/>
      <point x="682.855" y="146.475" type="curve" smooth="yes"/>
      <point x="682.855" y="137.335" type="line" smooth="yes"/>
      <point x="682.855" y="51.144999999999996"/>
      <point x="607.04" y="6.125"/>
      <point x="457.365" y="6.125" type="curve" smooth="yes"/>
      <point x="310.58" y="6.125"/>
      <point x="196.73" y="48.34"/>
      <point x="100.59" y="100.275" type="curve"/>
      <point x="116.01" y="-49.485" type="line"/>
      <point x="192.86" y="-89.775"/>
      <point x="308.785" y="-130.925"/>
      <point x="465.57" y="-130.925" type="curve" smooth="yes"/>
      <point x="714.25" y="-130.925"/>
      <point x="842.315" y="-40.29"/>
      <point x="842.315" y="133.41" type="curve" smooth="yes"/>
      <point x="842.315" y="147.26" type="line" smooth="yes"/>
      <point x="842.315" y="303.54"/>
      <point x="755.755" y="368.54"/>
      <point x="508.605" y="426.96" type="curve" smooth="yes"/>
      <point x="312.005" y="473.315"/>
      <point x="258.135" y="515.26"/>
      <point x="258.135" y="620.785" type="curve" smooth="yes"/>
      <point x="258.135" y="629.14" type="line"/>
      <point x="258.135" y="704.59"/>
      <point x="304.295" y="763.77"/>
    </contour>
  </outline>
</glyph>
<glyph name="copyright" format="2">
  <advance width="1389.4"/>
  <unicode hex="00A9"/>
  <outline>
    <contour>
      <point x="694.7" y="-24.28" type="curve" smooth="yes"/>
      <point x="1070.25" y="-24.28"/>
      <point x="1285.165" y="189.0"/>
      <point x="1285.165" y="558.84" type="curve" smooth="yes"/>
      <point x="1285.165" y="723.87" type="line" smooth="yes"/>
      <point x="1285.165" y="1091.355"/>
      <point x="1070.25" y="1302.28"/>
      <point x="694.7" y="1302.28" type="curve" smooth="yes"/>
      <point x="318.365" y="1302.28"/>
      <point x="104.235" y="1091.355"/>
      <point x="104.235" y="723.87" type="curve" smooth="yes"/>
      <point x="104.235" y="558.84" type="line" smooth="yes"/>
      <point x="104.235" y="189.0"/>
      <point x="318.365" y="-24.28"/>
    </contour>
    <contour>
      <point x="732.12" y="311.43" type="curve" smooth="yes"/>
      <point x="820.7" y="311.43"/>
      <point x="884.055" y="339.15"/>
      <point x="923.195" y="368.225" type="curve"/>
      <point x="931.905" y="467.885" type="line"/>
      <point x="887.905" y="435.165"/>
      <point x="832.83" y="409.015"/>
      <point x="752.96" y="409.015" type="curve" smooth="yes"/>
      <point x="632.51" y="409.015"/>
      <point x="574.285" y="476.82"/>
      <point x="574.285" y="598.925" type="curve" smooth="yes"/>
      <point x="574.285" y="687.0" type="line" smooth="yes"/>
      <point x="574.285" y="808.32"/>
      <point x="630.37" y="874.91"/>
      <point x="749.39" y="874.91" type="curve" smooth="yes"/>
      <point x="828.615" y="874.91"/>
      <point x="882.905" y="848.975"/>
      <point x="926.905" y="816.255" type="curve"/>
      <point x="917.41" y="915.13" type="line"/>
      <point x="880.485" y="942.99"/>
      <point x="817.915" y="970.14"/>
      <point x="732.335" y="970.14" type="curve" smooth="yes"/>
      <point x="549.85" y="970.14"/>
      <point x="461.355" y="867.785"/>
      <point x="461.355" y="684.43" type="curve" smooth="yes"/>
      <point x="461.355" y="598.71" type="line" smooth="yes"/>
      <point x="461.355" y="414.57"/>
      <point x="548.85" y="311.43"/>
    </contour>
    <contour>
      <point x="694.7" y="69.95" type="curve" smooth="yes"/>
      <point x="396.1" y="69.95"/>
      <point x="215.81" y="244.325"/>
      <point x="215.81" y="550.99" type="curve" smooth="yes"/>
      <point x="215.81" y="731.935" type="line" smooth="yes"/>
      <point x="215.81" y="1036.03"/>
      <point x="396.1" y="1208.05"/>
      <point x="694.7" y="1208.05" type="curve" smooth="yes"/>
      <point x="992.515" y="1208.05"/>
      <point x="1173.59" y="1036.03"/>
      <point x="1173.59" y="731.935" type="curve" smooth="yes"/>
      <point x="1173.59" y="550.99" type="line" smooth="yes"/>
      <point x="1173.59" y="244.325"/>
      <point x="992.515" y="69.95"/>
    </contour>
  </outline>
</glyph>
<glyph name="ordfeminine" format="2">
  <advance width="664.785"/>
  <unicode hex="00AA"/>
  <outline>
    <contour>
      <point x="453.545" y="642.43" type="line"/>
      <point x="570.185" y="642.43" type="line"/>
      <point x="570.185" y="1057.3" type="line" smooth="yes"/>
      <point x="570.185" y="1195.375"/>
      <point x="508.11" y="1292.0"/>
      <point x="327.075" y="1292.0" type="curve" smooth="yes"/>
      <point x="229.0" y="1292.0"/>
      <point x="152.645" y="1261.065"/>
      <point x="101.44" y="1229.635" type="curve"/>
      <point x="91.375" y="1127.695" type="line"/>
      <point x="149.01" y="1161.985"/>
      <point x="222.87" y="1194.06"/>
      <point x="308.59" y="1194.06" type="curve" smooth="yes"/>
      <point x="414.675" y="1194.06"/>
      <point x="456.685" y="1145.9"/>
      <point x="456.685" y="1059.655" type="curve"/>
      <point x="456.685" y="1004.225" type="line"/>
      <point x="456.685" y="801.43" type="line"/>
      <point x="458.9" y="791.935" type="line"/>
    </contour>
    <contour>
      <point x="257.525" y="629.645" type="curve" smooth="yes"/>
      <point x="380.47" y="629.645"/>
      <point x="434.135" y="690.88"/>
      <point x="455.125" y="771.04" type="curve"/>
      <point x="475.9" y="771.04" type="line"/>
      <point x="459.685" y="851.205" type="line"/>
      <point x="443.115" y="781.465"/>
      <point x="382.46" y="728.37"/>
      <point x="296.71" y="728.37" type="curve" smooth="yes"/>
      <point x="219.68" y="728.37"/>
      <point x="183.52" y="764.53"/>
      <point x="183.52" y="824.27" type="curve" smooth="yes"/>
      <point x="183.52" y="835.915" type="line" smooth="yes"/>
      <point x="183.52" y="895.58"/>
      <point x="217.1" y="924.525"/>
      <point x="305.785" y="938.46" type="curve" smooth="yes"/>
      <point x="479.675" y="964.965" type="line"/>
      <point x="472.18" y="1050.13" type="line"/>
      <point x="280.16" y="1020.84" type="line" smooth="yes"/>
      <point x="129.515" y="997.625"/>
      <point x="66.095" y="942.195"/>
      <point x="66.095" y="828.635" type="curve" smooth="yes"/>
      <point x="66.095" y="813.635" type="line" smooth="yes"/>
      <point x="66.095" y="695.355"/>
      <point x="133.74" y="629.645"/>
    </contour>
  </outline>
</glyph>
<glyph name="logicalnot" format="2">
  <advance width="1019.29"/>
  <unicode hex="00AC"/>
  <outline>
    <contour>
      <point x="897.905" y="200.795" type="line"/>
      <point x="897.905" y="636.345" type="line"/>
      <point x="760.07" y="636.345" type="line"/>
      <point x="760.07" y="200.795" type="line"/>
    </contour>
    <contour>
      <point x="103.515" y="556.975" type="line"/>
      <point x="897.905" y="556.975" type="line"/>
      <point x="897.905" y="687.53" type="line"/>
      <point x="103.515" y="687.53" type="line"/>
    </contour>
  </outline>
</glyph>
<glyph name="registered" format="2">
  <advance width="830.635"/>
  <unicode hex="00AE"/>
  <outline>
    <contour>
      <point x="415.71" y="542.955" type="curve" smooth="yes"/>
      <point x="636.55" y="542.955"/>
      <point x="761.755" y="666.16"/>
      <point x="761.755" y="879.01" type="curve" smooth="yes"/>
      <point x="761.755" y="960.3" type="line" smooth="yes"/>
      <point x="761.755" y="1173.365"/>
      <point x="636.55" y="1296.355"/>
      <point x="415.71" y="1296.355" type="curve" smooth="yes"/>
      <point x="194.085" y="1296.355"/>
      <point x="68.88" y="1173.365"/>
      <point x="68.88" y="960.3" type="curve" smooth="yes"/>
      <point x="68.88" y="879.01" type="line" smooth="yes"/>
      <point x="68.88" y="666.16"/>
      <point x="194.085" y="542.955"/>
    </contour>
    <contour>
      <point x="415.71" y="608.495" type="curve" smooth="yes"/>
      <point x="237.42" y="608.495"/>
      <point x="143.7" y="700.57"/>
      <point x="143.7" y="876.655" type="curve" smooth="yes"/>
      <point x="143.7" y="963.44" type="line" smooth="yes"/>
      <point x="143.7" y="1138.74"/>
      <point x="237.42" y="1230.6"/>
      <point x="415.71" y="1230.6" type="curve" smooth="yes"/>
      <point x="593.215" y="1230.6"/>
      <point x="686.15" y="1138.74"/>
      <point x="686.15" y="963.44" type="curve" smooth="yes"/>
      <point x="686.15" y="876.655" type="line" smooth="yes"/>
      <point x="686.15" y="700.57"/>
      <point x="593.215" y="608.495"/>
    </contour>
    <contour>
      <point x="502.375" y="734.15" type="line"/>
      <point x="574.84" y="734.15" type="line"/>
      <point x="561.41" y="810.795" type="line" smooth="yes"/>
      <point x="550.195" y="875.58"/>
      <point x="532.195" y="906.44"/>
      <point x="468.195" y="912.01" type="curve"/>
      <point x="481.905" y="903.225" type="line"/>
      <point x="482.765" y="911.935" type="line"/>
      <point x="541.485" y="917.505"/>
      <point x="567.27" y="950.01"/>
      <point x="567.27" y="1000.795" type="curve" smooth="yes"/>
      <point x="567.27" y="1009.085" type="line" smooth="yes"/>
      <point x="567.27" y="1080.58"/>
      <point x="528.345" y="1117.365"/>
      <point x="442.14" y="1117.365" type="curve" smooth="yes"/>
      <point x="331.345" y="1117.365" type="line"/>
      <point x="331.345" y="1060.105" type="line"/>
      <point x="433.29" y="1060.105" type="line" smooth="yes"/>
      <point x="478.73" y="1060.105"/>
      <point x="496.59" y="1036.955"/>
      <point x="496.59" y="1000.02" type="curve" smooth="yes"/>
      <point x="496.59" y="990.16" type="line" smooth="yes"/>
      <point x="496.59" y="951.01"/>
      <point x="477.515" y="929.075"/>
      <point x="432.72" y="929.075" type="curve" smooth="yes"/>
      <point x="332.56" y="929.075" type="line"/>
      <point x="332.56" y="872.6" type="line"/>
      <point x="418.29" y="872.6" type="line" smooth="yes"/>
      <point x="464.01" y="872.6"/>
      <point x="483.085" y="854.955"/>
      <point x="491.73" y="801.73" type="curve" smooth="yes"/>
    </contour>
    <contour>
      <point x="285.225" y="734.15" type="line"/>
      <point x="355.12" y="734.15" type="line"/>
      <point x="355.12" y="886.095" type="line"/>
      <point x="355.12" y="909.87" type="line"/>
      <point x="355.12" y="1117.365" type="line"/>
      <point x="285.225" y="1117.365" type="line"/>
    </contour>
  </outline>
</glyph>
<glyph name="degree" format="2">
  <advance width="654.345"/>
  <unicode hex="00B0"/>
  <outline>
    <contour>
      <point x="327.065" y="786.32" type="curve" smooth="yes"/>
      <point x="483.83" y="786.32"/>
      <point x="571.82" y="881.815"/>
      <point x="571.82" y="1038.73" type="curve" smooth="yes"/>
      <point x="571.82" y="1050.87" type="line" smooth="yes"/>
      <point x="571.82" y="1207.0"/>
      <point x="483.83" y="1302.28"/>
      <point x="327.065" y="1302.28" type="curve" smooth="yes"/>
      <point x="170.515" y="1302.28"/>
      <point x="82.525" y="1207.0"/>
      <point x="82.525" y="1050.87" type="curve" smooth="yes"/>
      <point x="82.525" y="1038.73" type="line" smooth="yes"/>
      <point x="82.525" y="881.815"/>
      <point x="170.515" y="786.32"/>
    </contour>
    <contour>
      <point x="327.065" y="893.895" type="curve" smooth="yes"/>
      <point x="247.465" y="893.895"/>
      <point x="204.875" y="947.915"/>
      <point x="204.875" y="1037.73" type="curve" smooth="yes"/>
      <point x="204.875" y="1051.085" type="line" smooth="yes"/>
      <point x="204.875" y="1140.9"/>
      <point x="247.465" y="1194.705"/>
      <point x="327.065" y="1194.705" type="curve" smooth="yes"/>
      <point x="407.665" y="1194.705"/>
      <point x="449.255" y="1140.9"/>
      <point x="449.255" y="1051.085" type="curve" smooth="yes"/>
      <point x="449.255" y="1037.73" type="line" smooth="yes"/>
      <point x="449.255" y="947.915"/>
      <point x="407.665" y="893.895"/>
    </contour>
  </outline>
</glyph>
<glyph name="plusminus" format="2">
  <advance width="1031.645"/>
  <unicode hex="00B1"/>
  <outline>
    <contour>
      <point x="119.02" y="145.695" type="line"/>
      <point x="912.625" y="145.695" type="line"/>
      <point x="912.625" y="275.25" type="line"/>
      <point x="119.02" y="275.25" type="line"/>
    </contour>
    <contour>
      <point x="585.24" y="403.85" type="line"/>
      <point x="585.24" y="1093.055" type="line"/>
      <point x="446.405" y="1093.055" type="line"/>
      <point x="446.405" y="403.85" type="line"/>
    </contour>
    <contour>
      <point x="119.02" y="683.675" type="line"/>
      <point x="912.625" y="683.675" type="line"/>
      <point x="912.625" y="813.23" type="line"/>
      <point x="119.02" y="813.23" type="line"/>
    </contour>
  </outline>
</glyph>
<glyph name="twosuperior" format="2">
  <advance width="591.28"/>
  <unicode hex="00B2"/>
  <outline>
    <contour>
      <point x="40.87" y="725.785" type="line"/>
      <point x="544.765" y="725.785" type="line"/>
      <point x="544.765" y="828.435" type="line"/>
      <point x="152.79" y="828.435" type="line"/>
      <point x="206.825" y="808.23" type="line"/>
      <point x="206.825" y="834.575" type="line"/>
      <point x="343.09" y="938.69" type="line" smooth="yes"/>
      <point x="463.035" y="1032.205"/>
      <point x="534.26" y="1103.495"/>
      <point x="534.26" y="1213.43" type="curve" smooth="yes"/>
      <point x="534.26" y="1223.785" type="line" smooth="yes"/>
      <point x="534.26" y="1346.215"/>
      <point x="447.055" y="1417.71"/>
      <point x="284.075" y="1417.71" type="curve" smooth="yes"/>
      <point x="197.43" y="1417.71"/>
      <point x="110.645" y="1392.13"/>
      <point x="58.505" y="1362.625" type="curve"/>
      <point x="48.225" y="1257.76" type="line"/>
      <point x="110.73" y="1288.415"/>
      <point x="181.665" y="1314.275"/>
      <point x="266.02" y="1314.275" type="curve" smooth="yes"/>
      <point x="364.965" y="1314.275"/>
      <point x="408.985" y="1278.19"/>
      <point x="408.985" y="1211.225" type="curve" smooth="yes"/>
      <point x="408.985" y="1204.225" type="line" smooth="yes"/>
      <point x="408.985" y="1129.765"/>
      <point x="347.48" y="1073.69"/>
      <point x="245.805" y="993.52" type="curve" smooth="yes"/>
      <point x="40.87" y="831.94" type="line"/>
    </contour>
  </outline>
</glyph>
<glyph name="threesuperior" format="2">
  <advance width="615.925"/>
  <unicode hex="00B3"/>
  <outline>
    <contour>
      <point x="281.935" y="711.075" type="curve" smooth="yes"/>
      <point x="476.28" y="711.075"/>
      <point x="560.195" y="795.29"/>
      <point x="560.195" y="908.85" type="curve" smooth="yes"/>
      <point x="560.195" y="919.14" type="line" smooth="yes"/>
      <point x="560.195" y="1011.355"/>
      <point x="513.905" y="1064.15"/>
      <point x="409.95" y="1079.57" type="curve"/>
      <point x="412.585" y="1070.29" type="line"/>
      <point x="413.875" y="1082.85" type="line"/>
      <point x="511.905" y="1095.27"/>
      <point x="554.765" y="1151.43"/>
      <point x="554.765" y="1229.785" type="curve" smooth="yes"/>
      <point x="554.765" y="1238.29" type="line" smooth="yes"/>
      <point x="554.765" y="1352.925"/>
      <point x="468.85" y="1416.71"/>
      <point x="290.365" y="1416.71" type="curve" smooth="yes"/>
      <point x="188.43" y="1416.71"/>
      <point x="109.43" y="1392.42"/>
      <point x="59.58" y="1365.635" type="curve"/>
      <point x="48.515" y="1267.05" type="line"/>
      <point x="102.515" y="1291.555"/>
      <point x="179.655" y="1317.2"/>
      <point x="274.02" y="1317.2" type="curve" smooth="yes"/>
      <point x="390.825" y="1317.2"/>
      <point x="430.06" y="1282.47"/>
      <point x="430.06" y="1222.945" type="curve" smooth="yes"/>
      <point x="430.06" y="1215.655" type="line" smooth="yes"/>
      <point x="430.06" y="1155.635"/>
      <point x="386.835" y="1121.615"/>
      <point x="278.31" y="1119.83" type="curve" smooth="yes"/>
      <point x="145.665" y="1117.26" type="line"/>
      <point x="145.665" y="1027.815" type="line"/>
      <point x="279.17" y="1025.245" type="line" smooth="yes"/>
      <point x="393.975" y="1023.46"/>
      <point x="433.92" y="989.235"/>
      <point x="433.92" y="926.42" type="curve" smooth="yes"/>
      <point x="433.92" y="919.7" type="line" smooth="yes"/>
      <point x="433.92" y="857.53"/>
      <point x="394.47" y="812.94"/>
      <point x="265.88" y="812.94" type="curve" smooth="yes"/>
      <point x="179.73" y="812.94"/>
      <point x="99.44" y="836.8"/>
      <point x="44.3" y="861.445" type="curve"/>
      <point x="55.365" y="755.58" type="line"/>
      <point x="99.86" y="735.58"/>
      <point x="184.14" y="711.075"/>
    </contour>
  </outline>
</glyph>
<glyph name="micro" format="2">
  <advance width="1079.67"/>
  <unicode hex="00B5"/>
  <outline>
    <contour>
      <point x="947.5" y="976.495" type="line"/>
      <point x="785.685" y="976.495" type="line"/>
      <point x="785.685" y="243.795" type="line"/>
      <point x="792.825" y="234.375" type="line"/>
      <point x="785.685" y="0.0" type="line"/>
      <point x="947.5" y="0.0" type="line"/>
    </contour>
    <contour>
      <point x="293.985" y="375.54" type="curve" smooth="yes"/>
      <point x="293.985" y="976.495" type="line"/>
      <point x="132.17" y="976.495" type="line"/>
      <point x="132.17" y="-344.0" type="line"/>
      <point x="290.845" y="-344.0" type="line"/>
      <point x="290.845" y="-184.815" type="line"/>
      <point x="280.135" y="140.78" type="line"/>
      <point x="285.77" y="140.995" type="line"/>
      <point x="318.265" y="43.62"/>
      <point x="388.135" y="-20.57"/>
      <point x="524.27" y="-20.57" type="curve" smooth="yes"/>
      <point x="676.74" y="-20.57"/>
      <point x="759.92" y="75.255"/>
      <point x="786.34" y="214.70499999999998" type="curve"/>
      <point x="820.89" y="214.70499999999998" type="line"/>
      <point x="791.9" y="335.13" type="line"/>
      <point x="766.9" y="209.725"/>
      <point x="675.515" y="115.265"/>
      <point x="532.55" y="115.265" type="curve" smooth="yes"/>
      <point x="368.94" y="115.265"/>
      <point x="293.985" y="212.22"/>
    </contour>
  </outline>
</glyph>
<glyph name="paragraph" format="2">
  <advance width="726.285"/>
  <unicode hex="00B6"/>
  <outline>
    <contour>
      <point x="366.42" y="659.515" type="curve"/>
      <point x="456.485" y="659.515" type="line"/>
      <point x="455.485" y="1278.0" type="line"/>
      <point x="366.205" y="1278.0" type="line" smooth="yes"/>
      <point x="172.515" y="1278.0"/>
      <point x="83.31" y="1172.0"/>
      <point x="83.31" y="995.3" type="curve" smooth="yes"/>
      <point x="83.31" y="943.43" type="line" smooth="yes"/>
      <point x="83.31" y="765.73"/>
      <point x="172.515" y="659.515"/>
    </contour>
    <contour>
      <point x="575.04" y="0.0" type="line"/>
      <point x="575.04" y="1278.0" type="line"/>
      <point x="413.58" y="1278.0" type="line"/>
      <point x="413.58" y="0.0" type="line"/>
    </contour>
  </outline>
</glyph>
<glyph name="onesuperior" format="2">
  <advance width="424.27"/>
  <unicode hex="00B9"/>
  <outline>
    <contour>
      <point x="219.18" y="725.785" type="line"/>
      <point x="337.96" y="725.785" type="line"/>
      <point x="337.96" y="1403.785" type="line"/>
      <point x="221.665" y="1403.785" type="line"/>
      <point x="34.365" y="1293.335" type="line"/>
      <point x="30.225" y="1177.05" type="line"/>
      <point x="211.61" y="1281.295" type="line"/>
      <point x="219.18" y="1281.295" type="line"/>
    </contour>
  </outline>
</glyph>
<glyph name="ordmasculine" format="2">
  <advance width="692.495"/>
  <unicode hex="00BA"/>
  <outline>
    <contour>
      <point x="346.355" y="629.645" type="curve" smooth="yes"/>
      <point x="526.195" y="629.645"/>
      <point x="623.615" y="731.14"/>
      <point x="623.615" y="919.99" type="curve" smooth="yes"/>
      <point x="623.615" y="1003.87" type="line" smooth="yes"/>
      <point x="623.615" y="1191.935"/>
      <point x="526.98" y="1293.215"/>
      <point x="346.355" y="1293.215" type="curve" smooth="yes"/>
      <point x="166.515" y="1293.215"/>
      <point x="68.88" y="1191.935"/>
      <point x="68.88" y="1003.87" type="curve" smooth="yes"/>
      <point x="68.88" y="919.99" type="line" smooth="yes"/>
      <point x="68.88" y="731.14"/>
      <point x="166.3" y="629.645"/>
    </contour>
    <contour>
      <point x="346.355" y="729.155" type="curve" smooth="yes"/>
      <point x="244.25" y="729.155"/>
      <point x="191.23" y="793.96"/>
      <point x="191.23" y="914.28" type="curve" smooth="yes"/>
      <point x="191.23" y="1010.365" type="line" smooth="yes"/>
      <point x="191.23" y="1129.9"/>
      <point x="244.25" y="1193.705"/>
      <point x="346.355" y="1193.705" type="curve" smooth="yes"/>
      <point x="448.46" y="1193.705"/>
      <point x="501.265" y="1130.115"/>
      <point x="501.265" y="1010.365" type="curve" smooth="yes"/>
      <point x="501.265" y="914.28" type="line" smooth="yes"/>
      <point x="501.265" y="792.96"/>
      <point x="447.46" y="729.155"/>
    </contour>
  </outline>
</glyph>
<glyph name="guillemetright" format="2">
  <advance width="990.185"/>
  <unicode hex="00BB"/>
  <outline>
    <contour>
      <point x="342.705" y="488.71" type="line"/>
      <point x="50.03" y="90.795" type="line"/>
      <point x="210.64" y="90.795" type="line"/>
      <point x="491.67" y="467.355" type="line"/>
      <point x="491.67" y="510.065" type="line"/>
      <point x="210.64" y="881.915" type="line"/>
      <point x="50.03" y="881.915" type="line"/>
    </contour>
    <contour>
      <point x="767.19" y="488.71" type="line"/>
      <point x="474.515" y="90.795" type="line"/>
      <point x="635.125" y="90.795" type="line"/>
      <point x="916.155" y="467.355" type="line"/>
      <point x="916.155" y="510.065" type="line"/>
      <point x="635.125" y="881.915" type="line"/>
      <point x="474.515" y="881.915" type="line"/>
    </contour>
  </outline>
</glyph>
<glyph name="questiondown" format="2">
  <advance width="892.97"/>
  <unicode hex="00BF"/>
  <outline>
    <contour>
      <point x="615.585" y="587.215" type="line"/>
      <point x="508.83" y="563.29" type="line" smooth="yes"/>
      <point x="229.72" y="500.215"/>
      <point x="88.955" y="383.57"/>
      <point x="88.955" y="128.095" type="curve" smooth="yes"/>
      <point x="88.955" y="39.635" type="line" smooth="yes"/>
      <point x="88.955" y="-194.075"/>
      <point x="209.075" y="-323.0"/>
      <point x="474.475" y="-323.0" type="curve" smooth="yes"/>
      <point x="629.11" y="-323.0"/>
      <point x="752.895" y="-275.42"/>
      <point x="822.175" y="-232.7" type="curve"/>
      <point x="840.735" y="-85.50999999999999" type="line"/>
      <point x="749.175" y="-137.445"/>
      <point x="628.96" y="-182.595"/>
      <point x="499.025" y="-182.595" type="curve" smooth="yes"/>
      <point x="320.21" y="-182.595"/>
      <point x="253.34" y="-98.855"/>
      <point x="253.34" y="53.195" type="curve" smooth="yes"/>
      <point x="253.34" y="130.45" type="line" smooth="yes"/>
      <point x="253.34" y="295.565"/>
      <point x="336.94" y="378.8"/>
      <point x="535.745" y="425.67" type="curve" smooth="yes"/>
      <point x="615.585" y="444.24" type="line"/>
    </contour>
    <contour>
      <point x="543.055" y="995.56" type="curve" smooth="yes"/>
      <point x="474.59" y="995.56"/>
      <point x="441.535" y="956.15"/>
      <point x="441.535" y="886.75" type="curve" smooth="yes"/>
      <point x="441.535" y="876.75" type="line" smooth="yes"/>
      <point x="441.535" y="808.35"/>
      <point x="474.59" y="769.155"/>
      <point x="543.055" y="769.155" type="curve" smooth="yes"/>
      <point x="611.875" y="769.155"/>
      <point x="644.145" y="808.35"/>
      <point x="644.145" y="876.75" type="curve" smooth="yes"/>
      <point x="644.145" y="886.75" type="line" smooth="yes"/>
      <point x="644.145" y="956.15"/>
      <point x="611.875" y="995.56"/>
    </contour>
  </outline>
</glyph>
<glyph name="AE" format="2">
  <advance width="1747.715"/>
  <unicode hex="00C6"/>
  <anchor x="872.82" y="0.0" name="bottom"/>
  <anchor x="872.82" y="1278.0" name="top"/>
  <outline>
    <contour>
      <point x="47.31" y="0.0" type="line"/>
      <point x="222.975" y="0.0" type="line"/>
      <point x="799.765" y="1165.93" type="line"/>
      <point x="881.045" y="1165.93" type="line"/>
      <point x="881.045" y="1278.0" type="line"/>
      <point x="686.63" y="1278.0" type="line"/>
    </contour>
    <contour>
      <point x="345.785" y="377.425" type="line"/>
      <point x="911.305" y="377.425" type="line"/>
      <point x="911.305" y="515.26" type="line"/>
      <point x="345.785" y="515.26" type="line"/>
    </contour>
    <contour>
      <point x="901.885" y="0.0" type="line"/>
      <point x="1649.77" y="0.0" type="line"/>
      <point x="1649.77" y="139.405" type="line"/>
      <point x="901.885" y="139.405" type="line"/>
    </contour>
    <contour>
      <point x="852.775" y="0.0" type="line"/>
      <point x="1016.59" y="0.0" type="line"/>
      <point x="1016.59" y="1278.0" type="line"/>
      <point x="852.775" y="1278.0" type="line"/>
    </contour>
    <contour>
      <point x="946.565" y="583.05" type="line"/>
      <point x="1628.415" y="583.05" type="line"/>
      <point x="1628.415" y="720.885" type="line"/>
      <point x="946.565" y="720.885" type="line"/>
    </contour>
    <contour>
      <point x="900.67" y="1139.38" type="line"/>
      <point x="1643.2" y="1139.38" type="line"/>
      <point x="1643.2" y="1278.0" type="line"/>
      <point x="900.67" y="1278.0" type="line"/>
    </contour>
  </outline>
</glyph>
<glyph name="Eth" format="2">
  <advance width="1182.53"/>
  <unicode hex="00D0"/>
  <anchor x="583.625" y="0.0" name="bottom"/>
  <anchor x="599.765" y="639.0" name="center"/>
  <anchor x="583.625" y="1278.0" name="top"/>
  <outline>
    <contour>
      <point x="6.9350000000000005" y="595.405" type="line"/>
      <point x="628.625" y="595.405" type="line"/>
      <point x="628.625" y="720.465" type="line"/>
      <point x="6.9350000000000005" y="720.465" type="line"/>
    </contour>
    <component base="D"/>
  </outline>
</glyph>
<glyph name="multiply" format="2">
  <advance width="960.365"/>
  <unicode hex="00D7"/>
  <outline>
    <contour>
      <point x="857.895" y="322.185" type="line"/>
      <point x="202.195" y="1003.98" type="line"/>
      <point x="107.9" y="919.18" type="line"/>
      <point x="763.385" y="236.6" type="line"/>
    </contour>
    <contour>
      <point x="102.47" y="322.185" type="line"/>
      <point x="196.98" y="236.6" type="line"/>
      <point x="852.465" y="919.18" type="line"/>
      <point x="758.17" y="1003.98" type="line"/>
    </contour>
  </outline>
</glyph>
<glyph name="Oslash" format="2">
  <advance width="1196.585"/>
  <unicode hex="00D8"/>
  <anchor x="598.4" y="0.0" name="bottom"/>
  <anchor x="598.4" y="639.785" name="center"/>
  <anchor x="1087.305" y="10.785" name="ogonek"/>
  <anchor x="598.4" y="1278.0" name="top"/>
  <anchor x="6.215" y="1278.785" name="topleft"/>
  <anchor x="1189.585" y="1278.785" name="topright"/>
  <outline>
    <contour>
      <point x="598.185" y="-24.28" type="curve" smooth="yes"/>
      <point x="920.65" y="-24.28"/>
      <point x="1092.35" y="160.71"/>
      <point x="1092.35" y="491.69" type="curve" smooth="yes"/>
      <point x="1092.35" y="787.095" type="line" smooth="yes"/>
      <point x="1092.35" y="1109.44"/>
      <point x="912.8" y="1302.28"/>
      <point x="598.185" y="1302.28" type="curve" smooth="yes"/>
      <point x="274.935" y="1302.28"/>
      <point x="104.235" y="1117.29"/>
      <point x="104.235" y="787.095" type="curve" smooth="yes"/>
      <point x="104.235" y="491.69" type="line" smooth="yes"/>
      <point x="104.235" y="168.56"/>
      <point x="282.785" y="-24.28"/>
    </contour>
    <contour>
      <point x="116.965" y="-68.14" type="line"/>
      <point x="269.08" y="-68.14" type="line"/>
      <point x="363.425" y="92.205" type="line"/>
      <point x="376.92" y="117.41" type="line"/>
      <point x="909.465" y="1079.995" type="line"/>
      <point x="943.585" y="1131.32" type="line"/>
      <point x="1079.62" y="1345.925" type="line"/>
      <point x="928.075" y="1345.925" type="line"/>
      <point x="843.58" y="1207.42" type="line"/>
      <point x="827.3" y="1171.365" type="line"/>
      <point x="290.83" y="201.715" type="line"/>
      <point x="254.0" y="152.605" type="line"/>
    </contour>
    <contour>
      <point x="598.185" y="114.555" type="curve" smooth="yes"/>
      <point x="374.65" y="114.555"/>
      <point x="272.76" y="249.08"/>
      <point x="272.76" y="485.41" type="curve" smooth="yes"/>
      <point x="272.76" y="793.59" type="line" smooth="yes"/>
      <point x="272.76" y="1030.705"/>
      <point x="382.5" y="1163.445"/>
      <point x="598.185" y="1163.445" type="curve" smooth="yes"/>
      <point x="821.15" y="1163.445"/>
      <point x="923.825" y="1030.705"/>
      <point x="923.825" y="793.59" type="curve" smooth="yes"/>
      <point x="923.825" y="485.41" type="line" smooth="yes"/>
      <point x="923.825" y="249.08"/>
      <point x="813.3" y="114.555"/>
    </contour>
  </outline>
</glyph>
<glyph name="Thorn" format="2">
  <advance width="1120.885"/>
  <unicode hex="00DE"/>
  <anchor x="558.335" y="0.0" name="bottom"/>
  <anchor x="558.335" y="1278.0" name="top"/>
  <outline>
    <contour>
      <point x="259.165" y="216.095" type="line"/>
      <point x="625.98" y="216.095" type="line" smooth="yes"/>
      <point x="910.165" y="216.095"/>
      <point x="1036.005" y="358.88"/>
      <point x="1036.005" y="595.645" type="curve" smooth="yes"/>
      <point x="1036.005" y="691.57" type="line" smooth="yes"/>
      <point x="1036.005" y="926.905"/>
      <point x="911.165" y="1069.045"/>
      <point x="627.41" y="1069.045" type="curve" smooth="yes"/>
      <point x="257.95" y="1069.045" type="line"/>
      <point x="257.95" y="932.21" type="line"/>
      <point x="623.84" y="932.21" type="line" smooth="yes"/>
      <point x="797.105" y="932.21"/>
      <point x="870.62" y="842.75"/>
      <point x="870.62" y="687.215" type="curve" smooth="yes"/>
      <point x="870.62" y="600.0" type="line" smooth="yes"/>
      <point x="870.62" y="446.175"/>
      <point x="796.89" y="353.93"/>
      <point x="621.625" y="353.93" type="curve" smooth="yes"/>
      <point x="259.165" y="353.93" type="line"/>
    </contour>
    <contour>
      <point x="151.245" y="0.0" type="line"/>
      <point x="314.275" y="0.0" type="line"/>
      <point x="314.275" y="259.495" type="line"/>
      <point x="314.275" y="303.325" type="line"/>
      <point x="314.275" y="972.825" type="line"/>
      <point x="314.275" y="1035.495" type="line"/>
      <point x="314.275" y="1278.0" type="line"/>
      <point x="151.245" y="1278.0" type="line"/>
    </contour>
  </outline>
</glyph>
<glyph name="germandbls" format="2">
  <advance width="1135.445"/>
  <unicode hex="00DF"/>
  <anchor x="543.4" y="0.0" name="bottom"/>
  <anchor x="543.4" y="976.495" name="top"/>
  <outline>
    <contour>
      <point x="132.17" y="985.45" type="curve" smooth="yes"/>
      <point x="132.17" y="0.0" type="line"/>
      <point x="291.63" y="0.0" type="line"/>
      <point x="291.63" y="979.525" type="line" smooth="yes"/>
      <point x="291.63" y="1133.705"/>
      <point x="346.93" y="1221.8"/>
      <point x="515.12" y="1221.8" type="curve" smooth="yes"/>
      <point x="654.805" y="1221.8"/>
      <point x="718.535" y="1163.275"/>
      <point x="718.535" y="1084.105" type="curve" smooth="yes"/>
      <point x="718.535" y="948.13"/>
      <point x="483.85" y="886.01"/>
      <point x="483.85" y="696.86" type="curve" smooth="yes"/>
      <point x="483.85" y="690.86" type="line" smooth="yes"/>
      <point x="483.85" y="562.01"/>
      <point x="551.56" y="511.3"/>
      <point x="719.355" y="448.665" type="curve" smooth="yes"/>
      <point x="856.665" y="397.88"/>
      <point x="898.675" y="360.935"/>
      <point x="898.675" y="271.54" type="curve" smooth="yes"/>
      <point x="898.675" y="260.895" type="line" smooth="yes"/>
      <point x="898.675" y="168.285"/>
      <point x="835.515" y="117.265"/>
      <point x="708.205" y="117.265" type="curve" smooth="yes"/>
      <point x="619.475" y="117.265"/>
      <point x="545.055" y="140.265"/>
      <point x="469.765" y="173.77" type="curve"/>
      <point x="484.4" y="26.58" type="line"/>
      <point x="544.4" y="2.505"/>
      <point x="620.325" y="-19.0"/>
      <point x="723.12" y="-19.0" type="curve" smooth="yes"/>
      <point x="931.52" y="-19.0"/>
      <point x="1057.35" y="75.85"/>
      <point x="1057.35" y="258.755" type="curve" smooth="yes"/>
      <point x="1057.35" y="273.325" type="line" smooth="yes"/>
      <point x="1057.35" y="432.96"/>
      <point x="981.145" y="491.82"/>
      <point x="813.35" y="552.53" type="curve" smooth="yes"/>
      <point x="688.32" y="597.82"/>
      <point x="643.095" y="627.895"/>
      <point x="643.095" y="700.85" type="curve" smooth="yes"/>
      <point x="643.095" y="705.495" type="line" smooth="yes"/>
      <point x="643.095" y="836.965"/>
      <point x="879.565" y="892.88"/>
      <point x="879.565" y="1088.03" type="curve"/>
      <point x="879.565" y="1255.355"/>
      <point x="742.455" y="1351.57"/>
      <point x="516.69" y="1351.57" type="curve" smooth="yes"/>
      <point x="238.225" y="1351.57"/>
      <point x="132.17" y="1221.785"/>
    </contour>
  </outline>
</glyph>
<glyph name="ae" format="2">
  <advance width="1617.615"/>
  <unicode hex="00E6"/>
  <anchor x="809.7" y="0.0" name="bottom"/>
  <anchor x="809.7" y="976.495" name="top"/>
  <outline>
    <contour>
      <point x="1161.195" y="-22.14" type="curve" smooth="yes"/>
      <point x="1299.83" y="-22.14"/>
      <point x="1416.54" y="13.365"/>
      <point x="1502.605" y="67.945" type="curve"/>
      <point x="1517.81" y="208.5" type="line"/>
      <point x="1420.885" y="150.2"/>
      <point x="1312.53" y="114.91"/>
      <point x="1187.315" y="114.91" type="curve" smooth="yes"/>
      <point x="966.53" y="114.91"/>
      <point x="872.855" y="223.285"/>
      <point x="872.855" y="389.475" type="curve" smooth="yes"/>
      <point x="872.855" y="472.785" type="line"/>
      <point x="872.855" y="492.56" type="line"/>
      <point x="872.855" y="587.925" type="line" smooth="yes"/>
      <point x="872.855" y="765.63"/>
      <point x="957.24" y="869.94"/>
      <point x="1125.925" y="869.94" type="curve" smooth="yes"/>
      <point x="1293.75" y="869.94"/>
      <point x="1378.705" y="770.91"/>
      <point x="1378.705" y="592.785" type="curve" smooth="yes"/>
      <point x="1378.705" y="543.44"/>
      <point x="1377.92" y="487.095"/>
      <point x="1376.35" y="422.825" type="curve"/>
      <point x="1524.96" y="422.825" type="line"/>
      <point x="1531.1" y="464.32"/>
      <point x="1534.24" y="507.02"/>
      <point x="1534.24" y="549.58" type="curve" smooth="yes"/>
      <point x="1534.24" y="585.935" type="line" smooth="yes"/>
      <point x="1534.24" y="842.505"/>
      <point x="1401.315" y="1001.85"/>
      <point x="1143.98" y="1001.85" type="curve" smooth="yes"/>
      <point x="949.55" y="1001.85"/>
      <point x="829.615" y="908.41"/>
      <point x="791.41" y="764.295" type="curve"/>
      <point x="788.85" y="764.295" type="line"/>
      <point x="758.72" y="908.475"/>
      <point x="659.075" y="998.635"/>
      <point x="470.495" y="998.635" type="curve" smooth="yes"/>
      <point x="315.99" y="998.635"/>
      <point x="201.065" y="947.27"/>
      <point x="128.075" y="900.84" type="curve"/>
      <point x="112.87" y="763.07" type="line"/>
      <point x="202.86" y="815.22"/>
      <point x="320.0" y="863.37"/>
      <point x="460.29" y="863.37" type="curve" smooth="yes"/>
      <point x="627.46" y="863.37"/>
      <point x="712.61" y="784.695"/>
      <point x="712.61" y="622.01" type="curve"/>
      <point x="711.825" y="499.835" type="line"/>
      <point x="711.04" y="426.94"/>
      <point x="712.825" y="363.175"/>
      <point x="717.825" y="295.27" type="curve"/>
      <point x="734.17" y="261.935" type="line"/>
      <point x="775.59" y="83.15"/>
      <point x="917.935" y="-22.14"/>
    </contour>
    <contour>
      <point x="383.16" y="-21.355" type="curve" smooth="yes"/>
      <point x="601.525" y="-21.355"/>
      <point x="705.47" y="86.6"/>
      <point x="745.17" y="222.77" type="curve"/>
      <point x="774.225" y="222.77" type="line"/>
      <point x="721.395" y="328.85" type="line"/>
      <point x="692.825" y="207.23"/>
      <point x="594.59" y="113.695"/>
      <point x="426.625" y="113.695" type="curve" smooth="yes"/>
      <point x="300.08" y="113.695"/>
      <point x="236.265" y="170.145"/>
      <point x="236.265" y="273.12" type="curve" smooth="yes"/>
      <point x="236.265" y="289.055" type="line" smooth="yes"/>
      <point x="236.265" y="388.805"/>
      <point x="294.93" y="435.965"/>
      <point x="443.905" y="457.115" type="curve" smooth="yes"/>
      <point x="741.815" y="499.695" type="line"/>
      <point x="732.965" y="618.475" type="line"/>
      <point x="424.345" y="573.895" type="line" smooth="yes"/>
      <point x="182.645" y="539.11"/>
      <point x="75.235" y="459.325"/>
      <point x="75.235" y="279.99" type="curve" smooth="yes"/>
      <point x="75.235" y="251.495" type="line" smooth="yes"/>
      <point x="75.235" y="78.28"/>
      <point x="181.095" y="-21.355"/>
    </contour>
    <contour>
      <point x="797.12" y="422.825" type="line"/>
      <point x="1490.55" y="422.825" type="line"/>
      <point x="1490.55" y="546.1" type="line"/>
      <point x="797.12" y="546.1" type="line"/>
    </contour>
  </outline>
</glyph>
<glyph name="eth" format="2">
  <advance width="1039.605"/>
  <unicode hex="00F0"/>
  <outline>
    <contour>
      <point x="520.195" y="-24.57" type="curve" smooth="yes"/>
      <point x="799.595" y="-24.57"/>
      <point x="946.725" y="131.28"/>
      <point x="946.725" y="415.625" type="curve"/>
      <point x="946.725" y="530.955" type="line"/>
      <point x="946.725" y="878.255"/>
      <point x="761.09" y="1054.57"/>
      <point x="443.535" y="1325.075" type="curve"/>
      <point x="238.17" y="1325.075" type="line"/>
      <point x="238.17" y="1324.29" type="line"/>
      <point x="572.555" y="1055.515"/>
      <point x="753.695" y="899.675"/>
      <point x="783.34" y="682.41" type="curve"/>
      <point x="783.48" y="633.375"/>
      <point x="783.695" y="606.89"/>
      <point x="784.695" y="553.93" type="curve"/>
      <point x="784.695" y="496.695"/>
      <point x="784.695" y="455.375"/>
      <point x="784.695" y="405.99" type="curve" smooth="yes"/>
      <point x="784.695" y="212.51"/>
      <point x="692.955" y="107.34"/>
      <point x="520.195" y="107.34" type="curve" smooth="yes"/>
      <point x="347.22" y="107.34"/>
      <point x="255.48" y="212.51"/>
      <point x="255.48" y="405.99" type="curve" smooth="yes"/>
      <point x="255.48" y="492.235" type="line" smooth="yes"/>
      <point x="255.48" y="683.5"/>
      <point x="345.22" y="788.67"/>
      <point x="515.55" y="788.67" type="curve" smooth="yes"/>
      <point x="681.635" y="788.67"/>
      <point x="782.115" y="688.015"/>
      <point x="784.695" y="501.265" type="curve"/>
      <point x="800.2" y="736.86" type="line"/>
      <point x="758.155" y="727.16" type="line"/>
      <point x="721.26" y="844.67"/>
      <point x="625.49" y="918.225"/>
      <point x="470.59" y="918.225" type="curve" smooth="yes"/>
      <point x="237.085" y="918.225"/>
      <point x="92.88" y="760.235"/>
      <point x="92.88" y="489.31" type="curve" smooth="yes"/>
      <point x="92.88" y="415.41" type="line" smooth="yes"/>
      <point x="92.88" y="131.495"/>
      <point x="240.58" y="-24.57"/>
    </contour>
    <contour>
      <point x="203.375" y="995.47" type="line"/>
      <point x="894.8" y="1170.05" type="line"/>
      <point x="894.8" y="1276.485" type="line"/>
      <point x="203.375" y="1101.905" type="line"/>
    </contour>
  </outline>
</glyph>
<glyph name="divide" format="2">
  <advance width="1001.42"/>
  <unicode hex="00F7"/>
  <outline>
    <contour>
      <point x="103.515" y="555.62" type="line"/>
      <point x="897.905" y="555.62" type="line"/>
      <point x="897.905" y="688.315" type="line"/>
      <point x="103.515" y="688.315" type="line"/>
    </contour>
    <contour>
      <point x="505.065" y="173.62" type="curve" smooth="yes"/>
      <point x="567.25" y="173.62"/>
      <point x="597.165" y="209.89"/>
      <point x="597.165" y="273.01" type="curve" smooth="yes"/>
      <point x="597.165" y="282.225" type="line" smooth="yes"/>
      <point x="597.165" y="344.345"/>
      <point x="567.25" y="380.4"/>
      <point x="505.065" y="380.4" type="curve" smooth="yes"/>
      <point x="442.525" y="380.4"/>
      <point x="413.395" y="344.345"/>
      <point x="413.395" y="282.225" type="curve" smooth="yes"/>
      <point x="413.395" y="273.01" type="line" smooth="yes"/>
      <point x="413.395" y="209.89"/>
      <point x="442.525" y="173.62"/>
    </contour>
    <contour>
      <point x="505.065" y="864.32" type="curve" smooth="yes"/>
      <point x="567.25" y="864.32"/>
      <point x="597.165" y="900.59"/>
      <point x="597.165" y="963.71" type="curve" smooth="yes"/>
      <point x="597.165" y="972.925" type="line" smooth="yes"/>
      <point x="597.165" y="1035.045"/>
      <point x="567.25" y="1071.1"/>
      <point x="505.065" y="1071.1" type="curve" smooth="yes"/>
      <point x="442.525" y="1071.1"/>
      <point x="413.395" y="1035.045"/>
      <point x="413.395" y="972.925" type="curve" smooth="yes"/>
      <point x="413.395" y="963.71" type="line" smooth="yes"/>
      <point x="413.395" y="900.59"/>
      <point x="442.525" y="864.32"/>
    </contour>
  </outline>
</glyph>
<glyph name="oslash" format="2">
  <advance width="1039.605"/>
  <unicode hex="00F8"/>
  <anchor x="519.41" y="0.0" name="bottom"/>
  <anchor x="519.41" y="489.14" name="center"/>
  <anchor x="938.605" y="10.0" name="ogonek"/>
  <anchor x="519.41" y="976.495" name="top"/>
  <anchor x="1023.1" y="976.495" name="topright"/>
  <outline>
    <contour>
      <point x="520.195" y="-24.57" type="curve" smooth="yes"/>
      <point x="799.595" y="-24.57"/>
      <point x="946.725" y="131.28"/>
      <point x="946.725" y="415.41" type="curve"/>
      <point x="946.725" y="563.87" type="line"/>
      <point x="946.725" y="847.0"/>
      <point x="799.595" y="1001.85"/>
      <point x="520.195" y="1001.85" type="curve" smooth="yes"/>
      <point x="240.795" y="1001.85"/>
      <point x="92.88" y="847.0"/>
      <point x="92.88" y="563.87" type="curve"/>
      <point x="92.88" y="415.41" type="line"/>
      <point x="92.88" y="132.28"/>
      <point x="240.58" y="-24.57"/>
    </contour>
    <contour>
      <point x="113.18" y="-68.14" type="line"/>
      <point x="253.875" y="-68.14" type="line"/>
      <point x="331.51" y="57.495" type="line"/>
      <point x="355.425" y="99.4" type="line"/>
      <point x="776.55" y="820.77" type="line"/>
      <point x="812.81" y="870.88" type="line"/>
      <point x="926.425" y="1044.635" type="line"/>
      <point x="786.73" y="1044.635" type="line"/>
      <point x="715.945" y="928.775" type="line"/>
      <point x="694.03" y="891.87" type="line"/>
      <point x="268.98" y="167.36" type="line"/>
      <point x="233.29" y="119.39" type="line"/>
    </contour>
    <contour>
      <point x="520.195" y="107.34" type="curve" smooth="yes"/>
      <point x="347.22" y="107.34"/>
      <point x="255.48" y="213.29500000000002"/>
      <point x="255.48" y="405.99" type="curve" smooth="yes"/>
      <point x="255.48" y="573.29" type="line" smooth="yes"/>
      <point x="255.48" y="764.77"/>
      <point x="347.22" y="869.94"/>
      <point x="520.195" y="869.94" type="curve" smooth="yes"/>
      <point x="693.17" y="869.94"/>
      <point x="784.91" y="764.77"/>
      <point x="784.91" y="573.29" type="curve" smooth="yes"/>
      <point x="784.91" y="405.99" type="line" smooth="yes"/>
      <point x="784.91" y="212.51"/>
      <point x="692.955" y="107.34"/>
    </contour>
  </outline>
</glyph>
<glyph name="idotless" format="2">
  <advance width="432.445"/>
  <unicode hex="0131"/>
  <anchor x="216.615" y="0.0" name="bottom"/>
  <anchor x="337.565" y="0.0" name="ogonek"/>
  <anchor x="216.615" y="976.495" name="top"/>
  <outline>
    <contour>
      <point x="135.6" y="0.0" type="line"/>
      <point x="297.63" y="0.0" type="line"/>
      <point x="297.63" y="976.495" type="line"/>
      <point x="135.6" y="976.495" type="line"/>
    </contour>
  </outline>
</glyph>
<glyph name="OE" format="2">
  <advance width="1710.78"/>
  <unicode hex="0152"/>
  <anchor x="843.4" y="0.0" name="bottom"/>
  <anchor x="843.4" y="1278.0" name="top"/>
  <outline>
    <contour>
      <point x="598.185" y="-24.28" type="curve" smooth="yes"/>
      <point x="920.65" y="-24.28"/>
      <point x="1092.35" y="160.71"/>
      <point x="1092.35" y="491.69" type="curve" smooth="yes"/>
      <point x="1092.35" y="787.095" type="line" smooth="yes"/>
      <point x="1092.35" y="1117.29"/>
      <point x="920.65" y="1302.28"/>
      <point x="598.185" y="1302.28" type="curve" smooth="yes"/>
      <point x="274.935" y="1302.28"/>
      <point x="104.235" y="1117.29"/>
      <point x="104.235" y="787.095" type="curve" smooth="yes"/>
      <point x="104.235" y="491.69" type="line" smooth="yes"/>
      <point x="104.235" y="160.71"/>
      <point x="274.935" y="-24.28"/>
    </contour>
    <contour>
      <point x="598.185" y="114.555" type="curve" smooth="yes"/>
      <point x="382.5" y="114.555"/>
      <point x="272.76" y="249.08"/>
      <point x="272.76" y="485.41" type="curve" smooth="yes"/>
      <point x="272.76" y="793.59" type="line" smooth="yes"/>
      <point x="272.76" y="1030.705"/>
      <point x="382.5" y="1163.445"/>
      <point x="598.185" y="1163.445" type="curve" smooth="yes"/>
      <point x="813.3" y="1163.445"/>
      <point x="923.825" y="1030.705"/>
      <point x="923.825" y="793.59" type="curve" smooth="yes"/>
      <point x="923.825" y="485.41" type="line" smooth="yes"/>
      <point x="923.825" y="249.08"/>
      <point x="813.3" y="114.555"/>
    </contour>
    <contour>
      <point x="756.455" y="0.0" type="line"/>
      <point x="1612.835" y="0.0" type="line"/>
      <point x="1612.835" y="139.405" type="line"/>
      <point x="756.455" y="139.405" type="line"/>
    </contour>
    <contour>
      <point x="946.18" y="583.05" type="line"/>
      <point x="1591.48" y="583.05" type="line"/>
      <point x="1591.48" y="720.885" type="line"/>
      <point x="946.18" y="720.885" type="line"/>
    </contour>
    <contour>
      <point x="755.24" y="1139.38" type="line"/>
      <point x="1606.265" y="1139.38" type="line"/>
      <point x="1606.265" y="1278.0" type="line"/>
      <point x="755.24" y="1278.0" type="line"/>
    </contour>
  </outline>
</glyph>
<glyph name="oe" format="2">
  <advance width="1691.485"/>
  <unicode hex="0153"/>
  <anchor x="844.99" y="0.0" name="bottom"/>
  <anchor x="844.99" y="976.495" name="top"/>
  <outline>
    <contour>
      <point x="497.785" y="-24.57" type="curve" smooth="yes"/>
      <point x="695.15" y="-24.57"/>
      <point x="815.44" y="60.59"/>
      <point x="863.215" y="216.77" type="curve"/>
      <point x="866.635" y="216.77" type="line"/>
      <point x="918.12" y="58.45"/>
      <point x="1047.26" y="-22.14"/>
      <point x="1243.99" y="-22.14" type="curve" smooth="yes"/>
      <point x="1378.625" y="-22.14"/>
      <point x="1492.765" y="13.365"/>
      <point x="1576.475" y="67.945" type="curve"/>
      <point x="1591.68" y="208.5" type="line"/>
      <point x="1495.185" y="150.2"/>
      <point x="1386.615" y="114.91"/>
      <point x="1263.83" y="114.91" type="curve" smooth="yes"/>
      <point x="1046.96" y="114.91"/>
      <point x="946.725" y="218.575"/>
      <point x="946.725" y="394.635" type="curve" smooth="yes"/>
      <point x="946.725" y="471.215" type="line"/>
      <point x="946.725" y="490.99" type="line"/>
      <point x="946.725" y="588.14" type="line" smooth="yes"/>
      <point x="946.725" y="769.555"/>
      <point x="1030.325" y="869.94"/>
      <point x="1198.225" y="869.94" type="curve" smooth="yes"/>
      <point x="1366.835" y="869.94"/>
      <point x="1452.575" y="770.91"/>
      <point x="1452.575" y="592.785" type="curve" smooth="yes"/>
      <point x="1452.575" y="545.01"/>
      <point x="1451.79" y="487.095"/>
      <point x="1450.22" y="422.825" type="curve"/>
      <point x="1598.83" y="422.825" type="line"/>
      <point x="1604.97" y="464.32"/>
      <point x="1608.11" y="507.02"/>
      <point x="1608.11" y="549.58" type="curve" smooth="yes"/>
      <point x="1608.11" y="585.935" type="line" smooth="yes"/>
      <point x="1608.11" y="842.505"/>
      <point x="1474.4" y="1001.85"/>
      <point x="1213.925" y="1001.85" type="curve" smooth="yes"/>
      <point x="1032.055" y="1001.85"/>
      <point x="913.69" y="915.475"/>
      <point x="866.85" y="764.295" type="curve"/>
      <point x="863.0" y="764.295" type="line"/>
      <point x="812.515" y="915.69"/>
      <point x="696.15" y="1001.85"/>
      <point x="497.785" y="1001.85" type="curve" smooth="yes"/>
      <point x="239.01" y="1001.85"/>
      <point x="92.88" y="847.0"/>
      <point x="92.88" y="563.87" type="curve" smooth="yes"/>
      <point x="92.88" y="415.41" type="line" smooth="yes"/>
      <point x="92.88" y="131.495"/>
      <point x="238.795" y="-24.57"/>
    </contour>
    <contour>
      <point x="870.99" y="422.825" type="line"/>
      <point x="1564.635" y="422.825" type="line"/>
      <point x="1564.635" y="546.1" type="line"/>
      <point x="870.99" y="546.1" type="line"/>
    </contour>
    <contour>
      <point x="518.195" y="107.34" type="curve" smooth="yes"/>
      <point x="346.22" y="107.34"/>
      <point x="255.48" y="212.51"/>
      <point x="255.48" y="405.99" type="curve" smooth="yes"/>
      <point x="255.48" y="573.29" type="line" smooth="yes"/>
      <point x="255.48" y="764.77"/>
      <point x="346.22" y="869.94"/>
      <point x="518.195" y="869.94" type="curve" smooth="yes"/>
      <point x="691.955" y="869.94"/>
      <point x="784.91" y="764.555"/>
      <point x="784.91" y="572.86" type="curve" smooth="yes"/>
      <point x="784.91" y="405.99" type="line" smooth="yes"/>
      <point x="784.91" y="212.51"/>
      <point x="691.955" y="107.34"/>
    </contour>
  </outline>
</glyph>
<glyph name="gravecomb" format="2">
  <unicode hex="0300"/>
  <anchor x="402.025" y="976.495" name="_top"/>
  <anchor x="289.38" y="1324.83" name="top"/>
  <outline>
    <contour>
      <point x="278.675" y="1366.28" type="line"/>
      <point x="98.795" y="1366.28" type="line"/>
      <point x="98.795" y="1363.495" type="line"/>
      <point x="329.215" y="1096.87" type="line"/>
      <point x="472.62" y="1096.87" type="line"/>
      <point x="472.62" y="1099.44" type="line"/>
    </contour>
  </outline>
</glyph>
<glyph name="acutecomb" format="2">
  <unicode hex="0301"/>
  <anchor x="166.53" y="976.495" name="_top"/>
  <anchor x="169.96" y="1324.83" name="top"/>
  <outline>
    <contour>
      <point x="290.095" y="1366.28" type="line"/>
      <point x="96.15" y="1099.44" type="line"/>
      <point x="96.15" y="1096.87" type="line"/>
      <point x="239.555" y="1096.87" type="line"/>
      <point x="469.975" y="1363.495" type="line"/>
      <point x="469.975" y="1366.28" type="line"/>
    </contour>
  </outline>
</glyph>
<glyph name="circumflexcomb" format="2">
  <unicode hex="0302"/>
  <anchor x="379.53" y="976.495" name="_top"/>
  <anchor x="379.53" y="1320.12" name="top"/>
  <outline>
    <contour>
      <point x="291.73" y="1366.28" type="line"/>
      <point x="101.075" y="1099.44" type="line"/>
      <point x="101.075" y="1096.87" type="line"/>
      <point x="230.35" y="1096.87" type="line"/>
      <point x="375.745" y="1275.405" type="line"/>
      <point x="383.315" y="1275.405" type="line"/>
      <point x="528.71" y="1096.87" type="line"/>
      <point x="657.985" y="1096.87" type="line"/>
      <point x="657.985" y="1099.44" type="line"/>
      <point x="467.33" y="1366.28" type="line"/>
    </contour>
  </outline>
</glyph>
<glyph name="tildecomb" format="2">
  <unicode hex="0303"/>
  <anchor x="378.25" y="976.495" name="_top"/>
  <anchor x="378.25" y="1313.55" name="top"/>
  <outline>
    <contour>
      <point x="509.465" y="1124.31" type="curve" smooth="yes"/>
      <point x="612.22" y="1124.31"/>
      <point x="652.64" y="1187.505"/>
      <point x="652.64" y="1297.625" type="curve" smooth="yes"/>
      <point x="652.64" y="1331.335" type="line"/>
      <point x="549.205" y="1331.335" type="line"/>
      <point x="549.205" y="1314.54" type="line" smooth="yes"/>
      <point x="549.205" y="1264.025"/>
      <point x="534.7" y="1239.735"/>
      <point x="495.335" y="1239.735" type="curve" smooth="yes"/>
      <point x="427.68" y="1239.735"/>
      <point x="344.97" y="1320.98"/>
      <point x="247.4" y="1320.98" type="curve" smooth="yes"/>
      <point x="143.86" y="1320.98"/>
      <point x="103.44" y="1256.0"/>
      <point x="103.44" y="1146.665" type="curve" smooth="yes"/>
      <point x="103.44" y="1113.74" type="line"/>
      <point x="206.66" y="1113.74" type="line"/>
      <point x="206.66" y="1130.75" type="line" smooth="yes"/>
      <point x="206.66" y="1180.48"/>
      <point x="222.165" y="1204.77"/>
      <point x="260.745" y="1204.77" type="curve" smooth="yes"/>
      <point x="328.185" y="1204.77"/>
      <point x="413.82" y="1124.31"/>
    </contour>
  </outline>
</glyph>
<glyph name="macroncomb" format="2">
  <unicode hex="0304"/>
  <anchor x="383.84" y="976.495" name="_top"/>
  <anchor x="384.055" y="1288.345" name="top"/>
  <outline>
    <contour>
      <point x="109.3" y="1160.975" type="line"/>
      <point x="658.38" y="1160.975" type="line"/>
      <point x="658.38" y="1272.26" type="line"/>
      <point x="109.3" y="1272.26" type="line"/>
    </contour>
  </outline>
</glyph>
<glyph name="dotaccentcomb" format="2">
  <unicode hex="0307"/>
  <anchor x="197.1" y="976.495" name="_top"/>
  <anchor x="196.885" y="1315.7" name="top"/>
  <outline>
    <contour>
      <point x="196.1" y="1134.9" type="curve" smooth="yes"/>
      <point x="260.425" y="1134.9"/>
      <point x="291.91" y="1169.385"/>
      <point x="291.91" y="1230.72" type="curve" smooth="yes"/>
      <point x="291.91" y="1236.72" type="line" smooth="yes"/>
      <point x="291.91" y="1296.84"/>
      <point x="260.425" y="1332.895"/>
      <point x="196.1" y="1332.895" type="curve" smooth="yes"/>
      <point x="132.775" y="1332.895"/>
      <point x="101.29" y="1296.84"/>
      <point x="101.29" y="1236.72" type="curve" smooth="yes"/>
      <point x="101.29" y="1230.72" type="line" smooth="yes"/>
      <point x="101.29" y="1169.385"/>
      <point x="132.775" y="1134.9"/>
    </contour>
  </outline>
</glyph>
<glyph name="dieresiscomb" format="2">
  <unicode hex="0308"/>
  <anchor x="340.875" y="976.495" name="_top"/>
  <anchor x="340.875" y="1315.7" name="top"/>
  <outline>
    <contour>
      <point x="188.25" y="1134.9" type="curve" smooth="yes"/>
      <point x="247.865" y="1134.9"/>
      <point x="275.995" y="1168.6"/>
      <point x="275.995" y="1229.15" type="curve" smooth="yes"/>
      <point x="275.995" y="1235.935" type="line" smooth="yes"/>
      <point x="275.995" y="1295.27"/>
      <point x="247.865" y="1328.97"/>
      <point x="188.25" y="1328.97" type="curve" smooth="yes"/>
      <point x="130.205" y="1328.97"/>
      <point x="101.29" y="1295.27"/>
      <point x="101.29" y="1235.935" type="curve" smooth="yes"/>
      <point x="101.29" y="1229.15" type="line" smooth="yes"/>
      <point x="101.29" y="1168.6"/>
      <point x="130.205" y="1134.9"/>
    </contour>
    <contour>
      <point x="493.715" y="1134.9" type="curve" smooth="yes"/>
      <point x="551.545" y="1134.9"/>
      <point x="580.46" y="1168.6"/>
      <point x="580.46" y="1229.15" type="curve" smooth="yes"/>
      <point x="580.46" y="1235.935" type="line" smooth="yes"/>
      <point x="580.46" y="1295.27"/>
      <point x="551.545" y="1328.97"/>
      <point x="493.715" y="1328.97" type="curve" smooth="yes"/>
      <point x="434.885" y="1328.97"/>
      <point x="406.755" y="1295.27"/>
      <point x="406.755" y="1235.935" type="curve" smooth="yes"/>
      <point x="406.755" y="1229.15" type="line" smooth="yes"/>
      <point x="406.755" y="1168.6"/>
      <point x="434.885" y="1134.9"/>
    </contour>
  </outline>
</glyph>
<glyph name="ringcomb" format="2">
  <unicode hex="030A"/>
  <anchor x="291.045" y="976.495" name="_top"/>
  <anchor x="291.26" y="1386.045" name="top"/>
  <outline>
    <contour>
      <point x="102.365" y="1247.505" type="line" smooth="yes"/>
      <point x="102.365" y="1149.87"/>
      <point x="165.86" y="1084.45"/>
      <point x="291.26" y="1084.45" type="curve" smooth="yes"/>
      <point x="414.875" y="1084.45"/>
      <point x="479.155" y="1149.87"/>
      <point x="479.155" y="1247.505" type="curve" smooth="yes"/>
      <point x="479.155" y="1251.075" type="line" smooth="yes"/>
      <point x="479.155" y="1350.71"/>
      <point x="414.875" y="1415.13"/>
      <point x="291.26" y="1415.13" type="curve" smooth="yes"/>
      <point x="165.86" y="1415.13"/>
      <point x="102.365" y="1350.71"/>
      <point x="102.365" y="1251.075" type="curve" smooth="yes"/>
    </contour>
    <contour>
      <point x="199.735" y="1248.29" type="curve" smooth="yes"/>
      <point x="199.735" y="1251.075" type="line" smooth="yes"/>
      <point x="199.735" y="1303.665"/>
      <point x="231.745" y="1333.32"/>
      <point x="291.26" y="1333.32" type="curve" smooth="yes"/>
      <point x="349.99" y="1333.32"/>
      <point x="382.0" y="1303.665"/>
      <point x="382.0" y="1251.075" type="curve" smooth="yes"/>
      <point x="382.0" y="1248.29" type="line" smooth="yes"/>
      <point x="382.0" y="1195.915"/>
      <point x="349.99" y="1166.475"/>
      <point x="291.26" y="1166.475" type="curve" smooth="yes"/>
      <point x="231.745" y="1166.475"/>
      <point x="199.735" y="1195.915"/>
    </contour>
  </outline>
</glyph>
<glyph name="cedillacomb" format="2">
  <unicode hex="0327"/>
  <anchor x="289.195" y="0.0" name="_bottom"/>
  <anchor x="334.915" y="-386.42" name="bottom"/>
  <outline>
    <contour>
      <point x="349.37" y="16.915" type="line"/>
      <point x="237.87" y="16.915" type="line"/>
      <point x="216.945" y="-152.99" type="line"/>
      <point x="220.385" y="-153.205"/>
      <point x="227.535" y="-153.42"/>
      <point x="240.32" y="-154.42" type="curve" smooth="yes"/>
      <point x="355.04" y="-161.85"/>
      <point x="396.76" y="-177.43"/>
      <point x="396.76" y="-224.31" type="curve" smooth="yes"/>
      <point x="396.76" y="-226.525" type="line" smooth="yes"/>
      <point x="396.76" y="-265.9"/>
      <point x="358.61" y="-285.91"/>
      <point x="286.945" y="-285.91" type="curve" smooth="yes"/>
      <point x="233.515" y="-285.91"/>
      <point x="183.515" y="-276.48"/>
      <point x="142.515" y="-262.62" type="curve"/>
      <point x="161.505" y="-364.775" type="line"/>
      <point x="198.43" y="-375.205"/>
      <point x="252.215" y="-384.85"/>
      <point x="306.785" y="-384.85" type="curve" smooth="yes"/>
      <point x="443.335" y="-384.85"/>
      <point x="518.11" y="-337.355"/>
      <point x="518.11" y="-237.3" type="curve" smooth="yes"/>
      <point x="518.11" y="-231.945" type="line" smooth="yes"/>
      <point x="518.11" y="-140.235"/>
      <point x="455.4" y="-94.03"/>
      <point x="322.615" y="-87.17" type="curve" smooth="yes"/>
      <point x="301.55" y="-86.17"/>
      <point x="279.335" y="-86.74"/>
      <point x="259.56" y="-87.31" type="curve"/>
      <point x="328.66" y="-134.57" type="line"/>
    </contour>
  </outline>
</glyph>
<glyph name="Anusvara.tm" format="2">
  <unicode hex="0B82"/>
  <note>
Anusvara.tm
</note>
  <outline>
    <contour>
      <point x="271.155" y="1782.9" type="curve" smooth="yes"/>
      <point x="85.055" y="1782.9"/>
      <point x="2.215" y="1691.275"/>
      <point x="2.215" y="1537.445" type="curve" smooth="yes"/>
      <point x="2.215" y="1484.875" type="line"/>
      <point x="2.215" y="1329.83"/>
      <point x="85.055" y="1240.205"/>
      <point x="271.155" y="1240.205" type="curve" smooth="yes"/>
      <point x="458.825" y="1240.205"/>
      <point x="539.88" y="1329.83"/>
      <point x="539.88" y="1484.875" type="curve" smooth="yes"/>
      <point x="539.88" y="1537.445" type="line"/>
      <point x="539.88" y="1691.275"/>
      <point x="458.825" y="1782.9"/>
    </contour>
    <contour>
      <point x="271.155" y="1673.97" type="curve" smooth="yes"/>
      <point x="367.53" y="1673.97"/>
      <point x="407.755" y="1627.39"/>
      <point x="407.755" y="1538.8" type="curve" smooth="yes"/>
      <point x="407.755" y="1484.305" type="line"/>
      <point x="407.755" y="1395.93"/>
      <point x="368.315" y="1347.92"/>
      <point x="271.155" y="1347.92" type="curve" smooth="yes"/>
      <point x="175.78" y="1347.92"/>
      <point x="133.555" y="1395.93"/>
      <point x="133.555" y="1484.305" type="curve" smooth="yes"/>
      <point x="133.555" y="1538.8" type="line"/>
      <point x="133.555" y="1627.39"/>
      <point x="176.565" y="1673.97"/>
    </contour>
  </outline>
</glyph>
